<ttFont>
<head>
    <!-- Most of this table will be recalculated by the compiler -->
    <tableVersion value="1.0"/>
    <fontRevision value="1.00299072266"/>
    <checkSumAdjustment value="0xb30305f0"/>
    <magicNumber value="0x5f0f3cf5"/>
    <flags value="00100000 00001011"/>
    <unitsPerEm value="2048"/>
    <created value="Fri Jul 29 19:51:53 2011"/>
    <modified value="Fri Jul 29 19:51:53 2011"/>
    <xMin value="-151"/>
    <yMin value="-640"/>
    <xMax value="2697"/>
    <yMax value="1920"/>
    <macStyle value="00000000 00000001"/>
    <lowestRecPPEM value="8"/>
    <fontDirectionHint value="2"/>
    <indexToLocFormat value="0"/>
    <glyphDataFormat value="0"/>
  </head>
    <TTGlyph name=".notdef" xMin="177" yMin="-1" xMax="1593" yMax="1416">
      <contour>
        <pt x="177" y="1416" on="1"/>
        <pt x="1593" y="1416" on="1"/>
        <pt x="1593" y="-1" on="1"/>
        <pt x="177" y="-1" on="1"/>
      </contour>
      <contour>
        <pt x="564" y="206" on="1"/>
        <pt x="880" y="564" on="1"/>
        <pt x="1224" y="208" on="1"/>
        <pt x="1381" y="365" on="1"/>
        <pt x="1024" y="710" on="1"/>
        <pt x="1384" y="1054" on="1"/>
        <pt x="1218" y="1218" on="1"/>
        <pt x="885" y="853" on="1"/>
        <pt x="543" y="1213" on="1"/>
        <pt x="384" y="1050" on="1"/>
        <pt x="738" y="707" on="1"/>
        <pt x="392" y="392" on="1"/>
      </contour>
    </TTGlyph>
    <TTGlyph name="A" xMin="4" yMin="0" xMax="1550" yMax="1553">
      <contour>
        <pt x="4" y="116" on="1"/>
        <pt x="141" y="152" on="1"/>
        <pt x="646" y="1553" on="1"/>
        <pt x="908" y="1553" on="1"/>
        <pt x="1395" y="152" on="1"/>
        <pt x="1550" y="115" on="1"/>
        <pt x="1550" y="0" on="1"/>
        <pt x="934" y="0" on="1"/>
        <pt x="934" y="115" on="1"/>
        <pt x="1081" y="154" on="1"/>
        <pt x="1012" y="379" on="1"/>
        <pt x="442" y="379" on="1"/>
        <pt x="371" y="156" on="1"/>
        <pt x="528" y="116" on="1"/>
        <pt x="528" y="0" on="1"/>
        <pt x="4" y="0" on="1"/>
      </contour>
      <contour>
        <pt x="963" y="535" on="1"/>
        <pt x="817" y="1006" on="1"/>
        <pt x="734" y="1292" on="1"/>
        <pt x="492" y="535" on="1"/>
      </contour>
    </TTGlyph>
    <TTGlyph name="AE" xMin="4" yMin="0" xMax="1905" yMax="1553">
      <contour>
        <pt x="4" y="117" on="1"/>
        <pt x="134" y="149" on="1"/>
        <pt x="700" y="1553" on="1"/>
        <pt x="1723" y="1553" on="1"/>
        <pt x="1756" y="1236" on="1"/>
        <pt x="1604" y="1235" on="1"/>
        <pt x="1547" y="1393" on="1"/>
        <pt x="1039" y="1411" on="1"/>
        <pt x="1199" y="885" on="1"/>
        <pt x="1509" y="892" on="1"/>
        <pt x="1543" y="1045" on="1"/>
        <pt x="1673" y="1045" on="1"/>
        <pt x="1673" y="582" on="1"/>
        <pt x="1543" y="582" on="1"/>
        <pt x="1507" y="726" on="1"/>
        <pt x="1244" y="737" on="1"/>
        <pt x="1429" y="131" on="1"/>
        <pt x="1663" y="156" on="1"/>
        <pt x="1769" y="352" on="1"/>
        <pt x="1905" y="314" on="1"/>
        <pt x="1857" y="0" on="1"/>
        <pt x="958" y="0" on="1"/>
        <pt x="958" y="116" on="1"/>
        <pt x="1118" y="153" on="1"/>
        <pt x="1047" y="388" on="1"/>
        <pt x="438" y="388" on="1"/>
        <pt x="350" y="153" on="1"/>
        <pt x="522" y="117" on="1"/>
        <pt x="522" y="0" on="1"/>
        <pt x="4" y="0" on="1"/>
      </contour>
      <contour>
        <pt x="999" y="549" on="1"/>
        <pt x="821" y="1144" on="1"/>
        <pt x="786" y="1311" on="1"/>
        <pt x="499" y="549" on="1"/>
      </contour>
    </TTGlyph>
    <TTGlyph name="Aacute" xMin="4" yMin="0" xMax="1550" yMax="1920">
      <contour>
        <pt x="664" y="1683" on="1"/>
        <pt x="1020" y="1920" on="1"/>
        <pt x="1192" y="1747" on="1"/>
        <pt x="1162" y="1726" on="0"/>
        <pt x="1084" y="1689" on="0"/>
        <pt x="998" y="1658" on="0"/>
        <pt x="910" y="1632" on="0"/>
        <pt x="830" y="1613" on="0"/>
        <pt x="765" y="1601" on="0"/>
        <pt x="745" y="1599" on="1"/>
      </contour>
      <contour>
        <pt x="4" y="116" on="1"/>
        <pt x="141" y="152" on="1"/>
        <pt x="646" y="1553" on="1"/>
        <pt x="908" y="1553" on="1"/>
        <pt x="1395" y="152" on="1"/>
        <pt x="1550" y="115" on="1"/>
        <pt x="1550" y="0" on="1"/>
        <pt x="934" y="0" on="1"/>
        <pt x="934" y="115" on="1"/>
        <pt x="1081" y="154" on="1"/>
        <pt x="1012" y="379" on="1"/>
        <pt x="442" y="379" on="1"/>
        <pt x="371" y="156" on="1"/>
        <pt x="528" y="116" on="1"/>
        <pt x="528" y="0" on="1"/>
        <pt x="4" y="0" on="1"/>
      </contour>
      <contour>
        <pt x="963" y="535" on="1"/>
        <pt x="817" y="1006" on="1"/>
        <pt x="734" y="1292" on="1"/>
        <pt x="492" y="535" on="1"/>
      </contour>
    </TTGlyph>
    <TTGlyph name="Acircumflex" xMin="4" yMin="0" xMax="1550" yMax="1920">
      <contour>
        <pt x="406" y="1667" on="1"/>
        <pt x="672" y="1920" on="1"/>
        <pt x="885" y="1920" on="1"/>
        <pt x="1149" y="1668" on="1"/>
        <pt x="1048" y="1605" on="1"/>
        <pt x="780" y="1751" on="1"/>
        <pt x="503" y="1605" on="1"/>
      </contour>
      <contour>
        <pt x="4" y="116" on="1"/>
        <pt x="141" y="152" on="1"/>
        <pt x="646" y="1553" on="1"/>
        <pt x="908" y="1553" on="1"/>
        <pt x="1395" y="152" on="1"/>
        <pt x="1550" y="115" on="1"/>
        <pt x="1550" y="0" on="1"/>
        <pt x="934" y="0" on="1"/>
        <pt x="934" y="115" on="1"/>
        <pt x="1081" y="154" on="1"/>
        <pt x="1012" y="379" on="1"/>
        <pt x="442" y="379" on="1"/>
        <pt x="371" y="156" on="1"/>
        <pt x="528" y="116" on="1"/>
        <pt x="528" y="0" on="1"/>
        <pt x="4" y="0" on="1"/>
      </contour>
      <contour>
        <pt x="963" y="535" on="1"/>
        <pt x="817" y="1006" on="1"/>
        <pt x="734" y="1292" on="1"/>
        <pt x="492" y="535" on="1"/>
      </contour>
    </TTGlyph>
    <TTGlyph name="Adieresis" xMin="4" yMin="0" xMax="1550" yMax="1920">
      <contour>
        <pt x="1020" y="1633" on="1"/>
        <pt x="990" y="1633" on="0"/>
        <pt x="933" y="1651" on="0"/>
        <pt x="889" y="1685" on="0"/>
        <pt x="863" y="1734" on="0"/>
        <pt x="863" y="1766" on="1"/>
        <pt x="863" y="1799" on="0"/>
        <pt x="895" y="1855" on="0"/>
        <pt x="947" y="1897" on="0"/>
        <pt x="1012" y="1920" on="0"/>
        <pt x="1045" y="1920" on="1"/>
        <pt x="1087" y="1920" on="0"/>
        <pt x="1146" y="1900" on="0"/>
        <pt x="1184" y="1864" on="0"/>
        <pt x="1201" y="1816" on="0"/>
        <pt x="1201" y="1788" on="1"/>
        <pt x="1201" y="1752" on="0"/>
        <pt x="1171" y="1695" on="0"/>
        <pt x="1120" y="1655" on="0"/>
        <pt x="1055" y="1633" on="0"/>
      </contour>
      <contour>
        <pt x="508" y="1632" on="1"/>
        <pt x="477" y="1632" on="0"/>
        <pt x="421" y="1650" on="0"/>
        <pt x="378" y="1683" on="0"/>
        <pt x="353" y="1732" on="0"/>
        <pt x="353" y="1764" on="1"/>
        <pt x="353" y="1798" on="0"/>
        <pt x="384" y="1855" on="0"/>
        <pt x="435" y="1897" on="0"/>
        <pt x="500" y="1920" on="0"/>
        <pt x="533" y="1920" on="1"/>
        <pt x="575" y="1920" on="0"/>
        <pt x="635" y="1899" on="0"/>
        <pt x="674" y="1863" on="0"/>
        <pt x="693" y="1815" on="0"/>
        <pt x="693" y="1787" on="1"/>
        <pt x="693" y="1752" on="0"/>
        <pt x="662" y="1694" on="0"/>
        <pt x="610" y="1654" on="0"/>
        <pt x="543" y="1632" on="0"/>
      </contour>
      <contour>
        <pt x="4" y="116" on="1"/>
        <pt x="141" y="152" on="1"/>
        <pt x="646" y="1553" on="1"/>
        <pt x="908" y="1553" on="1"/>
        <pt x="1395" y="152" on="1"/>
        <pt x="1550" y="115" on="1"/>
        <pt x="1550" y="0" on="1"/>
        <pt x="934" y="0" on="1"/>
        <pt x="934" y="115" on="1"/>
        <pt x="1081" y="154" on="1"/>
        <pt x="1012" y="379" on="1"/>
        <pt x="442" y="379" on="1"/>
        <pt x="371" y="156" on="1"/>
        <pt x="528" y="116" on="1"/>
        <pt x="528" y="0" on="1"/>
        <pt x="4" y="0" on="1"/>
      </contour>
      <contour>
        <pt x="963" y="535" on="1"/>
        <pt x="817" y="1006" on="1"/>
        <pt x="734" y="1292" on="1"/>
        <pt x="492" y="535" on="1"/>
      </contour>
    </TTGlyph>
    <TTGlyph name="Agrave" xMin="4" yMin="0" xMax="1550" yMax="1920">
      <contour>
        <pt x="543" y="1920" on="1"/>
        <pt x="887" y="1683" on="1"/>
        <pt x="806" y="1599" on="1"/>
        <pt x="776" y="1602" on="0"/>
        <pt x="666" y="1626" on="0"/>
        <pt x="539" y="1664" on="0"/>
        <pt x="414" y="1716" on="0"/>
        <pt x="370" y="1747" on="1"/>
      </contour>
      <contour>
        <pt x="4" y="116" on="1"/>
        <pt x="141" y="152" on="1"/>
        <pt x="646" y="1553" on="1"/>
        <pt x="908" y="1553" on="1"/>
        <pt x="1395" y="152" on="1"/>
        <pt x="1550" y="115" on="1"/>
        <pt x="1550" y="0" on="1"/>
        <pt x="934" y="0" on="1"/>
        <pt x="934" y="115" on="1"/>
        <pt x="1081" y="154" on="1"/>
        <pt x="1012" y="379" on="1"/>
        <pt x="442" y="379" on="1"/>
        <pt x="371" y="156" on="1"/>
        <pt x="528" y="116" on="1"/>
        <pt x="528" y="0" on="1"/>
        <pt x="4" y="0" on="1"/>
      </contour>
      <contour>
        <pt x="963" y="535" on="1"/>
        <pt x="817" y="1006" on="1"/>
        <pt x="734" y="1292" on="1"/>
        <pt x="492" y="535" on="1"/>
      </contour>
    </TTGlyph>
    <TTGlyph name="Aogonek" xMin="4" yMin="-519" xMax="1550" yMax="1553">
      <contour>
        <pt x="4" y="116" on="1"/>
        <pt x="141" y="152" on="1"/>
        <pt x="646" y="1553" on="1"/>
        <pt x="908" y="1553" on="1"/>
        <pt x="1395" y="152" on="1"/>
        <pt x="1550" y="115" on="1"/>
        <pt x="1550" y="0" on="1"/>
        <pt x="1334" y="0" on="1"/>
        <pt x="1283" y="-18" on="0"/>
        <pt x="1184" y="-76" on="0"/>
        <pt x="1106" y="-141" on="0"/>
        <pt x="1055" y="-206" on="0"/>
        <pt x="1051" y="-232" on="1"/>
        <pt x="1044" y="-267" on="0"/>
        <pt x="1054" y="-309" on="0"/>
        <pt x="1080" y="-332" on="0"/>
        <pt x="1119" y="-341" on="0"/>
        <pt x="1142" y="-342" on="1"/>
        <pt x="1172" y="-344" on="0"/>
        <pt x="1236" y="-331" on="0"/>
        <pt x="1296" y="-311" on="0"/>
        <pt x="1350" y="-288" on="0"/>
        <pt x="1371" y="-280" on="1"/>
        <pt x="1400" y="-394" on="1"/>
        <pt x="1364" y="-421" on="0"/>
        <pt x="1278" y="-468" on="0"/>
        <pt x="1178" y="-502" on="0"/>
        <pt x="1061" y="-521" on="0"/>
        <pt x="993" y="-519" on="1"/>
        <pt x="936" y="-518" on="0"/>
        <pt x="858" y="-486" on="0"/>
        <pt x="810" y="-437" on="0"/>
        <pt x="788" y="-375" on="0"/>
        <pt x="787" y="-345" on="1"/>
        <pt x="786" y="-305" on="0"/>
        <pt x="836" y="-209" on="0"/>
        <pt x="926" y="-114" on="0"/>
        <pt x="1051" y="-29" on="0"/>
        <pt x="1125" y="0" on="1"/>
        <pt x="934" y="0" on="1"/>
        <pt x="934" y="115" on="1"/>
        <pt x="1081" y="154" on="1"/>
        <pt x="1012" y="379" on="1"/>
        <pt x="442" y="379" on="1"/>
        <pt x="371" y="156" on="1"/>
        <pt x="528" y="116" on="1"/>
        <pt x="528" y="0" on="1"/>
        <pt x="4" y="0" on="1"/>
      </contour>
      <contour>
        <pt x="963" y="535" on="1"/>
        <pt x="817" y="1006" on="1"/>
        <pt x="734" y="1292" on="1"/>
        <pt x="492" y="535" on="1"/>
      </contour>
    </TTGlyph>
    <TTGlyph name="Aring" xMin="4" yMin="0" xMax="1550" yMax="1920">
      <contour>
        <pt x="4" y="116" on="1"/>
        <pt x="141" y="152" on="1"/>
        <pt x="619" y="1477" on="1"/>
        <pt x="565" y="1508" on="0"/>
        <pt x="500" y="1610" on="0"/>
        <pt x="500" y="1678" on="1"/>
        <pt x="500" y="1733" on="0"/>
        <pt x="543" y="1823" on="0"/>
        <pt x="617" y="1886" on="0"/>
        <pt x="718" y="1920" on="0"/>
        <pt x="777" y="1920" on="1"/>
        <pt x="836" y="1920" on="0"/>
        <pt x="938" y="1885" on="0"/>
        <pt x="1013" y="1821" on="0"/>
        <pt x="1056" y="1732" on="0"/>
        <pt x="1056" y="1678" on="1"/>
        <pt x="1056" y="1609" on="0"/>
        <pt x="988" y="1507" on="0"/>
        <pt x="934" y="1476" on="1"/>
        <pt x="1395" y="152" on="1"/>
        <pt x="1550" y="115" on="1"/>
        <pt x="1550" y="0" on="1"/>
        <pt x="934" y="0" on="1"/>
        <pt x="934" y="115" on="1"/>
        <pt x="1081" y="154" on="1"/>
        <pt x="1012" y="379" on="1"/>
        <pt x="442" y="379" on="1"/>
        <pt x="371" y="156" on="1"/>
        <pt x="528" y="116" on="1"/>
        <pt x="528" y="0" on="1"/>
        <pt x="4" y="0" on="1"/>
      </contour>
      <contour>
        <pt x="777" y="1555" on="1"/>
        <pt x="804" y="1555" on="0"/>
        <pt x="851" y="1573" on="0"/>
        <pt x="885" y="1606" on="0"/>
        <pt x="905" y="1650" on="0"/>
        <pt x="905" y="1677" on="1"/>
        <pt x="905" y="1703" on="0"/>
        <pt x="885" y="1748" on="0"/>
        <pt x="851" y="1782" on="0"/>
        <pt x="804" y="1801" on="0"/>
        <pt x="777" y="1801" on="1"/>
        <pt x="749" y="1801" on="0"/>
        <pt x="702" y="1782" on="0"/>
        <pt x="667" y="1749" on="0"/>
        <pt x="648" y="1704" on="0"/>
        <pt x="648" y="1677" on="1"/>
        <pt x="648" y="1623" on="0"/>
        <pt x="721" y="1555" on="0"/>
      </contour>
      <contour>
        <pt x="963" y="535" on="1"/>
        <pt x="817" y="1006" on="1"/>
        <pt x="734" y="1292" on="1"/>
        <pt x="492" y="535" on="1"/>
      </contour>
    </TTGlyph>
    <TTGlyph name="Atilde" xMin="4" yMin="0" xMax="1550" yMax="1920">
      <contour>
        <pt x="363" y="1728" on="1"/>
        <pt x="380" y="1768" on="0"/>
        <pt x="449" y="1839" on="0"/>
        <pt x="533" y="1890" on="0"/>
        <pt x="621" y="1920" on="0"/>
        <pt x="657" y="1920" on="1"/>
        <pt x="692" y="1920" on="0"/>
        <pt x="748" y="1904" on="0"/>
        <pt x="795" y="1879" on="0"/>
        <pt x="835" y="1850" on="0"/>
        <pt x="874" y="1825" on="0"/>
        <pt x="913" y="1809" on="0"/>
        <pt x="936" y="1809" on="1"/>
        <pt x="992" y="1809" on="0"/>
        <pt x="1078" y="1854" on="0"/>
        <pt x="1110" y="1884" on="1"/>
        <pt x="1183" y="1797" on="1"/>
        <pt x="1165" y="1757" on="0"/>
        <pt x="1098" y="1690" on="0"/>
        <pt x="1016" y="1642" on="0"/>
        <pt x="930" y="1615" on="0"/>
        <pt x="893" y="1615" on="1"/>
        <pt x="841" y="1615" on="0"/>
        <pt x="765" y="1651" on="0"/>
        <pt x="702" y="1694" on="0"/>
        <pt x="644" y="1730" on="0"/>
        <pt x="610" y="1730" on="1"/>
        <pt x="586" y="1730" on="0"/>
        <pt x="538" y="1717" on="0"/>
        <pt x="492" y="1695" on="0"/>
        <pt x="451" y="1668" on="0"/>
        <pt x="435" y="1653" on="1"/>
      </contour>
      <contour>
        <pt x="4" y="116" on="1"/>
        <pt x="141" y="152" on="1"/>
        <pt x="646" y="1553" on="1"/>
        <pt x="908" y="1553" on="1"/>
        <pt x="1395" y="152" on="1"/>
        <pt x="1550" y="115" on="1"/>
        <pt x="1550" y="0" on="1"/>
        <pt x="934" y="0" on="1"/>
        <pt x="934" y="115" on="1"/>
        <pt x="1081" y="154" on="1"/>
        <pt x="1012" y="379" on="1"/>
        <pt x="442" y="379" on="1"/>
        <pt x="371" y="156" on="1"/>
        <pt x="528" y="116" on="1"/>
        <pt x="528" y="0" on="1"/>
        <pt x="4" y="0" on="1"/>
      </contour>
      <contour>
        <pt x="963" y="535" on="1"/>
        <pt x="817" y="1006" on="1"/>
        <pt x="734" y="1292" on="1"/>
        <pt x="492" y="535" on="1"/>
      </contour>
    </TTGlyph>
    <TTGlyph name="B" xMin="91" yMin="-12" xMax="1374" yMax="1567">
      <contour>
        <pt x="91" y="116" on="1"/>
        <pt x="252" y="154" on="1"/>
        <pt x="252" y="1397" on="1"/>
        <pt x="95" y="1418" on="1"/>
        <pt x="95" y="1553" on="1"/>
        <pt x="382" y="1553" on="1"/>
        <pt x="395" y="1555" on="0"/>
        <pt x="463" y="1559" on="0"/>
        <pt x="559" y="1563" on="0"/>
        <pt x="676" y="1566" on="0"/>
        <pt x="739" y="1567" on="1"/>
        <pt x="869" y="1569" on="0"/>
        <pt x="1068" y="1520" on="0"/>
        <pt x="1202" y="1425" on="0"/>
        <pt x="1270" y="1290" on="0"/>
        <pt x="1270" y="1206" on="1"/>
        <pt x="1270" y="1141" on="0"/>
        <pt x="1237" y="1023" on="0"/>
        <pt x="1169" y="925" on="0"/>
        <pt x="1065" y="854" on="0"/>
        <pt x="995" y="837" on="1"/>
        <pt x="1072" y="836" on="0"/>
        <pt x="1210" y="779" on="0"/>
        <pt x="1313" y="678" on="0"/>
        <pt x="1374" y="541" on="0"/>
        <pt x="1374" y="461" on="1"/>
        <pt x="1374" y="351" on="0"/>
        <pt x="1297" y="176" on="0"/>
        <pt x="1132" y="54" on="0"/>
        <pt x="873" y="-12" on="0"/>
        <pt x="691" y="-12" on="1"/>
        <pt x="647" y="-12" on="0"/>
        <pt x="560" y="-9" on="0"/>
        <pt x="472" y="-5" on="0"/>
        <pt x="380" y="-1" on="0"/>
        <pt x="330" y="0" on="1"/>
        <pt x="91" y="0" on="1"/>
      </contour>
      <contour>
        <pt x="537" y="881" on="1"/>
        <pt x="568" y="873" on="0"/>
        <pt x="663" y="873" on="0"/>
        <pt x="716" y="873" on="1"/>
        <pt x="800" y="873" on="0"/>
        <pt x="909" y="926" on="0"/>
        <pt x="972" y="1011" on="0"/>
        <pt x="997" y="1119" on="0"/>
        <pt x="997" y="1175" on="1"/>
        <pt x="997" y="1233" on="0"/>
        <pt x="961" y="1328" on="0"/>
        <pt x="886" y="1396" on="0"/>
        <pt x="772" y="1434" on="0"/>
        <pt x="694" y="1434" on="1"/>
        <pt x="680" y="1434" on="0"/>
        <pt x="637" y="1433" on="0"/>
        <pt x="592" y="1430" on="0"/>
        <pt x="551" y="1424" on="0"/>
        <pt x="539" y="1419" on="1"/>
      </contour>
      <contour>
        <pt x="536" y="151" on="1"/>
        <pt x="549" y="144" on="0"/>
        <pt x="598" y="132" on="0"/>
        <pt x="660" y="124" on="0"/>
        <pt x="729" y="119" on="0"/>
        <pt x="762" y="119" on="1"/>
        <pt x="840" y="119" on="0"/>
        <pt x="956" y="169" on="0"/>
        <pt x="1034" y="254" on="0"/>
        <pt x="1073" y="369" on="0"/>
        <pt x="1073" y="435" on="1"/>
        <pt x="1073" y="502" on="0"/>
        <pt x="1039" y="613" on="0"/>
        <pt x="965" y="692" on="0"/>
        <pt x="847" y="735" on="0"/>
        <pt x="762" y="735" on="1"/>
        <pt x="706" y="735" on="0"/>
        <pt x="587" y="734" on="0"/>
        <pt x="536" y="726" on="1"/>
      </contour>
    </TTGlyph>
    <TTGlyph name="C" xMin="76" yMin="-28" xMax="1346" yMax="1567">
      <contour>
        <pt x="76" y="724" on="1"/>
        <pt x="76" y="853" on="0"/>
        <pt x="140" y="1079" on="0"/>
        <pt x="255" y="1266" on="0"/>
        <pt x="413" y="1413" on="0"/>
        <pt x="602" y="1514" on="0"/>
        <pt x="813" y="1567" on="0"/>
        <pt x="924" y="1567" on="1"/>
        <pt x="999" y="1567" on="0"/>
        <pt x="1124" y="1551" on="0"/>
        <pt x="1227" y="1530" on="0"/>
        <pt x="1311" y="1507" on="0"/>
        <pt x="1345" y="1500" on="1"/>
        <pt x="1326" y="1154" on="1"/>
        <pt x="1162" y="1154" on="1"/>
        <pt x="1098" y="1342" on="1"/>
        <pt x="1078" y="1360" on="0"/>
        <pt x="1034" y="1386" on="0"/>
        <pt x="975" y="1403" on="0"/>
        <pt x="897" y="1412" on="0"/>
        <pt x="843" y="1412" on="1"/>
        <pt x="750" y="1412" on="0"/>
        <pt x="584" y="1331" on="0"/>
        <pt x="460" y="1176" on="0"/>
        <pt x="388" y="949" on="0"/>
        <pt x="388" y="803" on="1"/>
        <pt x="388" y="713" on="0"/>
        <pt x="415" y="541" on="0"/>
        <pt x="469" y="388" on="0"/>
        <pt x="549" y="259" on="0"/>
        <pt x="655" y="166" on="0"/>
        <pt x="785" y="114" on="0"/>
        <pt x="863" y="114" on="1"/>
        <pt x="925" y="114" on="0"/>
        <pt x="1016" y="129" on="0"/>
        <pt x="1082" y="155" on="0"/>
        <pt x="1125" y="191" on="0"/>
        <pt x="1139" y="212" on="1"/>
        <pt x="1210" y="392" on="1"/>
        <pt x="1346" y="392" on="1"/>
        <pt x="1346" y="65" on="1"/>
        <pt x="1309" y="63" on="0"/>
        <pt x="1222" y="34" on="0"/>
        <pt x="1102" y="0" on="0"/>
        <pt x="940" y="-28" on="0"/>
        <pt x="829" y="-28" on="1"/>
        <pt x="653" y="-28" on="0"/>
        <pt x="374" y="86" on="0"/>
        <pt x="179" y="287" on="0"/>
        <pt x="76" y="563" on="0"/>
      </contour>
    </TTGlyph>
    <TTGlyph name="Ccedilla" xMin="73" yMin="-529" xMax="1343" yMax="1567">
      <contour>
        <pt x="73" y="724" on="1"/>
        <pt x="73" y="853" on="0"/>
        <pt x="138" y="1079" on="0"/>
        <pt x="252" y="1266" on="0"/>
        <pt x="411" y="1413" on="0"/>
        <pt x="599" y="1514" on="0"/>
        <pt x="810" y="1567" on="0"/>
        <pt x="921" y="1567" on="1"/>
        <pt x="996" y="1567" on="0"/>
        <pt x="1121" y="1551" on="0"/>
        <pt x="1224" y="1530" on="0"/>
        <pt x="1308" y="1507" on="0"/>
        <pt x="1342" y="1500" on="1"/>
        <pt x="1324" y="1154" on="1"/>
        <pt x="1159" y="1154" on="1"/>
        <pt x="1095" y="1342" on="1"/>
        <pt x="1076" y="1360" on="0"/>
        <pt x="1032" y="1386" on="0"/>
        <pt x="972" y="1403" on="0"/>
        <pt x="894" y="1412" on="0"/>
        <pt x="840" y="1412" on="1"/>
        <pt x="747" y="1412" on="0"/>
        <pt x="581" y="1331" on="0"/>
        <pt x="457" y="1176" on="0"/>
        <pt x="385" y="949" on="0"/>
        <pt x="385" y="803" on="1"/>
        <pt x="385" y="713" on="0"/>
        <pt x="412" y="541" on="0"/>
        <pt x="466" y="388" on="0"/>
        <pt x="546" y="259" on="0"/>
        <pt x="652" y="166" on="0"/>
        <pt x="783" y="114" on="0"/>
        <pt x="861" y="114" on="1"/>
        <pt x="922" y="114" on="0"/>
        <pt x="1014" y="129" on="0"/>
        <pt x="1079" y="155" on="0"/>
        <pt x="1122" y="191" on="0"/>
        <pt x="1136" y="212" on="1"/>
        <pt x="1207" y="392" on="1"/>
        <pt x="1343" y="392" on="1"/>
        <pt x="1343" y="65" on="1"/>
        <pt x="1310" y="63" on="0"/>
        <pt x="1233" y="39" on="0"/>
        <pt x="1133" y="9" on="0"/>
        <pt x="1000" y="-20" on="0"/>
        <pt x="912" y="-25" on="1"/>
        <pt x="910" y="-50" on="0"/>
        <pt x="912" y="-105" on="0"/>
        <pt x="914" y="-128" on="1"/>
        <pt x="980" y="-132" on="0"/>
        <pt x="1069" y="-172" on="0"/>
        <pt x="1123" y="-229" on="0"/>
        <pt x="1146" y="-293" on="0"/>
        <pt x="1146" y="-320" on="1"/>
        <pt x="1146" y="-370" on="0"/>
        <pt x="1108" y="-445" on="0"/>
        <pt x="1040" y="-498" on="0"/>
        <pt x="946" y="-526" on="0"/>
        <pt x="889" y="-529" on="1"/>
        <pt x="844" y="-531" on="0"/>
        <pt x="771" y="-527" on="0"/>
        <pt x="713" y="-518" on="0"/>
        <pt x="670" y="-507" on="0"/>
        <pt x="654" y="-503" on="1"/>
        <pt x="654" y="-375" on="1"/>
        <pt x="666" y="-378" on="0"/>
        <pt x="701" y="-383" on="0"/>
        <pt x="736" y="-387" on="0"/>
        <pt x="766" y="-389" on="0"/>
        <pt x="774" y="-389" on="1"/>
        <pt x="817" y="-389" on="0"/>
        <pt x="874" y="-357" on="0"/>
        <pt x="874" y="-310" on="1"/>
        <pt x="874" y="-274" on="0"/>
        <pt x="820" y="-234" on="0"/>
        <pt x="771" y="-234" on="1"/>
        <pt x="765" y="-234" on="0"/>
        <pt x="748" y="-235" on="0"/>
        <pt x="731" y="-236" on="0"/>
        <pt x="718" y="-238" on="0"/>
        <pt x="717" y="-238" on="1"/>
        <pt x="717" y="-217" on="0"/>
        <pt x="723" y="-163" on="0"/>
        <pt x="733" y="-105" on="0"/>
        <pt x="746" y="-48" on="0"/>
        <pt x="753" y="-25" on="1"/>
        <pt x="594" y="-13" on="0"/>
        <pt x="341" y="109" on="0"/>
        <pt x="166" y="307" on="0"/>
        <pt x="73" y="571" on="0"/>
      </contour>
    </TTGlyph>
    <TTGlyph name="D" xMin="97" yMin="-10" xMax="1530" yMax="1567">
      <contour>
        <pt x="97" y="116" on="1"/>
        <pt x="252" y="152" on="1"/>
        <pt x="252" y="1398" on="1"/>
        <pt x="101" y="1418" on="1"/>
        <pt x="101" y="1553" on="1"/>
        <pt x="401" y="1553" on="1"/>
        <pt x="448" y="1553" on="0"/>
        <pt x="537" y="1557" on="0"/>
        <pt x="625" y="1563" on="0"/>
        <pt x="715" y="1567" on="0"/>
        <pt x="763" y="1567" on="1"/>
        <pt x="964" y="1567" on="0"/>
        <pt x="1253" y="1460" on="0"/>
        <pt x="1441" y="1264" on="0"/>
        <pt x="1530" y="988" on="0"/>
        <pt x="1530" y="820" on="1"/>
        <pt x="1530" y="623" on="0"/>
        <pt x="1410" y="314" on="0"/>
        <pt x="1197" y="100" on="0"/>
        <pt x="905" y="-12" on="0"/>
        <pt x="732" y="-10" on="1"/>
        <pt x="695" y="-10" on="0"/>
        <pt x="612" y="-6" on="0"/>
        <pt x="527" y="-2" on="0"/>
        <pt x="443" y="1" on="0"/>
        <pt x="405" y="1" on="1"/>
        <pt x="328" y="1" on="0"/>
        <pt x="174" y="0" on="0"/>
        <pt x="97" y="0" on="1"/>
      </contour>
      <contour>
        <pt x="540" y="159" on="1"/>
        <pt x="635" y="117" on="0"/>
        <pt x="794" y="128" on="1"/>
        <pt x="884" y="133" on="0"/>
        <pt x="1042" y="221" on="0"/>
        <pt x="1161" y="382" on="0"/>
        <pt x="1229" y="611" on="0"/>
        <pt x="1229" y="757" on="1"/>
        <pt x="1229" y="927" on="0"/>
        <pt x="1162" y="1179" on="0"/>
        <pt x="1033" y="1346" on="0"/>
        <pt x="844" y="1428" on="0"/>
        <pt x="723" y="1428" on="1"/>
        <pt x="662" y="1427" on="0"/>
        <pt x="572" y="1414" on="0"/>
        <pt x="540" y="1403" on="1"/>
      </contour>
    </TTGlyph>
    <TTGlyph name="Delta" xMin="183" yMin="1" xMax="1690" yMax="1537">
      <contour>
        <pt x="905" y="1537" on="1"/>
        <pt x="937" y="1537" on="1"/>
        <pt x="1690" y="27" on="1"/>
        <pt x="1674" y="1" on="1"/>
        <pt x="197" y="1" on="1"/>
        <pt x="183" y="22" on="1"/>
      </contour>
      <contour>
        <pt x="1364" y="151" on="1"/>
        <pt x="884" y="1115" on="1"/>
        <pt x="430" y="151" on="1"/>
      </contour>
    </TTGlyph>
    <TTGlyph name="E" xMin="101" yMin="0" xMax="1325" yMax="1553">
      <contour>
        <pt x="101" y="116" on="1"/>
        <pt x="258" y="152" on="1"/>
        <pt x="258" y="1397" on="1"/>
        <pt x="106" y="1418" on="1"/>
        <pt x="106" y="1553" on="1"/>
        <pt x="1199" y="1553" on="1"/>
        <pt x="1229" y="1235" on="1"/>
        <pt x="1065" y="1235" on="1"/>
        <pt x="992" y="1399" on="1"/>
        <pt x="543" y="1416" on="1"/>
        <pt x="543" y="870" on="1"/>
        <pt x="849" y="878" on="1"/>
        <pt x="893" y="1031" on="1"/>
        <pt x="1040" y="1031" on="1"/>
        <pt x="1040" y="568" on="1"/>
        <pt x="893" y="568" on="1"/>
        <pt x="849" y="724" on="1"/>
        <pt x="543" y="730" on="1"/>
        <pt x="543" y="137" on="1"/>
        <pt x="1049" y="162" on="1"/>
        <pt x="1165" y="363" on="1"/>
        <pt x="1325" y="332" on="1"/>
        <pt x="1274" y="0" on="1"/>
        <pt x="101" y="0" on="1"/>
      </contour>
    </TTGlyph>
    <TTGlyph name="Eacute" xMin="101" yMin="0" xMax="1325" yMax="1920">
      <contour>
        <pt x="622" y="1683" on="1"/>
        <pt x="977" y="1920" on="1"/>
        <pt x="1150" y="1747" on="1"/>
        <pt x="1120" y="1726" on="0"/>
        <pt x="1042" y="1689" on="0"/>
        <pt x="956" y="1658" on="0"/>
        <pt x="867" y="1632" on="0"/>
        <pt x="787" y="1613" on="0"/>
        <pt x="722" y="1601" on="0"/>
        <pt x="702" y="1599" on="1"/>
      </contour>
      <contour>
        <pt x="101" y="116" on="1"/>
        <pt x="258" y="152" on="1"/>
        <pt x="258" y="1397" on="1"/>
        <pt x="106" y="1418" on="1"/>
        <pt x="106" y="1553" on="1"/>
        <pt x="1199" y="1553" on="1"/>
        <pt x="1229" y="1235" on="1"/>
        <pt x="1065" y="1235" on="1"/>
        <pt x="992" y="1399" on="1"/>
        <pt x="543" y="1416" on="1"/>
        <pt x="543" y="870" on="1"/>
        <pt x="849" y="878" on="1"/>
        <pt x="893" y="1031" on="1"/>
        <pt x="1040" y="1031" on="1"/>
        <pt x="1040" y="568" on="1"/>
        <pt x="893" y="568" on="1"/>
        <pt x="849" y="724" on="1"/>
        <pt x="543" y="730" on="1"/>
        <pt x="543" y="137" on="1"/>
        <pt x="1049" y="162" on="1"/>
        <pt x="1165" y="363" on="1"/>
        <pt x="1325" y="332" on="1"/>
        <pt x="1274" y="0" on="1"/>
        <pt x="101" y="0" on="1"/>
      </contour>
    </TTGlyph>
    <TTGlyph name="Ecircumflex" xMin="101" yMin="0" xMax="1325" yMax="1920">
      <contour>
        <pt x="364" y="1667" on="1"/>
        <pt x="629" y="1920" on="1"/>
        <pt x="843" y="1920" on="1"/>
        <pt x="1107" y="1668" on="1"/>
        <pt x="1006" y="1605" on="1"/>
        <pt x="737" y="1751" on="1"/>
        <pt x="460" y="1605" on="1"/>
      </contour>
      <contour>
        <pt x="101" y="116" on="1"/>
        <pt x="258" y="152" on="1"/>
        <pt x="258" y="1397" on="1"/>
        <pt x="106" y="1418" on="1"/>
        <pt x="106" y="1553" on="1"/>
        <pt x="1199" y="1553" on="1"/>
        <pt x="1229" y="1235" on="1"/>
        <pt x="1065" y="1235" on="1"/>
        <pt x="992" y="1399" on="1"/>
        <pt x="543" y="1416" on="1"/>
        <pt x="543" y="870" on="1"/>
        <pt x="849" y="878" on="1"/>
        <pt x="893" y="1031" on="1"/>
        <pt x="1040" y="1031" on="1"/>
        <pt x="1040" y="568" on="1"/>
        <pt x="893" y="568" on="1"/>
        <pt x="849" y="724" on="1"/>
        <pt x="543" y="730" on="1"/>
        <pt x="543" y="137" on="1"/>
        <pt x="1049" y="162" on="1"/>
        <pt x="1165" y="363" on="1"/>
        <pt x="1325" y="332" on="1"/>
        <pt x="1274" y="0" on="1"/>
        <pt x="101" y="0" on="1"/>
      </contour>
    </TTGlyph>
    <TTGlyph name="Edieresis" xMin="101" yMin="0" xMax="1325" yMax="1920">
      <contour>
        <pt x="978" y="1633" on="1"/>
        <pt x="948" y="1633" on="0"/>
        <pt x="891" y="1651" on="0"/>
        <pt x="847" y="1685" on="0"/>
        <pt x="821" y="1734" on="0"/>
        <pt x="821" y="1766" on="1"/>
        <pt x="821" y="1799" on="0"/>
        <pt x="853" y="1855" on="0"/>
        <pt x="904" y="1897" on="0"/>
        <pt x="969" y="1920" on="0"/>
        <pt x="1002" y="1920" on="1"/>
        <pt x="1044" y="1920" on="0"/>
        <pt x="1103" y="1900" on="0"/>
        <pt x="1141" y="1864" on="0"/>
        <pt x="1158" y="1816" on="0"/>
        <pt x="1158" y="1788" on="1"/>
        <pt x="1158" y="1752" on="0"/>
        <pt x="1128" y="1695" on="0"/>
        <pt x="1078" y="1655" on="0"/>
        <pt x="1013" y="1633" on="0"/>
      </contour>
      <contour>
        <pt x="465" y="1632" on="1"/>
        <pt x="434" y="1632" on="0"/>
        <pt x="378" y="1650" on="0"/>
        <pt x="335" y="1683" on="0"/>
        <pt x="310" y="1732" on="0"/>
        <pt x="310" y="1764" on="1"/>
        <pt x="310" y="1798" on="0"/>
        <pt x="342" y="1855" on="0"/>
        <pt x="393" y="1897" on="0"/>
        <pt x="458" y="1920" on="0"/>
        <pt x="491" y="1920" on="1"/>
        <pt x="533" y="1920" on="0"/>
        <pt x="593" y="1899" on="0"/>
        <pt x="632" y="1863" on="0"/>
        <pt x="650" y="1815" on="0"/>
        <pt x="650" y="1787" on="1"/>
        <pt x="650" y="1752" on="0"/>
        <pt x="619" y="1694" on="0"/>
        <pt x="567" y="1654" on="0"/>
        <pt x="501" y="1632" on="0"/>
      </contour>
      <contour>
        <pt x="101" y="116" on="1"/>
        <pt x="258" y="152" on="1"/>
        <pt x="258" y="1397" on="1"/>
        <pt x="106" y="1418" on="1"/>
        <pt x="106" y="1553" on="1"/>
        <pt x="1199" y="1553" on="1"/>
        <pt x="1229" y="1235" on="1"/>
        <pt x="1065" y="1235" on="1"/>
        <pt x="992" y="1399" on="1"/>
        <pt x="543" y="1416" on="1"/>
        <pt x="543" y="870" on="1"/>
        <pt x="849" y="878" on="1"/>
        <pt x="893" y="1031" on="1"/>
        <pt x="1040" y="1031" on="1"/>
        <pt x="1040" y="568" on="1"/>
        <pt x="893" y="568" on="1"/>
        <pt x="849" y="724" on="1"/>
        <pt x="543" y="730" on="1"/>
        <pt x="543" y="137" on="1"/>
        <pt x="1049" y="162" on="1"/>
        <pt x="1165" y="363" on="1"/>
        <pt x="1325" y="332" on="1"/>
        <pt x="1274" y="0" on="1"/>
        <pt x="101" y="0" on="1"/>
      </contour>
    </TTGlyph>
    <TTGlyph name="Egrave" xMin="101" yMin="0" xMax="1325" yMax="1920">
      <contour>
        <pt x="764" y="1599" on="1"/>
        <pt x="734" y="1602" on="0"/>
        <pt x="624" y="1626" on="0"/>
        <pt x="497" y="1664" on="0"/>
        <pt x="372" y="1716" on="0"/>
        <pt x="328" y="1747" on="1"/>
        <pt x="500" y="1920" on="1"/>
        <pt x="844" y="1683" on="1"/>
      </contour>
      <contour>
        <pt x="101" y="116" on="1"/>
        <pt x="258" y="152" on="1"/>
        <pt x="258" y="1397" on="1"/>
        <pt x="106" y="1418" on="1"/>
        <pt x="106" y="1553" on="1"/>
        <pt x="1199" y="1553" on="1"/>
        <pt x="1229" y="1235" on="1"/>
        <pt x="1065" y="1235" on="1"/>
        <pt x="992" y="1399" on="1"/>
        <pt x="543" y="1416" on="1"/>
        <pt x="543" y="870" on="1"/>
        <pt x="849" y="878" on="1"/>
        <pt x="893" y="1031" on="1"/>
        <pt x="1040" y="1031" on="1"/>
        <pt x="1040" y="568" on="1"/>
        <pt x="893" y="568" on="1"/>
        <pt x="849" y="724" on="1"/>
        <pt x="543" y="730" on="1"/>
        <pt x="543" y="137" on="1"/>
        <pt x="1049" y="162" on="1"/>
        <pt x="1165" y="363" on="1"/>
        <pt x="1325" y="332" on="1"/>
        <pt x="1274" y="0" on="1"/>
        <pt x="101" y="0" on="1"/>
      </contour>
    </TTGlyph>
    <TTGlyph name="Eogonek" xMin="101" yMin="-519" xMax="1325" yMax="1553">
      <contour>
        <pt x="101" y="116" on="1"/>
        <pt x="258" y="152" on="1"/>
        <pt x="258" y="1397" on="1"/>
        <pt x="106" y="1418" on="1"/>
        <pt x="106" y="1553" on="1"/>
        <pt x="1199" y="1553" on="1"/>
        <pt x="1229" y="1235" on="1"/>
        <pt x="1065" y="1235" on="1"/>
        <pt x="992" y="1399" on="1"/>
        <pt x="543" y="1416" on="1"/>
        <pt x="543" y="870" on="1"/>
        <pt x="849" y="878" on="1"/>
        <pt x="893" y="1031" on="1"/>
        <pt x="1040" y="1031" on="1"/>
        <pt x="1040" y="568" on="1"/>
        <pt x="893" y="568" on="1"/>
        <pt x="849" y="724" on="1"/>
        <pt x="543" y="730" on="1"/>
        <pt x="543" y="137" on="1"/>
        <pt x="1049" y="162" on="1"/>
        <pt x="1165" y="363" on="1"/>
        <pt x="1325" y="332" on="1"/>
        <pt x="1274" y="0" on="1"/>
        <pt x="1252" y="0" on="1"/>
        <pt x="1201" y="-18" on="0"/>
        <pt x="1102" y="-76" on="0"/>
        <pt x="1024" y="-141" on="0"/>
        <pt x="973" y="-206" on="0"/>
        <pt x="969" y="-232" on="1"/>
        <pt x="962" y="-267" on="0"/>
        <pt x="972" y="-309" on="0"/>
        <pt x="998" y="-332" on="0"/>
        <pt x="1037" y="-341" on="0"/>
        <pt x="1060" y="-342" on="1"/>
        <pt x="1090" y="-344" on="0"/>
        <pt x="1154" y="-331" on="0"/>
        <pt x="1214" y="-311" on="0"/>
        <pt x="1268" y="-288" on="0"/>
        <pt x="1289" y="-280" on="1"/>
        <pt x="1318" y="-394" on="1"/>
        <pt x="1282" y="-421" on="0"/>
        <pt x="1196" y="-468" on="0"/>
        <pt x="1096" y="-502" on="0"/>
        <pt x="979" y="-521" on="0"/>
        <pt x="911" y="-519" on="1"/>
        <pt x="854" y="-518" on="0"/>
        <pt x="776" y="-486" on="0"/>
        <pt x="728" y="-437" on="0"/>
        <pt x="705" y="-375" on="0"/>
        <pt x="704" y="-345" on="1"/>
        <pt x="703" y="-305" on="0"/>
        <pt x="753" y="-209" on="0"/>
        <pt x="843" y="-114" on="0"/>
        <pt x="968" y="-29" on="0"/>
        <pt x="1042" y="0" on="1"/>
        <pt x="101" y="0" on="1"/>
      </contour>
    </TTGlyph>
    <TTGlyph name="Eth" xMin="71" yMin="-10" xMax="1530" yMax="1567">
      <contour>
        <pt x="97" y="116" on="1"/>
        <pt x="252" y="152" on="1"/>
        <pt x="252" y="713" on="1"/>
        <pt x="71" y="713" on="1"/>
        <pt x="71" y="894" on="1"/>
        <pt x="252" y="894" on="1"/>
        <pt x="252" y="1398" on="1"/>
        <pt x="101" y="1418" on="1"/>
        <pt x="101" y="1553" on="1"/>
        <pt x="401" y="1553" on="1"/>
        <pt x="448" y="1553" on="0"/>
        <pt x="537" y="1557" on="0"/>
        <pt x="625" y="1563" on="0"/>
        <pt x="715" y="1567" on="0"/>
        <pt x="763" y="1567" on="1"/>
        <pt x="964" y="1567" on="0"/>
        <pt x="1253" y="1460" on="0"/>
        <pt x="1441" y="1264" on="0"/>
        <pt x="1530" y="988" on="0"/>
        <pt x="1530" y="820" on="1"/>
        <pt x="1530" y="623" on="0"/>
        <pt x="1410" y="314" on="0"/>
        <pt x="1197" y="100" on="0"/>
        <pt x="905" y="-12" on="0"/>
        <pt x="732" y="-10" on="1"/>
        <pt x="695" y="-10" on="0"/>
        <pt x="612" y="-6" on="0"/>
        <pt x="527" y="-2" on="0"/>
        <pt x="443" y="1" on="0"/>
        <pt x="405" y="1" on="1"/>
        <pt x="328" y="1" on="0"/>
        <pt x="174" y="0" on="0"/>
        <pt x="97" y="0" on="1"/>
      </contour>
      <contour>
        <pt x="540" y="159" on="1"/>
        <pt x="635" y="117" on="0"/>
        <pt x="794" y="128" on="1"/>
        <pt x="884" y="133" on="0"/>
        <pt x="1042" y="221" on="0"/>
        <pt x="1161" y="382" on="0"/>
        <pt x="1229" y="611" on="0"/>
        <pt x="1229" y="757" on="1"/>
        <pt x="1229" y="927" on="0"/>
        <pt x="1162" y="1179" on="0"/>
        <pt x="1033" y="1346" on="0"/>
        <pt x="844" y="1428" on="0"/>
        <pt x="723" y="1428" on="1"/>
        <pt x="662" y="1427" on="0"/>
        <pt x="572" y="1414" on="0"/>
        <pt x="540" y="1403" on="1"/>
        <pt x="540" y="894" on="1"/>
        <pt x="806" y="894" on="1"/>
        <pt x="806" y="713" on="1"/>
        <pt x="540" y="713" on="1"/>
      </contour>
    </TTGlyph>
    <TTGlyph name="Euro" xMin="32" yMin="-28" xMax="1404" yMax="1567">
      <contour>
        <pt x="32" y="692" on="1"/>
        <pt x="218" y="692" on="1"/>
        <pt x="218" y="718" on="1"/>
        <pt x="218" y="806" on="0"/>
        <pt x="230" y="890" on="1"/>
        <pt x="62" y="890" on="1"/>
        <pt x="62" y="1042" on="1"/>
        <pt x="263" y="1042" on="1"/>
        <pt x="296" y="1154" on="0"/>
        <pt x="415" y="1346" on="0"/>
        <pt x="588" y="1487" on="0"/>
        <pt x="818" y="1567" on="0"/>
        <pt x="964" y="1567" on="1"/>
        <pt x="1042" y="1567" on="0"/>
        <pt x="1170" y="1543" on="0"/>
        <pt x="1277" y="1514" on="0"/>
        <pt x="1366" y="1493" on="0"/>
        <pt x="1404" y="1496" on="1"/>
        <pt x="1387" y="1156" on="1"/>
        <pt x="1260" y="1156" on="1"/>
        <pt x="1197" y="1336" on="1"/>
        <pt x="1142" y="1376" on="0"/>
        <pt x="998" y="1414" on="0"/>
        <pt x="906" y="1414" on="1"/>
        <pt x="824" y="1414" on="0"/>
        <pt x="702" y="1364" on="0"/>
        <pt x="617" y="1268" on="0"/>
        <pt x="563" y="1130" on="0"/>
        <pt x="550" y="1042" on="1"/>
        <pt x="1047" y="1042" on="1"/>
        <pt x="1047" y="890" on="1"/>
        <pt x="535" y="890" on="1"/>
        <pt x="533" y="862" on="0"/>
        <pt x="533" y="805" on="0"/>
        <pt x="533" y="775" on="1"/>
        <pt x="533" y="754" on="0"/>
        <pt x="533" y="712" on="0"/>
        <pt x="534" y="692" on="1"/>
        <pt x="1024" y="692" on="1"/>
        <pt x="1024" y="542" on="1"/>
        <pt x="546" y="542" on="1"/>
        <pt x="558" y="448" on="0"/>
        <pt x="611" y="291" on="0"/>
        <pt x="703" y="179" on="0"/>
        <pt x="841" y="116" on="0"/>
        <pt x="939" y="116" on="1"/>
        <pt x="980" y="116" on="0"/>
        <pt x="1046" y="123" on="0"/>
        <pt x="1100" y="139" on="0"/>
        <pt x="1146" y="162" on="0"/>
        <pt x="1168" y="178" on="1"/>
        <pt x="1189" y="198" on="0"/>
        <pt x="1216" y="249" on="0"/>
        <pt x="1236" y="306" on="0"/>
        <pt x="1251" y="365" on="0"/>
        <pt x="1260" y="393" on="1"/>
        <pt x="1296" y="393" on="0"/>
        <pt x="1368" y="392" on="0"/>
        <pt x="1404" y="392" on="1"/>
        <pt x="1404" y="63" on="1"/>
        <pt x="1373" y="66" on="0"/>
        <pt x="1316" y="55" on="0"/>
        <pt x="1253" y="35" on="0"/>
        <pt x="1179" y="10" on="0"/>
        <pt x="1086" y="-13" on="0"/>
        <pt x="967" y="-28" on="0"/>
        <pt x="891" y="-28" on="1"/>
        <pt x="753" y="-28" on="0"/>
        <pt x="529" y="53" on="0"/>
        <pt x="362" y="202" on="0"/>
        <pt x="254" y="413" on="0"/>
        <pt x="232" y="542" on="1"/>
        <pt x="32" y="542" on="1"/>
      </contour>
    </TTGlyph>
    <TTGlyph name="F" xMin="93" yMin="0" xMax="1234" yMax="1553">
      <contour>
        <pt x="93" y="116" on="1"/>
        <pt x="252" y="148" on="1"/>
        <pt x="252" y="1398" on="1"/>
        <pt x="93" y="1418" on="1"/>
        <pt x="93" y="1553" on="1"/>
        <pt x="1208" y="1553" on="1"/>
        <pt x="1234" y="1232" on="1"/>
        <pt x="1091" y="1230" on="1"/>
        <pt x="1030" y="1388" on="1"/>
        <pt x="538" y="1407" on="1"/>
        <pt x="538" y="852" on="1"/>
        <pt x="892" y="862" on="1"/>
        <pt x="946" y="1012" on="1"/>
        <pt x="1074" y="1012" on="1"/>
        <pt x="1074" y="540" on="1"/>
        <pt x="931" y="540" on="1"/>
        <pt x="895" y="699" on="1"/>
        <pt x="538" y="705" on="1"/>
        <pt x="538" y="156" on="1"/>
        <pt x="845" y="131" on="1"/>
        <pt x="845" y="0" on="1"/>
        <pt x="93" y="0" on="1"/>
      </contour>
    </TTGlyph>
    <TTGlyph name="G" xMin="74" yMin="-28" xMax="1495" yMax="1567">
      <contour>
        <pt x="74" y="738" on="1"/>
        <pt x="74" y="931" on="0"/>
        <pt x="200" y="1239" on="0"/>
        <pt x="420" y="1453" on="0"/>
        <pt x="718" y="1567" on="0"/>
        <pt x="891" y="1567" on="1"/>
        <pt x="988" y="1567" on="0"/>
        <pt x="1149" y="1553" on="0"/>
        <pt x="1272" y="1534" on="0"/>
        <pt x="1357" y="1514" on="0"/>
        <pt x="1378" y="1508" on="1"/>
        <pt x="1359" y="1189" on="1"/>
        <pt x="1211" y="1189" on="1"/>
        <pt x="1136" y="1362" on="1"/>
        <pt x="1130" y="1370" on="0"/>
        <pt x="1089" y="1393" on="0"/>
        <pt x="1018" y="1414" on="0"/>
        <pt x="917" y="1428" on="0"/>
        <pt x="852" y="1428" on="1"/>
        <pt x="748" y="1427" on="0"/>
        <pt x="575" y="1337" on="0"/>
        <pt x="451" y="1175" on="0"/>
        <pt x="381" y="948" on="0"/>
        <pt x="381" y="810" on="1"/>
        <pt x="381" y="720" on="0"/>
        <pt x="404" y="545" on="0"/>
        <pt x="451" y="389" on="0"/>
        <pt x="524" y="257" on="0"/>
        <pt x="625" y="162" on="0"/>
        <pt x="756" y="108" on="0"/>
        <pt x="837" y="108" on="1"/>
        <pt x="882" y="108" on="0"/>
        <pt x="973" y="124" on="0"/>
        <pt x="1051" y="154" on="0"/>
        <pt x="1111" y="198" on="0"/>
        <pt x="1126" y="225" on="1"/>
        <pt x="1126" y="548" on="1"/>
        <pt x="901" y="571" on="1"/>
        <pt x="901" y="708" on="1"/>
        <pt x="1495" y="708" on="1"/>
        <pt x="1495" y="571" on="1"/>
        <pt x="1388" y="549" on="1"/>
        <pt x="1388" y="66" on="1"/>
        <pt x="1337" y="69" on="0"/>
        <pt x="1202" y="41" on="0"/>
        <pt x="1045" y="4" on="0"/>
        <pt x="870" y="-28" on="0"/>
        <pt x="780" y="-28" on="1"/>
        <pt x="620" y="-28" on="0"/>
        <pt x="359" y="89" on="0"/>
        <pt x="175" y="295" on="0"/>
        <pt x="74" y="575" on="0"/>
      </contour>
    </TTGlyph>
    <TTGlyph name="H" xMin="81" yMin="0" xMax="1675" yMax="1553">
      <contour>
        <pt x="83" y="116" on="1"/>
        <pt x="252" y="154" on="1"/>
        <pt x="252" y="1397" on="1"/>
        <pt x="81" y="1418" on="1"/>
        <pt x="81" y="1553" on="1"/>
        <pt x="708" y="1553" on="1"/>
        <pt x="708" y="1418" on="1"/>
        <pt x="540" y="1398" on="1"/>
        <pt x="540" y="853" on="1"/>
        <pt x="1209" y="853" on="1"/>
        <pt x="1209" y="1399" on="1"/>
        <pt x="1042" y="1418" on="1"/>
        <pt x="1042" y="1553" on="1"/>
        <pt x="1665" y="1553" on="1"/>
        <pt x="1665" y="1418" on="1"/>
        <pt x="1496" y="1398" on="1"/>
        <pt x="1496" y="153" on="1"/>
        <pt x="1675" y="115" on="1"/>
        <pt x="1675" y="0" on="1"/>
        <pt x="1031" y="0" on="1"/>
        <pt x="1031" y="115" on="1"/>
        <pt x="1209" y="152" on="1"/>
        <pt x="1209" y="693" on="1"/>
        <pt x="540" y="693" on="1"/>
        <pt x="540" y="153" on="1"/>
        <pt x="718" y="116" on="1"/>
        <pt x="718" y="0" on="1"/>
        <pt x="83" y="0" on="1"/>
      </contour>
    </TTGlyph>
    <TTGlyph name="I" xMin="77" yMin="0" xMax="736" yMax="1553">
      <contour>
        <pt x="77" y="116" on="1"/>
        <pt x="261" y="153" on="1"/>
        <pt x="261" y="1397" on="1"/>
        <pt x="78" y="1418" on="1"/>
        <pt x="78" y="1553" on="1"/>
        <pt x="726" y="1553" on="1"/>
        <pt x="726" y="1418" on="1"/>
        <pt x="550" y="1396" on="1"/>
        <pt x="550" y="154" on="1"/>
        <pt x="736" y="116" on="1"/>
        <pt x="736" y="0" on="1"/>
        <pt x="77" y="0" on="1"/>
      </contour>
    </TTGlyph>
    <TTGlyph name="IJ" xMin="77" yMin="-393" xMax="1506" yMax="1553">
      <contour>
        <pt x="710" y="-305" on="1"/>
        <pt x="762" y="-287" on="0"/>
        <pt x="856" y="-239" on="0"/>
        <pt x="935" y="-177" on="0"/>
        <pt x="997" y="-100" on="0"/>
        <pt x="1017" y="-52" on="1"/>
        <pt x="1033" y="-8" on="0"/>
        <pt x="1052" y="88" on="0"/>
        <pt x="1062" y="199" on="0"/>
        <pt x="1066" y="327" on="0"/>
        <pt x="1066" y="404" on="1"/>
        <pt x="1066" y="1398" on="1"/>
        <pt x="910" y="1418" on="1"/>
        <pt x="910" y="1553" on="1"/>
        <pt x="1506" y="1553" on="1"/>
        <pt x="1506" y="1418" on="1"/>
        <pt x="1355" y="1397" on="1"/>
        <pt x="1355" y="541" on="1"/>
        <pt x="1355" y="460" on="0"/>
        <pt x="1351" y="302" on="0"/>
        <pt x="1342" y="160" on="0"/>
        <pt x="1326" y="41" on="0"/>
        <pt x="1313" y="-2" on="1"/>
        <pt x="1282" y="-95" on="0"/>
        <pt x="1160" y="-236" on="0"/>
        <pt x="1009" y="-333" on="0"/>
        <pt x="845" y="-387" on="0"/>
        <pt x="773" y="-393" on="1"/>
      </contour>
      <contour>
        <pt x="77" y="116" on="1"/>
        <pt x="261" y="153" on="1"/>
        <pt x="261" y="1397" on="1"/>
        <pt x="78" y="1418" on="1"/>
        <pt x="78" y="1553" on="1"/>
        <pt x="726" y="1553" on="1"/>
        <pt x="726" y="1418" on="1"/>
        <pt x="550" y="1396" on="1"/>
        <pt x="550" y="154" on="1"/>
        <pt x="736" y="116" on="1"/>
        <pt x="736" y="0" on="1"/>
        <pt x="77" y="0" on="1"/>
      </contour>
    </TTGlyph>
    <TTGlyph name="Iacute" xMin="77" yMin="0" xMax="818" yMax="1920">
      <contour>
        <pt x="290" y="1683" on="1"/>
        <pt x="645" y="1920" on="1"/>
        <pt x="818" y="1747" on="1"/>
        <pt x="774" y="1716" on="0"/>
        <pt x="645" y="1664" on="0"/>
        <pt x="514" y="1626" on="0"/>
        <pt x="400" y="1602" on="0"/>
        <pt x="370" y="1599" on="1"/>
      </contour>
      <contour>
        <pt x="77" y="116" on="1"/>
        <pt x="261" y="153" on="1"/>
        <pt x="261" y="1397" on="1"/>
        <pt x="78" y="1418" on="1"/>
        <pt x="78" y="1553" on="1"/>
        <pt x="726" y="1553" on="1"/>
        <pt x="726" y="1418" on="1"/>
        <pt x="550" y="1396" on="1"/>
        <pt x="550" y="154" on="1"/>
        <pt x="736" y="116" on="1"/>
        <pt x="736" y="0" on="1"/>
        <pt x="77" y="0" on="1"/>
      </contour>
    </TTGlyph>
    <TTGlyph name="Icircumflex" xMin="32" yMin="0" xMax="775" yMax="1920">
      <contour>
        <pt x="32" y="1667" on="1"/>
        <pt x="297" y="1920" on="1"/>
        <pt x="511" y="1920" on="1"/>
        <pt x="775" y="1668" on="1"/>
        <pt x="674" y="1605" on="1"/>
        <pt x="405" y="1751" on="1"/>
        <pt x="129" y="1605" on="1"/>
      </contour>
      <contour>
        <pt x="77" y="116" on="1"/>
        <pt x="261" y="153" on="1"/>
        <pt x="261" y="1397" on="1"/>
        <pt x="78" y="1418" on="1"/>
        <pt x="78" y="1553" on="1"/>
        <pt x="726" y="1553" on="1"/>
        <pt x="726" y="1418" on="1"/>
        <pt x="550" y="1396" on="1"/>
        <pt x="550" y="154" on="1"/>
        <pt x="736" y="116" on="1"/>
        <pt x="736" y="0" on="1"/>
        <pt x="77" y="0" on="1"/>
      </contour>
    </TTGlyph>
    <TTGlyph name="Idieresis" xMin="-21" yMin="0" xMax="827" yMax="1920">
      <contour>
        <pt x="646" y="1633" on="1"/>
        <pt x="616" y="1633" on="0"/>
        <pt x="559" y="1651" on="0"/>
        <pt x="515" y="1685" on="0"/>
        <pt x="489" y="1734" on="0"/>
        <pt x="489" y="1766" on="1"/>
        <pt x="489" y="1799" on="0"/>
        <pt x="521" y="1855" on="0"/>
        <pt x="573" y="1897" on="0"/>
        <pt x="638" y="1920" on="0"/>
        <pt x="671" y="1920" on="1"/>
        <pt x="713" y="1920" on="0"/>
        <pt x="772" y="1900" on="0"/>
        <pt x="809" y="1864" on="0"/>
        <pt x="827" y="1816" on="0"/>
        <pt x="827" y="1788" on="1"/>
        <pt x="827" y="1752" on="0"/>
        <pt x="797" y="1695" on="0"/>
        <pt x="746" y="1655" on="0"/>
        <pt x="681" y="1633" on="0"/>
      </contour>
      <contour>
        <pt x="133" y="1632" on="1"/>
        <pt x="102" y="1632" on="0"/>
        <pt x="46" y="1650" on="0"/>
        <pt x="4" y="1683" on="0"/>
        <pt x="-21" y="1732" on="0"/>
        <pt x="-21" y="1764" on="1"/>
        <pt x="-21" y="1798" on="0"/>
        <pt x="10" y="1855" on="0"/>
        <pt x="61" y="1897" on="0"/>
        <pt x="126" y="1920" on="0"/>
        <pt x="159" y="1920" on="1"/>
        <pt x="201" y="1920" on="0"/>
        <pt x="261" y="1899" on="0"/>
        <pt x="300" y="1863" on="0"/>
        <pt x="319" y="1815" on="0"/>
        <pt x="319" y="1787" on="1"/>
        <pt x="319" y="1752" on="0"/>
        <pt x="288" y="1694" on="0"/>
        <pt x="236" y="1654" on="0"/>
        <pt x="169" y="1632" on="0"/>
      </contour>
      <contour>
        <pt x="77" y="116" on="1"/>
        <pt x="261" y="153" on="1"/>
        <pt x="261" y="1397" on="1"/>
        <pt x="78" y="1418" on="1"/>
        <pt x="78" y="1553" on="1"/>
        <pt x="726" y="1553" on="1"/>
        <pt x="726" y="1418" on="1"/>
        <pt x="550" y="1396" on="1"/>
        <pt x="550" y="154" on="1"/>
        <pt x="736" y="116" on="1"/>
        <pt x="736" y="0" on="1"/>
        <pt x="77" y="0" on="1"/>
      </contour>
    </TTGlyph>
    <TTGlyph name="Igrave" xMin="-4" yMin="0" xMax="736" yMax="1920">
      <contour>
        <pt x="432" y="1599" on="1"/>
        <pt x="402" y="1602" on="0"/>
        <pt x="292" y="1626" on="0"/>
        <pt x="165" y="1664" on="0"/>
        <pt x="40" y="1716" on="0"/>
        <pt x="-4" y="1747" on="1"/>
        <pt x="168" y="1920" on="1"/>
        <pt x="512" y="1683" on="1"/>
      </contour>
      <contour>
        <pt x="77" y="116" on="1"/>
        <pt x="261" y="153" on="1"/>
        <pt x="261" y="1397" on="1"/>
        <pt x="78" y="1418" on="1"/>
        <pt x="78" y="1553" on="1"/>
        <pt x="726" y="1553" on="1"/>
        <pt x="726" y="1418" on="1"/>
        <pt x="550" y="1396" on="1"/>
        <pt x="550" y="154" on="1"/>
        <pt x="736" y="116" on="1"/>
        <pt x="736" y="0" on="1"/>
        <pt x="77" y="0" on="1"/>
      </contour>
    </TTGlyph>
    <TTGlyph name="Itilde" xMin="-11" yMin="0" xMax="809" yMax="1920">
      <contour>
        <pt x="-11" y="1728" on="1"/>
        <pt x="6" y="1768" on="0"/>
        <pt x="75" y="1839" on="0"/>
        <pt x="159" y="1890" on="0"/>
        <pt x="247" y="1920" on="0"/>
        <pt x="283" y="1920" on="1"/>
        <pt x="318" y="1920" on="0"/>
        <pt x="374" y="1904" on="0"/>
        <pt x="421" y="1879" on="0"/>
        <pt x="461" y="1850" on="0"/>
        <pt x="500" y="1825" on="0"/>
        <pt x="539" y="1809" on="0"/>
        <pt x="562" y="1809" on="1"/>
        <pt x="618" y="1809" on="0"/>
        <pt x="704" y="1854" on="0"/>
        <pt x="736" y="1884" on="1"/>
        <pt x="809" y="1797" on="1"/>
        <pt x="791" y="1757" on="0"/>
        <pt x="724" y="1690" on="0"/>
        <pt x="642" y="1642" on="0"/>
        <pt x="556" y="1615" on="0"/>
        <pt x="519" y="1615" on="1"/>
        <pt x="467" y="1615" on="0"/>
        <pt x="391" y="1651" on="0"/>
        <pt x="328" y="1694" on="0"/>
        <pt x="270" y="1730" on="0"/>
        <pt x="236" y="1730" on="1"/>
        <pt x="212" y="1730" on="0"/>
        <pt x="164" y="1717" on="0"/>
        <pt x="118" y="1695" on="0"/>
        <pt x="77" y="1668" on="0"/>
        <pt x="61" y="1653" on="1"/>
      </contour>
      <contour>
        <pt x="77" y="116" on="1"/>
        <pt x="261" y="153" on="1"/>
        <pt x="261" y="1397" on="1"/>
        <pt x="78" y="1418" on="1"/>
        <pt x="78" y="1553" on="1"/>
        <pt x="726" y="1553" on="1"/>
        <pt x="726" y="1418" on="1"/>
        <pt x="550" y="1396" on="1"/>
        <pt x="550" y="154" on="1"/>
        <pt x="736" y="116" on="1"/>
        <pt x="736" y="0" on="1"/>
        <pt x="77" y="0" on="1"/>
      </contour>
    </TTGlyph>
    <TTGlyph name="J" xMin="-101" yMin="-393" xMax="695" yMax="1553">
      <contour>
        <pt x="206" y="-52" on="1"/>
        <pt x="221" y="-8" on="0"/>
        <pt x="241" y="88" on="0"/>
        <pt x="251" y="199" on="0"/>
        <pt x="255" y="327" on="0"/>
        <pt x="255" y="404" on="1"/>
        <pt x="255" y="1398" on="1"/>
        <pt x="99" y="1418" on="1"/>
        <pt x="99" y="1553" on="1"/>
        <pt x="695" y="1553" on="1"/>
        <pt x="695" y="1418" on="1"/>
        <pt x="544" y="1397" on="1"/>
        <pt x="544" y="541" on="1"/>
        <pt x="544" y="460" on="0"/>
        <pt x="540" y="302" on="0"/>
        <pt x="531" y="160" on="0"/>
        <pt x="514" y="41" on="0"/>
        <pt x="501" y="-2" on="1"/>
        <pt x="470" y="-95" on="0"/>
        <pt x="348" y="-236" on="0"/>
        <pt x="198" y="-333" on="0"/>
        <pt x="34" y="-387" on="0"/>
        <pt x="-39" y="-393" on="1"/>
        <pt x="-101" y="-305" on="1"/>
        <pt x="-49" y="-287" on="0"/>
        <pt x="45" y="-239" on="0"/>
        <pt x="124" y="-177" on="0"/>
        <pt x="186" y="-100" on="0"/>
      </contour>
    </TTGlyph>
    <TTGlyph name="Jcircumflex" xMin="-104" yMin="-393" xMax="768" yMax="1920">
      <contour>
        <pt x="25" y="1667" on="1"/>
        <pt x="290" y="1920" on="1"/>
        <pt x="504" y="1920" on="1"/>
        <pt x="768" y="1668" on="1"/>
        <pt x="667" y="1605" on="1"/>
        <pt x="398" y="1751" on="1"/>
        <pt x="121" y="1605" on="1"/>
      </contour>
      <contour>
        <pt x="203" y="-52" on="1"/>
        <pt x="219" y="-8" on="0"/>
        <pt x="238" y="88" on="0"/>
        <pt x="248" y="199" on="0"/>
        <pt x="252" y="327" on="0"/>
        <pt x="252" y="404" on="1"/>
        <pt x="252" y="1398" on="1"/>
        <pt x="96" y="1418" on="1"/>
        <pt x="96" y="1553" on="1"/>
        <pt x="692" y="1553" on="1"/>
        <pt x="692" y="1418" on="1"/>
        <pt x="541" y="1397" on="1"/>
        <pt x="541" y="541" on="1"/>
        <pt x="541" y="460" on="0"/>
        <pt x="537" y="302" on="0"/>
        <pt x="528" y="160" on="0"/>
        <pt x="512" y="41" on="0"/>
        <pt x="499" y="-2" on="1"/>
        <pt x="468" y="-95" on="0"/>
        <pt x="346" y="-236" on="0"/>
        <pt x="195" y="-333" on="0"/>
        <pt x="31" y="-387" on="0"/>
        <pt x="-41" y="-393" on="1"/>
        <pt x="-104" y="-305" on="1"/>
        <pt x="-52" y="-287" on="0"/>
        <pt x="42" y="-239" on="0"/>
        <pt x="121" y="-177" on="0"/>
        <pt x="183" y="-100" on="0"/>
      </contour>
    </TTGlyph>
    <TTGlyph name="K" xMin="72" yMin="0" xMax="1501" yMax="1553">
      <contour>
        <pt x="72" y="116" on="1"/>
        <pt x="252" y="153" on="1"/>
        <pt x="252" y="1396" on="1"/>
        <pt x="72" y="1418" on="1"/>
        <pt x="72" y="1553" on="1"/>
        <pt x="709" y="1553" on="1"/>
        <pt x="709" y="1418" on="1"/>
        <pt x="537" y="1395" on="1"/>
        <pt x="537" y="776" on="1"/>
        <pt x="1045" y="1397" on="1"/>
        <pt x="887" y="1418" on="1"/>
        <pt x="887" y="1452" on="0"/>
        <pt x="886" y="1519" on="0"/>
        <pt x="885" y="1553" on="1"/>
        <pt x="1452" y="1553" on="1"/>
        <pt x="1452" y="1418" on="1"/>
        <pt x="1276" y="1395" on="1"/>
        <pt x="827" y="891" on="1"/>
        <pt x="867" y="852" on="0"/>
        <pt x="965" y="718" on="0"/>
        <pt x="1067" y="560" on="0"/>
        <pt x="1169" y="395" on="0"/>
        <pt x="1260" y="257" on="0"/>
        <pt x="1334" y="162" on="0"/>
        <pt x="1358" y="153" on="1"/>
        <pt x="1501" y="116" on="1"/>
        <pt x="1501" y="0" on="1"/>
        <pt x="1127" y="0" on="1"/>
        <pt x="1102" y="0" on="0"/>
        <pt x="1037" y="88" on="0"/>
        <pt x="962" y="226" on="0"/>
        <pt x="879" y="394" on="0"/>
        <pt x="795" y="554" on="0"/>
        <pt x="712" y="686" on="0"/>
        <pt x="674" y="719" on="1"/>
        <pt x="537" y="565" on="1"/>
        <pt x="537" y="153" on="1"/>
        <pt x="731" y="116" on="1"/>
        <pt x="731" y="0" on="1"/>
        <pt x="72" y="0" on="1"/>
      </contour>
    </TTGlyph>
    <TTGlyph name="Kcommaaccent" xMin="72" yMin="-640" xMax="1501" yMax="1553">
      <contour>
        <pt x="72" y="116" on="1"/>
        <pt x="252" y="153" on="1"/>
        <pt x="252" y="1396" on="1"/>
        <pt x="72" y="1418" on="1"/>
        <pt x="72" y="1553" on="1"/>
        <pt x="709" y="1553" on="1"/>
        <pt x="709" y="1418" on="1"/>
        <pt x="537" y="1395" on="1"/>
        <pt x="537" y="776" on="1"/>
        <pt x="1045" y="1397" on="1"/>
        <pt x="887" y="1418" on="1"/>
        <pt x="887" y="1452" on="0"/>
        <pt x="886" y="1519" on="0"/>
        <pt x="885" y="1553" on="1"/>
        <pt x="1452" y="1553" on="1"/>
        <pt x="1452" y="1418" on="1"/>
        <pt x="1276" y="1395" on="1"/>
        <pt x="827" y="891" on="1"/>
        <pt x="867" y="852" on="0"/>
        <pt x="965" y="718" on="0"/>
        <pt x="1067" y="560" on="0"/>
        <pt x="1169" y="395" on="0"/>
        <pt x="1260" y="257" on="0"/>
        <pt x="1334" y="162" on="0"/>
        <pt x="1358" y="153" on="1"/>
        <pt x="1501" y="116" on="1"/>
        <pt x="1501" y="0" on="1"/>
        <pt x="1127" y="0" on="1"/>
        <pt x="1102" y="0" on="0"/>
        <pt x="1037" y="88" on="0"/>
        <pt x="962" y="226" on="0"/>
        <pt x="879" y="394" on="0"/>
        <pt x="795" y="554" on="0"/>
        <pt x="712" y="686" on="0"/>
        <pt x="674" y="719" on="1"/>
        <pt x="537" y="565" on="1"/>
        <pt x="537" y="153" on="1"/>
        <pt x="731" y="116" on="1"/>
        <pt x="731" y="0" on="1"/>
        <pt x="72" y="0" on="1"/>
      </contour>
      <contour>
        <pt x="771" y="-40" on="1"/>
        <pt x="823" y="-46" on="0"/>
        <pt x="911" y="-92" on="0"/>
        <pt x="974" y="-164" on="0"/>
        <pt x="1009" y="-257" on="0"/>
        <pt x="1009" y="-310" on="1"/>
        <pt x="1009" y="-376" on="0"/>
        <pt x="954" y="-489" on="0"/>
        <pt x="875" y="-575" on="0"/>
        <pt x="788" y="-631" on="0"/>
        <pt x="757" y="-640" on="1"/>
        <pt x="660" y="-589" on="1"/>
        <pt x="660" y="-566" on="1"/>
        <pt x="679" y="-553" on="0"/>
        <pt x="715" y="-516" on="0"/>
        <pt x="742" y="-468" on="0"/>
        <pt x="758" y="-412" on="0"/>
        <pt x="758" y="-380" on="1"/>
        <pt x="758" y="-353" on="0"/>
        <pt x="737" y="-304" on="0"/>
        <pt x="704" y="-267" on="0"/>
        <pt x="663" y="-245" on="0"/>
        <pt x="643" y="-245" on="1"/>
        <pt x="643" y="-178" on="1"/>
      </contour>
    </TTGlyph>
    <TTGlyph name="L" xMin="99" yMin="0" xMax="1247" yMax="1553">
      <contour>
        <pt x="99" y="116" on="1"/>
        <pt x="252" y="151" on="1"/>
        <pt x="252" y="1382" on="1"/>
        <pt x="103" y="1401" on="1"/>
        <pt x="103" y="1553" on="1"/>
        <pt x="721" y="1553" on="1"/>
        <pt x="721" y="1401" on="1"/>
        <pt x="541" y="1381" on="1"/>
        <pt x="540" y="139" on="1"/>
        <pt x="976" y="173" on="1"/>
        <pt x="1124" y="411" on="1"/>
        <pt x="1247" y="360" on="1"/>
        <pt x="1180" y="0" on="1"/>
        <pt x="99" y="0" on="1"/>
      </contour>
    </TTGlyph>
    <TTGlyph name="Ldotaccent" xMin="99" yMin="0" xMax="1399" yMax="1553">
      <contour>
        <pt x="99" y="116" on="1"/>
        <pt x="252" y="151" on="1"/>
        <pt x="252" y="1382" on="1"/>
        <pt x="103" y="1401" on="1"/>
        <pt x="103" y="1553" on="1"/>
        <pt x="721" y="1553" on="1"/>
        <pt x="721" y="1401" on="1"/>
        <pt x="541" y="1381" on="1"/>
        <pt x="540" y="139" on="1"/>
        <pt x="976" y="173" on="1"/>
        <pt x="1124" y="411" on="1"/>
        <pt x="1247" y="360" on="1"/>
        <pt x="1180" y="0" on="1"/>
        <pt x="99" y="0" on="1"/>
      </contour>
      <contour>
        <pt x="1027" y="830" on="1"/>
        <pt x="1027" y="871" on="0"/>
        <pt x="1063" y="942" on="0"/>
        <pt x="1121" y="993" on="0"/>
        <pt x="1192" y="1022" on="0"/>
        <pt x="1227" y="1022" on="1"/>
        <pt x="1271" y="1022" on="0"/>
        <pt x="1336" y="996" on="0"/>
        <pt x="1378" y="952" on="0"/>
        <pt x="1399" y="893" on="0"/>
        <pt x="1399" y="859" on="1"/>
        <pt x="1399" y="816" on="0"/>
        <pt x="1364" y="747" on="0"/>
        <pt x="1307" y="698" on="0"/>
        <pt x="1234" y="672" on="0"/>
        <pt x="1197" y="672" on="1"/>
        <pt x="1165" y="672" on="0"/>
        <pt x="1104" y="693" on="0"/>
        <pt x="1056" y="734" on="0"/>
        <pt x="1027" y="792" on="0"/>
      </contour>
    </TTGlyph>
    <TTGlyph name="Lslash" xMin="80" yMin="0" xMax="1247" yMax="1553">
      <contour>
        <pt x="99" y="116" on="1"/>
        <pt x="252" y="151" on="1"/>
        <pt x="252" y="550" on="1"/>
        <pt x="80" y="483" on="1"/>
        <pt x="81" y="538" on="0"/>
        <pt x="81" y="582" on="1"/>
        <pt x="81" y="683" on="1"/>
        <pt x="81" y="683" on="0"/>
        <pt x="105" y="694" on="0"/>
        <pt x="150" y="713" on="0"/>
        <pt x="214" y="740" on="0"/>
        <pt x="252" y="756" on="1"/>
        <pt x="252" y="1382" on="1"/>
        <pt x="103" y="1401" on="1"/>
        <pt x="103" y="1553" on="1"/>
        <pt x="721" y="1553" on="1"/>
        <pt x="721" y="1401" on="1"/>
        <pt x="541" y="1381" on="1"/>
        <pt x="540" y="876" on="1"/>
        <pt x="628" y="912" on="0"/>
        <pt x="797" y="982" on="0"/>
        <pt x="863" y="1010" on="1"/>
        <pt x="940" y="1043" on="0"/>
        <pt x="1010" y="1071" on="1"/>
        <pt x="1010" y="848" on="1"/>
        <pt x="540" y="663" on="1"/>
        <pt x="540" y="139" on="1"/>
        <pt x="976" y="173" on="1"/>
        <pt x="1124" y="411" on="1"/>
        <pt x="1247" y="360" on="1"/>
        <pt x="1180" y="0" on="1"/>
        <pt x="99" y="0" on="1"/>
      </contour>
    </TTGlyph>
    <TTGlyph name="M" xMin="69" yMin="-17" xMax="1994" yMax="1553">
      <contour>
        <pt x="69" y="116" on="1"/>
        <pt x="241" y="153" on="1"/>
        <pt x="324" y="1379" on="1"/>
        <pt x="134" y="1400" on="1"/>
        <pt x="134" y="1553" on="1"/>
        <pt x="719" y="1553" on="1"/>
        <pt x="1011" y="630" on="1"/>
        <pt x="1049" y="443" on="1"/>
        <pt x="1094" y="631" on="1"/>
        <pt x="1371" y="1553" on="1"/>
        <pt x="1910" y="1553" on="1"/>
        <pt x="1910" y="1400" on="1"/>
        <pt x="1723" y="1380" on="1"/>
        <pt x="1830" y="153" on="1"/>
        <pt x="1994" y="115" on="1"/>
        <pt x="1994" y="0" on="1"/>
        <pt x="1393" y="0" on="1"/>
        <pt x="1393" y="115" on="1"/>
        <pt x="1557" y="154" on="1"/>
        <pt x="1490" y="993" on="1"/>
        <pt x="1484" y="1373" on="1"/>
        <pt x="1447" y="1224" on="1"/>
        <pt x="1063" y="-17" on="1"/>
        <pt x="960" y="-17" on="1"/>
        <pt x="607" y="1018" on="1"/>
        <pt x="601" y="1033" on="0"/>
        <pt x="575" y="1113" on="0"/>
        <pt x="542" y="1215" on="0"/>
        <pt x="506" y="1326" on="0"/>
        <pt x="491" y="1373" on="1"/>
        <pt x="485" y="1067" on="1"/>
        <pt x="447" y="155" on="1"/>
        <pt x="634" y="116" on="1"/>
        <pt x="634" y="0" on="1"/>
        <pt x="69" y="0" on="1"/>
      </contour>
    </TTGlyph>
    <TTGlyph name="N" xMin="89" yMin="0" xMax="1621" yMax="1553">
      <contour>
        <pt x="89" y="116" on="1"/>
        <pt x="252" y="155" on="1"/>
        <pt x="252" y="1381" on="1"/>
        <pt x="96" y="1401" on="1"/>
        <pt x="96" y="1553" on="1"/>
        <pt x="538" y="1553" on="1"/>
        <pt x="1169" y="485" on="1"/>
        <pt x="1281" y="224" on="1"/>
        <pt x="1281" y="1379" on="1"/>
        <pt x="1107" y="1403" on="1"/>
        <pt x="1107" y="1553" on="1"/>
        <pt x="1621" y="1553" on="1"/>
        <pt x="1621" y="1403" on="1"/>
        <pt x="1471" y="1382" on="1"/>
        <pt x="1471" y="0" on="1"/>
        <pt x="1160" y="0" on="1"/>
        <pt x="565" y="970" on="1"/>
        <pt x="445" y="1247" on="1"/>
        <pt x="445" y="157" on="1"/>
        <pt x="644" y="116" on="1"/>
        <pt x="644" y="0" on="1"/>
        <pt x="89" y="0" on="1"/>
      </contour>
    </TTGlyph>
    <TTGlyph name="Nacute" xMin="81" yMin="0" xMax="1612" yMax="1920">
      <contour>
        <pt x="737" y="1683" on="1"/>
        <pt x="1093" y="1920" on="1"/>
        <pt x="1265" y="1747" on="1"/>
        <pt x="1221" y="1716" on="0"/>
        <pt x="1092" y="1664" on="0"/>
        <pt x="961" y="1626" on="0"/>
        <pt x="847" y="1602" on="0"/>
        <pt x="817" y="1599" on="1"/>
      </contour>
      <contour>
        <pt x="81" y="116" on="1"/>
        <pt x="244" y="155" on="1"/>
        <pt x="244" y="1381" on="1"/>
        <pt x="87" y="1401" on="1"/>
        <pt x="87" y="1553" on="1"/>
        <pt x="530" y="1553" on="1"/>
        <pt x="1161" y="485" on="1"/>
        <pt x="1272" y="226" on="1"/>
        <pt x="1272" y="1379" on="1"/>
        <pt x="1099" y="1403" on="1"/>
        <pt x="1099" y="1553" on="1"/>
        <pt x="1612" y="1553" on="1"/>
        <pt x="1612" y="1403" on="1"/>
        <pt x="1463" y="1382" on="1"/>
        <pt x="1463" y="0" on="1"/>
        <pt x="1152" y="0" on="1"/>
        <pt x="557" y="970" on="1"/>
        <pt x="436" y="1249" on="1"/>
        <pt x="436" y="976" on="0"/>
        <pt x="437" y="428" on="0"/>
        <pt x="437" y="157" on="1"/>
        <pt x="636" y="116" on="1"/>
        <pt x="636" y="0" on="1"/>
        <pt x="81" y="0" on="1"/>
      </contour>
    </TTGlyph>
    <TTGlyph name="Ntilde" xMin="81" yMin="0" xMax="1612" yMax="1920">
      <contour>
        <pt x="436" y="1728" on="1"/>
        <pt x="453" y="1768" on="0"/>
        <pt x="522" y="1839" on="0"/>
        <pt x="606" y="1890" on="0"/>
        <pt x="694" y="1920" on="0"/>
        <pt x="730" y="1920" on="1"/>
        <pt x="765" y="1920" on="0"/>
        <pt x="821" y="1904" on="0"/>
        <pt x="868" y="1879" on="0"/>
        <pt x="908" y="1850" on="0"/>
        <pt x="947" y="1825" on="0"/>
        <pt x="986" y="1809" on="0"/>
        <pt x="1009" y="1809" on="1"/>
        <pt x="1065" y="1809" on="0"/>
        <pt x="1151" y="1854" on="0"/>
        <pt x="1183" y="1884" on="1"/>
        <pt x="1256" y="1797" on="1"/>
        <pt x="1238" y="1757" on="0"/>
        <pt x="1171" y="1690" on="0"/>
        <pt x="1089" y="1642" on="0"/>
        <pt x="1003" y="1615" on="0"/>
        <pt x="966" y="1615" on="1"/>
        <pt x="914" y="1615" on="0"/>
        <pt x="838" y="1651" on="0"/>
        <pt x="775" y="1694" on="0"/>
        <pt x="717" y="1730" on="0"/>
        <pt x="683" y="1730" on="1"/>
        <pt x="659" y="1730" on="0"/>
        <pt x="611" y="1717" on="0"/>
        <pt x="565" y="1695" on="0"/>
        <pt x="524" y="1668" on="0"/>
        <pt x="508" y="1653" on="1"/>
      </contour>
      <contour>
        <pt x="81" y="116" on="1"/>
        <pt x="244" y="155" on="1"/>
        <pt x="244" y="1381" on="1"/>
        <pt x="87" y="1401" on="1"/>
        <pt x="87" y="1553" on="1"/>
        <pt x="530" y="1553" on="1"/>
        <pt x="1161" y="485" on="1"/>
        <pt x="1272" y="226" on="1"/>
        <pt x="1272" y="1379" on="1"/>
        <pt x="1099" y="1403" on="1"/>
        <pt x="1099" y="1553" on="1"/>
        <pt x="1612" y="1553" on="1"/>
        <pt x="1612" y="1403" on="1"/>
        <pt x="1463" y="1382" on="1"/>
        <pt x="1463" y="0" on="1"/>
        <pt x="1152" y="0" on="1"/>
        <pt x="557" y="970" on="1"/>
        <pt x="436" y="1249" on="1"/>
        <pt x="436" y="976" on="0"/>
        <pt x="437" y="428" on="0"/>
        <pt x="437" y="157" on="1"/>
        <pt x="636" y="116" on="1"/>
        <pt x="636" y="0" on="1"/>
        <pt x="81" y="0" on="1"/>
      </contour>
    </TTGlyph>
    <TTGlyph name="O" xMin="75" yMin="-28" xMax="1505" yMax="1567">
      <contour>
        <pt x="75" y="753" on="1"/>
        <pt x="79" y="943" on="0"/>
        <pt x="202" y="1244" on="0"/>
        <pt x="404" y="1453" on="0"/>
        <pt x="667" y="1565" on="0"/>
        <pt x="811" y="1567" on="1"/>
        <pt x="971" y="1569" on="0"/>
        <pt x="1231" y="1453" on="0"/>
        <pt x="1412" y="1244" on="0"/>
        <pt x="1508" y="958" on="0"/>
        <pt x="1505" y="789" on="1"/>
        <pt x="1501" y="599" on="0"/>
        <pt x="1387" y="297" on="0"/>
        <pt x="1195" y="86" on="0"/>
        <pt x="936" y="-27" on="0"/>
        <pt x="786" y="-28" on="1"/>
        <pt x="621" y="-30" on="0"/>
        <pt x="355" y="89" on="0"/>
        <pt x="169" y="299" on="0"/>
        <pt x="72" y="586" on="0"/>
      </contour>
      <contour>
        <pt x="800" y="108" on="1"/>
        <pt x="903" y="108" on="0"/>
        <pt x="1050" y="196" on="0"/>
        <pt x="1145" y="369" on="0"/>
        <pt x="1189" y="623" on="0"/>
        <pt x="1189" y="788" on="1"/>
        <pt x="1189" y="863" on="0"/>
        <pt x="1169" y="1016" on="0"/>
        <pt x="1127" y="1158" on="0"/>
        <pt x="1063" y="1282" on="0"/>
        <pt x="976" y="1375" on="0"/>
        <pt x="865" y="1428" on="0"/>
        <pt x="798" y="1428" on="1"/>
        <pt x="694" y="1428" on="0"/>
        <pt x="541" y="1338" on="0"/>
        <pt x="440" y="1166" on="0"/>
        <pt x="391" y="915" on="0"/>
        <pt x="391" y="754" on="1"/>
        <pt x="391" y="683" on="0"/>
        <pt x="413" y="532" on="0"/>
        <pt x="457" y="389" on="0"/>
        <pt x="525" y="260" on="0"/>
        <pt x="615" y="164" on="0"/>
        <pt x="730" y="108" on="0"/>
      </contour>
    </TTGlyph>
    <TTGlyph name="OE" xMin="75" yMin="-28" xMax="2103" yMax="1567">
      <contour>
        <pt x="75" y="753" on="1"/>
        <pt x="79" y="943" on="0"/>
        <pt x="202" y="1244" on="0"/>
        <pt x="404" y="1453" on="0"/>
        <pt x="667" y="1565" on="0"/>
        <pt x="811" y="1567" on="1"/>
        <pt x="852" y="1567" on="0"/>
        <pt x="929" y="1561" on="0"/>
        <pt x="966" y="1553" on="1"/>
        <pt x="1972" y="1553" on="1"/>
        <pt x="2002" y="1235" on="1"/>
        <pt x="1855" y="1235" on="1"/>
        <pt x="1782" y="1399" on="1"/>
        <pt x="1344" y="1416" on="1"/>
        <pt x="1344" y="866" on="1"/>
        <pt x="1651" y="875" on="1"/>
        <pt x="1689" y="1025" on="1"/>
        <pt x="1824" y="1025" on="1"/>
        <pt x="1824" y="562" on="1"/>
        <pt x="1689" y="562" on="1"/>
        <pt x="1651" y="719" on="1"/>
        <pt x="1344" y="725" on="1"/>
        <pt x="1344" y="137" on="1"/>
        <pt x="1845" y="162" on="1"/>
        <pt x="1961" y="363" on="1"/>
        <pt x="2103" y="332" on="1"/>
        <pt x="2053" y="0" on="1"/>
        <pt x="980" y="0" on="1"/>
        <pt x="934" y="-13" on="0"/>
        <pt x="837" y="-27" on="0"/>
        <pt x="786" y="-28" on="1"/>
        <pt x="621" y="-30" on="0"/>
        <pt x="355" y="89" on="0"/>
        <pt x="169" y="299" on="0"/>
        <pt x="72" y="586" on="0"/>
      </contour>
      <contour>
        <pt x="800" y="108" on="1"/>
        <pt x="964" y="108" on="0"/>
        <pt x="1058" y="222" on="1"/>
        <pt x="1058" y="1281" on="1"/>
        <pt x="1010" y="1348" on="0"/>
        <pt x="882" y="1428" on="0"/>
        <pt x="798" y="1428" on="1"/>
        <pt x="694" y="1428" on="0"/>
        <pt x="541" y="1338" on="0"/>
        <pt x="440" y="1166" on="0"/>
        <pt x="391" y="915" on="0"/>
        <pt x="391" y="754" on="1"/>
        <pt x="391" y="683" on="0"/>
        <pt x="413" y="532" on="0"/>
        <pt x="457" y="389" on="0"/>
        <pt x="525" y="260" on="0"/>
        <pt x="615" y="164" on="0"/>
        <pt x="730" y="108" on="0"/>
      </contour>
    </TTGlyph>
    <TTGlyph name="Oacute" xMin="75" yMin="-28" xMax="1505" yMax="1920">
      <contour>
        <pt x="689" y="1683" on="1"/>
        <pt x="1045" y="1920" on="1"/>
        <pt x="1217" y="1747" on="1"/>
        <pt x="1188" y="1726" on="0"/>
        <pt x="1109" y="1689" on="0"/>
        <pt x="1023" y="1658" on="0"/>
        <pt x="935" y="1632" on="0"/>
        <pt x="855" y="1613" on="0"/>
        <pt x="790" y="1601" on="0"/>
        <pt x="770" y="1599" on="1"/>
      </contour>
      <contour>
        <pt x="75" y="753" on="1"/>
        <pt x="79" y="943" on="0"/>
        <pt x="202" y="1244" on="0"/>
        <pt x="404" y="1453" on="0"/>
        <pt x="667" y="1565" on="0"/>
        <pt x="811" y="1567" on="1"/>
        <pt x="971" y="1569" on="0"/>
        <pt x="1231" y="1453" on="0"/>
        <pt x="1412" y="1244" on="0"/>
        <pt x="1508" y="958" on="0"/>
        <pt x="1505" y="789" on="1"/>
        <pt x="1501" y="599" on="0"/>
        <pt x="1387" y="297" on="0"/>
        <pt x="1195" y="86" on="0"/>
        <pt x="936" y="-27" on="0"/>
        <pt x="786" y="-28" on="1"/>
        <pt x="621" y="-30" on="0"/>
        <pt x="355" y="89" on="0"/>
        <pt x="169" y="299" on="0"/>
        <pt x="72" y="586" on="0"/>
      </contour>
      <contour>
        <pt x="800" y="108" on="1"/>
        <pt x="903" y="108" on="0"/>
        <pt x="1050" y="196" on="0"/>
        <pt x="1145" y="369" on="0"/>
        <pt x="1189" y="623" on="0"/>
        <pt x="1189" y="788" on="1"/>
        <pt x="1189" y="863" on="0"/>
        <pt x="1169" y="1016" on="0"/>
        <pt x="1127" y="1158" on="0"/>
        <pt x="1063" y="1282" on="0"/>
        <pt x="976" y="1375" on="0"/>
        <pt x="865" y="1428" on="0"/>
        <pt x="798" y="1428" on="1"/>
        <pt x="694" y="1428" on="0"/>
        <pt x="541" y="1338" on="0"/>
        <pt x="440" y="1166" on="0"/>
        <pt x="391" y="915" on="0"/>
        <pt x="391" y="754" on="1"/>
        <pt x="391" y="683" on="0"/>
        <pt x="413" y="532" on="0"/>
        <pt x="457" y="389" on="0"/>
        <pt x="525" y="260" on="0"/>
        <pt x="615" y="164" on="0"/>
        <pt x="730" y="108" on="0"/>
      </contour>
    </TTGlyph>
    <TTGlyph name="Ocircumflex" xMin="75" yMin="-28" xMax="1505" yMax="1920">
      <contour>
        <pt x="431" y="1667" on="1"/>
        <pt x="697" y="1920" on="1"/>
        <pt x="910" y="1920" on="1"/>
        <pt x="1174" y="1668" on="1"/>
        <pt x="1073" y="1605" on="1"/>
        <pt x="805" y="1751" on="1"/>
        <pt x="528" y="1605" on="1"/>
      </contour>
      <contour>
        <pt x="75" y="753" on="1"/>
        <pt x="79" y="943" on="0"/>
        <pt x="202" y="1244" on="0"/>
        <pt x="404" y="1453" on="0"/>
        <pt x="667" y="1565" on="0"/>
        <pt x="811" y="1567" on="1"/>
        <pt x="971" y="1569" on="0"/>
        <pt x="1231" y="1453" on="0"/>
        <pt x="1412" y="1244" on="0"/>
        <pt x="1508" y="958" on="0"/>
        <pt x="1505" y="789" on="1"/>
        <pt x="1501" y="599" on="0"/>
        <pt x="1387" y="297" on="0"/>
        <pt x="1195" y="86" on="0"/>
        <pt x="936" y="-27" on="0"/>
        <pt x="786" y="-28" on="1"/>
        <pt x="621" y="-30" on="0"/>
        <pt x="355" y="89" on="0"/>
        <pt x="169" y="299" on="0"/>
        <pt x="72" y="586" on="0"/>
      </contour>
      <contour>
        <pt x="800" y="108" on="1"/>
        <pt x="903" y="108" on="0"/>
        <pt x="1050" y="196" on="0"/>
        <pt x="1145" y="369" on="0"/>
        <pt x="1189" y="623" on="0"/>
        <pt x="1189" y="788" on="1"/>
        <pt x="1189" y="863" on="0"/>
        <pt x="1169" y="1016" on="0"/>
        <pt x="1127" y="1158" on="0"/>
        <pt x="1063" y="1282" on="0"/>
        <pt x="976" y="1375" on="0"/>
        <pt x="865" y="1428" on="0"/>
        <pt x="798" y="1428" on="1"/>
        <pt x="694" y="1428" on="0"/>
        <pt x="541" y="1338" on="0"/>
        <pt x="440" y="1166" on="0"/>
        <pt x="391" y="915" on="0"/>
        <pt x="391" y="754" on="1"/>
        <pt x="391" y="683" on="0"/>
        <pt x="413" y="532" on="0"/>
        <pt x="457" y="389" on="0"/>
        <pt x="525" y="260" on="0"/>
        <pt x="615" y="164" on="0"/>
        <pt x="730" y="108" on="0"/>
      </contour>
    </TTGlyph>
    <TTGlyph name="Odieresis" xMin="75" yMin="-28" xMax="1505" yMax="1920">
      <contour>
        <pt x="1045" y="1633" on="1"/>
        <pt x="1015" y="1633" on="0"/>
        <pt x="958" y="1651" on="0"/>
        <pt x="914" y="1685" on="0"/>
        <pt x="888" y="1734" on="0"/>
        <pt x="888" y="1766" on="1"/>
        <pt x="888" y="1799" on="0"/>
        <pt x="920" y="1855" on="0"/>
        <pt x="972" y="1897" on="0"/>
        <pt x="1037" y="1920" on="0"/>
        <pt x="1070" y="1920" on="1"/>
        <pt x="1112" y="1920" on="0"/>
        <pt x="1171" y="1900" on="0"/>
        <pt x="1209" y="1864" on="0"/>
        <pt x="1226" y="1816" on="0"/>
        <pt x="1226" y="1788" on="1"/>
        <pt x="1226" y="1752" on="0"/>
        <pt x="1196" y="1695" on="0"/>
        <pt x="1145" y="1655" on="0"/>
        <pt x="1080" y="1633" on="0"/>
      </contour>
      <contour>
        <pt x="533" y="1632" on="1"/>
        <pt x="502" y="1632" on="0"/>
        <pt x="446" y="1650" on="0"/>
        <pt x="403" y="1683" on="0"/>
        <pt x="378" y="1732" on="0"/>
        <pt x="378" y="1764" on="1"/>
        <pt x="378" y="1798" on="0"/>
        <pt x="409" y="1855" on="0"/>
        <pt x="460" y="1897" on="0"/>
        <pt x="525" y="1920" on="0"/>
        <pt x="558" y="1920" on="1"/>
        <pt x="600" y="1920" on="0"/>
        <pt x="660" y="1899" on="0"/>
        <pt x="699" y="1863" on="0"/>
        <pt x="718" y="1815" on="0"/>
        <pt x="718" y="1787" on="1"/>
        <pt x="718" y="1752" on="0"/>
        <pt x="687" y="1694" on="0"/>
        <pt x="635" y="1654" on="0"/>
        <pt x="568" y="1632" on="0"/>
      </contour>
      <contour>
        <pt x="75" y="753" on="1"/>
        <pt x="79" y="943" on="0"/>
        <pt x="202" y="1244" on="0"/>
        <pt x="404" y="1453" on="0"/>
        <pt x="667" y="1565" on="0"/>
        <pt x="811" y="1567" on="1"/>
        <pt x="971" y="1569" on="0"/>
        <pt x="1231" y="1453" on="0"/>
        <pt x="1412" y="1244" on="0"/>
        <pt x="1508" y="958" on="0"/>
        <pt x="1505" y="789" on="1"/>
        <pt x="1501" y="599" on="0"/>
        <pt x="1387" y="297" on="0"/>
        <pt x="1195" y="86" on="0"/>
        <pt x="936" y="-27" on="0"/>
        <pt x="786" y="-28" on="1"/>
        <pt x="621" y="-30" on="0"/>
        <pt x="355" y="89" on="0"/>
        <pt x="169" y="299" on="0"/>
        <pt x="72" y="586" on="0"/>
      </contour>
      <contour>
        <pt x="800" y="108" on="1"/>
        <pt x="903" y="108" on="0"/>
        <pt x="1050" y="196" on="0"/>
        <pt x="1145" y="369" on="0"/>
        <pt x="1189" y="623" on="0"/>
        <pt x="1189" y="788" on="1"/>
        <pt x="1189" y="863" on="0"/>
        <pt x="1169" y="1016" on="0"/>
        <pt x="1127" y="1158" on="0"/>
        <pt x="1063" y="1282" on="0"/>
        <pt x="976" y="1375" on="0"/>
        <pt x="865" y="1428" on="0"/>
        <pt x="798" y="1428" on="1"/>
        <pt x="694" y="1428" on="0"/>
        <pt x="541" y="1338" on="0"/>
        <pt x="440" y="1166" on="0"/>
        <pt x="391" y="915" on="0"/>
        <pt x="391" y="754" on="1"/>
        <pt x="391" y="683" on="0"/>
        <pt x="413" y="532" on="0"/>
        <pt x="457" y="389" on="0"/>
        <pt x="525" y="260" on="0"/>
        <pt x="615" y="164" on="0"/>
        <pt x="730" y="108" on="0"/>
      </contour>
    </TTGlyph>
    <TTGlyph name="Ograve" xMin="75" yMin="-28" xMax="1505" yMax="1920">
      <contour>
        <pt x="568" y="1920" on="1"/>
        <pt x="912" y="1683" on="1"/>
        <pt x="831" y="1599" on="1"/>
        <pt x="801" y="1602" on="0"/>
        <pt x="691" y="1626" on="0"/>
        <pt x="564" y="1664" on="0"/>
        <pt x="439" y="1716" on="0"/>
        <pt x="395" y="1747" on="1"/>
      </contour>
      <contour>
        <pt x="75" y="753" on="1"/>
        <pt x="79" y="943" on="0"/>
        <pt x="202" y="1244" on="0"/>
        <pt x="404" y="1453" on="0"/>
        <pt x="667" y="1565" on="0"/>
        <pt x="811" y="1567" on="1"/>
        <pt x="971" y="1569" on="0"/>
        <pt x="1231" y="1453" on="0"/>
        <pt x="1412" y="1244" on="0"/>
        <pt x="1508" y="958" on="0"/>
        <pt x="1505" y="789" on="1"/>
        <pt x="1501" y="599" on="0"/>
        <pt x="1387" y="297" on="0"/>
        <pt x="1195" y="86" on="0"/>
        <pt x="936" y="-27" on="0"/>
        <pt x="786" y="-28" on="1"/>
        <pt x="621" y="-30" on="0"/>
        <pt x="355" y="89" on="0"/>
        <pt x="169" y="299" on="0"/>
        <pt x="72" y="586" on="0"/>
      </contour>
      <contour>
        <pt x="800" y="108" on="1"/>
        <pt x="903" y="108" on="0"/>
        <pt x="1050" y="196" on="0"/>
        <pt x="1145" y="369" on="0"/>
        <pt x="1189" y="623" on="0"/>
        <pt x="1189" y="788" on="1"/>
        <pt x="1189" y="863" on="0"/>
        <pt x="1169" y="1016" on="0"/>
        <pt x="1127" y="1158" on="0"/>
        <pt x="1063" y="1282" on="0"/>
        <pt x="976" y="1375" on="0"/>
        <pt x="865" y="1428" on="0"/>
        <pt x="798" y="1428" on="1"/>
        <pt x="694" y="1428" on="0"/>
        <pt x="541" y="1338" on="0"/>
        <pt x="440" y="1166" on="0"/>
        <pt x="391" y="915" on="0"/>
        <pt x="391" y="754" on="1"/>
        <pt x="391" y="683" on="0"/>
        <pt x="413" y="532" on="0"/>
        <pt x="457" y="389" on="0"/>
        <pt x="525" y="260" on="0"/>
        <pt x="615" y="164" on="0"/>
        <pt x="730" y="108" on="0"/>
      </contour>
    </TTGlyph>
    <TTGlyph name="Omega" xMin="150" yMin="0" xMax="1895" yMax="1561">
      <contour>
        <pt x="150" y="459" on="1"/>
        <pt x="287" y="466" on="1"/>
        <pt x="326" y="243" on="1"/>
        <pt x="675" y="243" on="1"/>
        <pt x="627" y="270" on="0"/>
        <pt x="530" y="350" on="0"/>
        <pt x="442" y="448" on="0"/>
        <pt x="366" y="562" on="0"/>
        <pt x="310" y="686" on="0"/>
        <pt x="280" y="815" on="0"/>
        <pt x="281" y="880" on="1"/>
        <pt x="284" y="999" on="0"/>
        <pt x="345" y="1192" on="0"/>
        <pt x="449" y="1343" on="0"/>
        <pt x="589" y="1454" on="0"/>
        <pt x="753" y="1526" on="0"/>
        <pt x="933" y="1561" on="0"/>
        <pt x="1026" y="1561" on="1"/>
        <pt x="1182" y="1561" on="0"/>
        <pt x="1445" y="1474" on="0"/>
        <pt x="1633" y="1306" on="0"/>
        <pt x="1736" y="1061" on="0"/>
        <pt x="1732" y="904" on="1"/>
        <pt x="1730" y="819" on="0"/>
        <pt x="1660" y="634" on="0"/>
        <pt x="1551" y="456" on="0"/>
        <pt x="1417" y="299" on="0"/>
        <pt x="1351" y="243" on="1"/>
        <pt x="1683" y="243" on="1"/>
        <pt x="1771" y="483" on="1"/>
        <pt x="1895" y="476" on="1"/>
        <pt x="1839" y="0" on="1"/>
        <pt x="1155" y="0" on="1"/>
        <pt x="1156" y="208" on="1"/>
        <pt x="1213" y="247" on="0"/>
        <pt x="1311" y="395" on="0"/>
        <pt x="1385" y="588" on="0"/>
        <pt x="1427" y="814" on="0"/>
        <pt x="1427" y="932" on="1"/>
        <pt x="1427" y="1055" on="0"/>
        <pt x="1366" y="1245" on="0"/>
        <pt x="1257" y="1373" on="0"/>
        <pt x="1106" y="1439" on="0"/>
        <pt x="1015" y="1439" on="1"/>
        <pt x="921" y="1439" on="0"/>
        <pt x="763" y="1379" on="0"/>
        <pt x="649" y="1249" on="0"/>
        <pt x="586" y="1043" on="0"/>
        <pt x="586" y="898" on="1"/>
        <pt x="586" y="788" on="0"/>
        <pt x="643" y="576" on="0"/>
        <pt x="731" y="394" on="0"/>
        <pt x="838" y="250" on="0"/>
        <pt x="888" y="208" on="1"/>
        <pt x="889" y="0" on="1"/>
        <pt x="876" y="21" on="1"/>
        <pt x="888" y="0" on="1"/>
        <pt x="150" y="0" on="1"/>
      </contour>
    </TTGlyph>
    <TTGlyph name="Oslash" xMin="75" yMin="-207" xMax="1505" yMax="1692">
      <contour>
        <pt x="482" y="32" on="1"/>
        <pt x="384" y="75" on="0"/>
        <pt x="231" y="218" on="0"/>
        <pt x="126" y="405" on="0"/>
        <pt x="72" y="628" on="0"/>
        <pt x="75" y="753" on="1"/>
        <pt x="79" y="943" on="0"/>
        <pt x="202" y="1244" on="0"/>
        <pt x="404" y="1453" on="0"/>
        <pt x="667" y="1565" on="0"/>
        <pt x="811" y="1567" on="1"/>
        <pt x="870" y="1568" on="0"/>
        <pt x="979" y="1552" on="0"/>
        <pt x="1030" y="1537" on="1"/>
        <pt x="1084" y="1692" on="1"/>
        <pt x="1193" y="1653" on="1"/>
        <pt x="1136" y="1493" on="1"/>
        <pt x="1224" y="1448" on="0"/>
        <pt x="1364" y="1307" on="0"/>
        <pt x="1459" y="1125" on="0"/>
        <pt x="1507" y="909" on="0"/>
        <pt x="1505" y="789" on="1"/>
        <pt x="1501" y="599" on="0"/>
        <pt x="1387" y="297" on="0"/>
        <pt x="1195" y="86" on="0"/>
        <pt x="936" y="-27" on="0"/>
        <pt x="786" y="-28" on="1"/>
        <pt x="734" y="-28" on="0"/>
        <pt x="636" y="-17" on="0"/>
        <pt x="591" y="-5" on="1"/>
        <pt x="513" y="-207" on="1"/>
        <pt x="405" y="-168" on="1"/>
      </contour>
      <contour>
        <pt x="962" y="1378" on="1"/>
        <pt x="927" y="1402" on="0"/>
        <pt x="845" y="1428" on="0"/>
        <pt x="798" y="1428" on="1"/>
        <pt x="694" y="1428" on="0"/>
        <pt x="541" y="1338" on="0"/>
        <pt x="440" y="1166" on="0"/>
        <pt x="391" y="915" on="0"/>
        <pt x="391" y="754" on="1"/>
        <pt x="391" y="685" on="0"/>
        <pt x="412" y="537" on="0"/>
        <pt x="454" y="396" on="0"/>
        <pt x="518" y="269" on="0"/>
        <pt x="562" y="221" on="1"/>
      </contour>
      <contour>
        <pt x="657" y="144" on="1"/>
        <pt x="689" y="127" on="0"/>
        <pt x="760" y="108" on="0"/>
        <pt x="800" y="108" on="1"/>
        <pt x="903" y="108" on="0"/>
        <pt x="1050" y="196" on="0"/>
        <pt x="1145" y="369" on="0"/>
        <pt x="1189" y="623" on="0"/>
        <pt x="1189" y="788" on="1"/>
        <pt x="1189" y="855" on="0"/>
        <pt x="1172" y="992" on="0"/>
        <pt x="1139" y="1123" on="0"/>
        <pt x="1087" y="1240" on="0"/>
        <pt x="1053" y="1288" on="1"/>
      </contour>
    </TTGlyph>
    <TTGlyph name="Otilde" xMin="75" yMin="-28" xMax="1505" yMax="1920">
      <contour>
        <pt x="388" y="1728" on="1"/>
        <pt x="405" y="1768" on="0"/>
        <pt x="474" y="1839" on="0"/>
        <pt x="558" y="1890" on="0"/>
        <pt x="646" y="1920" on="0"/>
        <pt x="682" y="1920" on="1"/>
        <pt x="717" y="1920" on="0"/>
        <pt x="773" y="1904" on="0"/>
        <pt x="820" y="1879" on="0"/>
        <pt x="860" y="1850" on="0"/>
        <pt x="899" y="1825" on="0"/>
        <pt x="938" y="1809" on="0"/>
        <pt x="961" y="1809" on="1"/>
        <pt x="1017" y="1809" on="0"/>
        <pt x="1103" y="1854" on="0"/>
        <pt x="1135" y="1884" on="1"/>
        <pt x="1208" y="1797" on="1"/>
        <pt x="1190" y="1757" on="0"/>
        <pt x="1123" y="1690" on="0"/>
        <pt x="1041" y="1642" on="0"/>
        <pt x="955" y="1615" on="0"/>
        <pt x="918" y="1615" on="1"/>
        <pt x="866" y="1615" on="0"/>
        <pt x="790" y="1651" on="0"/>
        <pt x="727" y="1694" on="0"/>
        <pt x="669" y="1730" on="0"/>
        <pt x="635" y="1730" on="1"/>
        <pt x="611" y="1730" on="0"/>
        <pt x="563" y="1717" on="0"/>
        <pt x="517" y="1695" on="0"/>
        <pt x="476" y="1668" on="0"/>
        <pt x="460" y="1653" on="1"/>
      </contour>
      <contour>
        <pt x="75" y="753" on="1"/>
        <pt x="79" y="943" on="0"/>
        <pt x="202" y="1244" on="0"/>
        <pt x="404" y="1453" on="0"/>
        <pt x="667" y="1565" on="0"/>
        <pt x="811" y="1567" on="1"/>
        <pt x="971" y="1569" on="0"/>
        <pt x="1231" y="1453" on="0"/>
        <pt x="1412" y="1244" on="0"/>
        <pt x="1508" y="958" on="0"/>
        <pt x="1505" y="789" on="1"/>
        <pt x="1501" y="599" on="0"/>
        <pt x="1387" y="297" on="0"/>
        <pt x="1195" y="86" on="0"/>
        <pt x="936" y="-27" on="0"/>
        <pt x="786" y="-28" on="1"/>
        <pt x="621" y="-30" on="0"/>
        <pt x="355" y="89" on="0"/>
        <pt x="169" y="299" on="0"/>
        <pt x="72" y="586" on="0"/>
      </contour>
      <contour>
        <pt x="800" y="108" on="1"/>
        <pt x="903" y="108" on="0"/>
        <pt x="1050" y="196" on="0"/>
        <pt x="1145" y="369" on="0"/>
        <pt x="1189" y="623" on="0"/>
        <pt x="1189" y="788" on="1"/>
        <pt x="1189" y="863" on="0"/>
        <pt x="1169" y="1016" on="0"/>
        <pt x="1127" y="1158" on="0"/>
        <pt x="1063" y="1282" on="0"/>
        <pt x="976" y="1375" on="0"/>
        <pt x="865" y="1428" on="0"/>
        <pt x="798" y="1428" on="1"/>
        <pt x="694" y="1428" on="0"/>
        <pt x="541" y="1338" on="0"/>
        <pt x="440" y="1166" on="0"/>
        <pt x="391" y="915" on="0"/>
        <pt x="391" y="754" on="1"/>
        <pt x="391" y="683" on="0"/>
        <pt x="413" y="532" on="0"/>
        <pt x="457" y="389" on="0"/>
        <pt x="525" y="260" on="0"/>
        <pt x="615" y="164" on="0"/>
        <pt x="730" y="108" on="0"/>
      </contour>
    </TTGlyph>
    <TTGlyph name="P" xMin="71" yMin="0" xMax="1316" yMax="1567">
      <contour>
        <pt x="71" y="116" on="1"/>
        <pt x="252" y="154" on="1"/>
        <pt x="252" y="1381" on="1"/>
        <pt x="83" y="1408" on="1"/>
        <pt x="83" y="1553" on="1"/>
        <pt x="400" y="1553" on="1"/>
        <pt x="464" y="1553" on="0"/>
        <pt x="645" y="1567" on="0"/>
        <pt x="749" y="1567" on="1"/>
        <pt x="867" y="1567" on="0"/>
        <pt x="1074" y="1527" on="0"/>
        <pt x="1227" y="1423" on="0"/>
        <pt x="1316" y="1246" on="0"/>
        <pt x="1316" y="1109" on="1"/>
        <pt x="1316" y="985" on="0"/>
        <pt x="1221" y="794" on="0"/>
        <pt x="1059" y="664" on="0"/>
        <pt x="844" y="598" on="0"/>
        <pt x="724" y="599" on="1"/>
        <pt x="658" y="600" on="0"/>
        <pt x="568" y="599" on="0"/>
        <pt x="536" y="598" on="1"/>
        <pt x="536" y="153" on="1"/>
        <pt x="791" y="116" on="1"/>
        <pt x="791" y="0" on="1"/>
        <pt x="71" y="0" on="1"/>
      </contour>
      <contour>
        <pt x="536" y="750" on="1"/>
        <pt x="578" y="743" on="0"/>
        <pt x="678" y="739" on="0"/>
        <pt x="718" y="739" on="1"/>
        <pt x="779" y="739" on="0"/>
        <pt x="892" y="773" on="0"/>
        <pt x="979" y="859" on="0"/>
        <pt x="1031" y="1005" on="0"/>
        <pt x="1031" y="1117" on="1"/>
        <pt x="1031" y="1197" on="0"/>
        <pt x="983" y="1314" on="0"/>
        <pt x="894" y="1391" on="0"/>
        <pt x="768" y="1427" on="0"/>
        <pt x="691" y="1427" on="1"/>
        <pt x="673" y="1427" on="0"/>
        <pt x="631" y="1425" on="0"/>
        <pt x="589" y="1421" on="0"/>
        <pt x="550" y="1415" on="0"/>
        <pt x="536" y="1411" on="1"/>
      </contour>
    </TTGlyph>
    <TTGlyph name="Q" xMin="75" yMin="-376" xMax="1505" yMax="1567">
      <contour>
        <pt x="75" y="753" on="1"/>
        <pt x="79" y="943" on="0"/>
        <pt x="202" y="1244" on="0"/>
        <pt x="404" y="1453" on="0"/>
        <pt x="667" y="1565" on="0"/>
        <pt x="811" y="1567" on="1"/>
        <pt x="971" y="1569" on="0"/>
        <pt x="1231" y="1453" on="0"/>
        <pt x="1412" y="1244" on="0"/>
        <pt x="1508" y="958" on="0"/>
        <pt x="1505" y="789" on="1"/>
        <pt x="1501" y="626" on="0"/>
        <pt x="1416" y="358" on="0"/>
        <pt x="1269" y="154" on="0"/>
        <pt x="1069" y="20" on="0"/>
        <pt x="951" y="-8" on="1"/>
        <pt x="968" y="-49" on="0"/>
        <pt x="1024" y="-103" on="0"/>
        <pt x="1091" y="-136" on="0"/>
        <pt x="1164" y="-150" on="0"/>
        <pt x="1233" y="-155" on="0"/>
        <pt x="1294" y="-152" on="0"/>
        <pt x="1316" y="-151" on="1"/>
        <pt x="1363" y="-147" on="0"/>
        <pt x="1443" y="-125" on="0"/>
        <pt x="1464" y="-115" on="1"/>
        <pt x="1472" y="-292" on="1"/>
        <pt x="1443" y="-324" on="0"/>
        <pt x="1311" y="-376" on="0"/>
        <pt x="1208" y="-376" on="1"/>
        <pt x="1146" y="-376" on="0"/>
        <pt x="1024" y="-347" on="0"/>
        <pt x="916" y="-269" on="0"/>
        <pt x="831" y="-134" on="0"/>
        <pt x="807" y="-27" on="1"/>
        <pt x="802" y="-27" on="0"/>
        <pt x="791" y="-28" on="0"/>
        <pt x="786" y="-28" on="1"/>
        <pt x="621" y="-30" on="0"/>
        <pt x="355" y="89" on="0"/>
        <pt x="169" y="299" on="0"/>
        <pt x="72" y="586" on="0"/>
      </contour>
      <contour>
        <pt x="800" y="108" on="1"/>
        <pt x="903" y="108" on="0"/>
        <pt x="1050" y="196" on="0"/>
        <pt x="1145" y="369" on="0"/>
        <pt x="1189" y="623" on="0"/>
        <pt x="1189" y="788" on="1"/>
        <pt x="1189" y="863" on="0"/>
        <pt x="1169" y="1016" on="0"/>
        <pt x="1127" y="1158" on="0"/>
        <pt x="1063" y="1282" on="0"/>
        <pt x="976" y="1375" on="0"/>
        <pt x="865" y="1428" on="0"/>
        <pt x="798" y="1428" on="1"/>
        <pt x="694" y="1428" on="0"/>
        <pt x="541" y="1338" on="0"/>
        <pt x="440" y="1166" on="0"/>
        <pt x="391" y="915" on="0"/>
        <pt x="391" y="754" on="1"/>
        <pt x="391" y="683" on="0"/>
        <pt x="413" y="532" on="0"/>
        <pt x="457" y="389" on="0"/>
        <pt x="525" y="260" on="0"/>
        <pt x="615" y="164" on="0"/>
        <pt x="730" y="108" on="0"/>
      </contour>
    </TTGlyph>
    <TTGlyph name="R" xMin="72" yMin="0" xMax="1496" yMax="1567">
      <contour>
        <pt x="72" y="116" on="1"/>
        <pt x="252" y="154" on="1"/>
        <pt x="252" y="1387" on="1"/>
        <pt x="93" y="1408" on="1"/>
        <pt x="93" y="1553" on="1"/>
        <pt x="334" y="1553" on="1"/>
        <pt x="436" y="1553" on="0"/>
        <pt x="635" y="1567" on="0"/>
        <pt x="722" y="1567" on="1"/>
        <pt x="845" y="1567" on="0"/>
        <pt x="1053" y="1525" on="0"/>
        <pt x="1206" y="1429" on="0"/>
        <pt x="1292" y="1273" on="0"/>
        <pt x="1292" y="1158" on="1"/>
        <pt x="1292" y="988" on="0"/>
        <pt x="1120" y="758" on="0"/>
        <pt x="955" y="701" on="1"/>
        <pt x="1000" y="680" on="0"/>
        <pt x="1082" y="590" on="0"/>
        <pt x="1156" y="476" on="0"/>
        <pt x="1224" y="352" on="0"/>
        <pt x="1287" y="243" on="0"/>
        <pt x="1347" y="163" on="0"/>
        <pt x="1376" y="150" on="1"/>
        <pt x="1496" y="116" on="1"/>
        <pt x="1496" y="0" on="1"/>
        <pt x="1132" y="0" on="1"/>
        <pt x="1110" y="0" on="0"/>
        <pt x="1063" y="57" on="0"/>
        <pt x="1014" y="151" on="0"/>
        <pt x="961" y="270" on="0"/>
        <pt x="906" y="394" on="0"/>
        <pt x="846" y="513" on="0"/>
        <pt x="781" y="605" on="0"/>
        <pt x="712" y="660" on="0"/>
        <pt x="675" y="658" on="1"/>
        <pt x="537" y="656" on="1"/>
        <pt x="537" y="151" on="1"/>
        <pt x="735" y="116" on="1"/>
        <pt x="735" y="0" on="1"/>
        <pt x="72" y="0" on="1"/>
      </contour>
      <contour>
        <pt x="537" y="799" on="1"/>
        <pt x="555" y="796" on="0"/>
        <pt x="606" y="792" on="0"/>
        <pt x="660" y="791" on="0"/>
        <pt x="712" y="792" on="0"/>
        <pt x="733" y="794" on="1"/>
        <pt x="787" y="797" on="0"/>
        <pt x="887" y="832" on="0"/>
        <pt x="964" y="908" on="0"/>
        <pt x="1010" y="1034" on="0"/>
        <pt x="1010" y="1127" on="1"/>
        <pt x="1010" y="1188" on="0"/>
        <pt x="978" y="1299" on="0"/>
        <pt x="902" y="1382" on="0"/>
        <pt x="776" y="1429" on="0"/>
        <pt x="683" y="1428" on="1"/>
        <pt x="645" y="1427" on="0"/>
        <pt x="564" y="1424" on="0"/>
        <pt x="537" y="1414" on="1"/>
      </contour>
    </TTGlyph>
    <TTGlyph name="Racute" xMin="72" yMin="0" xMax="1496" yMax="1920">
      <contour>
        <pt x="604" y="1683" on="1"/>
        <pt x="960" y="1920" on="1"/>
        <pt x="1132" y="1747" on="1"/>
        <pt x="1103" y="1726" on="0"/>
        <pt x="1024" y="1689" on="0"/>
        <pt x="938" y="1658" on="0"/>
        <pt x="850" y="1632" on="0"/>
        <pt x="770" y="1613" on="0"/>
        <pt x="705" y="1601" on="0"/>
        <pt x="685" y="1599" on="1"/>
      </contour>
      <contour>
        <pt x="72" y="116" on="1"/>
        <pt x="252" y="154" on="1"/>
        <pt x="252" y="1387" on="1"/>
        <pt x="93" y="1408" on="1"/>
        <pt x="93" y="1553" on="1"/>
        <pt x="334" y="1553" on="1"/>
        <pt x="436" y="1553" on="0"/>
        <pt x="635" y="1567" on="0"/>
        <pt x="722" y="1567" on="1"/>
        <pt x="845" y="1567" on="0"/>
        <pt x="1053" y="1525" on="0"/>
        <pt x="1206" y="1429" on="0"/>
        <pt x="1292" y="1273" on="0"/>
        <pt x="1292" y="1158" on="1"/>
        <pt x="1292" y="988" on="0"/>
        <pt x="1120" y="758" on="0"/>
        <pt x="955" y="701" on="1"/>
        <pt x="1000" y="680" on="0"/>
        <pt x="1082" y="590" on="0"/>
        <pt x="1156" y="476" on="0"/>
        <pt x="1224" y="352" on="0"/>
        <pt x="1287" y="243" on="0"/>
        <pt x="1347" y="163" on="0"/>
        <pt x="1376" y="150" on="1"/>
        <pt x="1496" y="116" on="1"/>
        <pt x="1496" y="0" on="1"/>
        <pt x="1132" y="0" on="1"/>
        <pt x="1110" y="0" on="0"/>
        <pt x="1063" y="57" on="0"/>
        <pt x="1014" y="151" on="0"/>
        <pt x="961" y="270" on="0"/>
        <pt x="906" y="394" on="0"/>
        <pt x="846" y="513" on="0"/>
        <pt x="781" y="605" on="0"/>
        <pt x="712" y="660" on="0"/>
        <pt x="675" y="658" on="1"/>
        <pt x="537" y="656" on="1"/>
        <pt x="537" y="151" on="1"/>
        <pt x="735" y="116" on="1"/>
        <pt x="735" y="0" on="1"/>
        <pt x="72" y="0" on="1"/>
      </contour>
      <contour>
        <pt x="537" y="799" on="1"/>
        <pt x="555" y="796" on="0"/>
        <pt x="606" y="792" on="0"/>
        <pt x="660" y="791" on="0"/>
        <pt x="712" y="792" on="0"/>
        <pt x="733" y="794" on="1"/>
        <pt x="787" y="797" on="0"/>
        <pt x="887" y="832" on="0"/>
        <pt x="964" y="908" on="0"/>
        <pt x="1010" y="1034" on="0"/>
        <pt x="1010" y="1127" on="1"/>
        <pt x="1010" y="1188" on="0"/>
        <pt x="978" y="1299" on="0"/>
        <pt x="902" y="1382" on="0"/>
        <pt x="776" y="1429" on="0"/>
        <pt x="683" y="1428" on="1"/>
        <pt x="645" y="1427" on="0"/>
        <pt x="564" y="1424" on="0"/>
        <pt x="537" y="1414" on="1"/>
      </contour>
    </TTGlyph>
    <TTGlyph name="Rcaron" xMin="72" yMin="0" xMax="1496" yMax="1920">
      <contour>
        <pt x="349" y="1857" on="1"/>
        <pt x="450" y="1920" on="1"/>
        <pt x="716" y="1775" on="1"/>
        <pt x="990" y="1920" on="1"/>
        <pt x="1086" y="1859" on="1"/>
        <pt x="824" y="1605" on="1"/>
        <pt x="611" y="1605" on="1"/>
      </contour>
      <contour>
        <pt x="72" y="116" on="1"/>
        <pt x="252" y="154" on="1"/>
        <pt x="252" y="1387" on="1"/>
        <pt x="93" y="1408" on="1"/>
        <pt x="93" y="1553" on="1"/>
        <pt x="334" y="1553" on="1"/>
        <pt x="436" y="1553" on="0"/>
        <pt x="635" y="1567" on="0"/>
        <pt x="722" y="1567" on="1"/>
        <pt x="845" y="1567" on="0"/>
        <pt x="1053" y="1525" on="0"/>
        <pt x="1206" y="1429" on="0"/>
        <pt x="1292" y="1273" on="0"/>
        <pt x="1292" y="1158" on="1"/>
        <pt x="1292" y="988" on="0"/>
        <pt x="1120" y="758" on="0"/>
        <pt x="955" y="701" on="1"/>
        <pt x="1000" y="680" on="0"/>
        <pt x="1082" y="590" on="0"/>
        <pt x="1156" y="476" on="0"/>
        <pt x="1224" y="352" on="0"/>
        <pt x="1287" y="243" on="0"/>
        <pt x="1347" y="163" on="0"/>
        <pt x="1376" y="150" on="1"/>
        <pt x="1496" y="116" on="1"/>
        <pt x="1496" y="0" on="1"/>
        <pt x="1132" y="0" on="1"/>
        <pt x="1110" y="0" on="0"/>
        <pt x="1063" y="57" on="0"/>
        <pt x="1014" y="151" on="0"/>
        <pt x="961" y="270" on="0"/>
        <pt x="906" y="394" on="0"/>
        <pt x="846" y="513" on="0"/>
        <pt x="781" y="605" on="0"/>
        <pt x="712" y="660" on="0"/>
        <pt x="675" y="658" on="1"/>
        <pt x="537" y="656" on="1"/>
        <pt x="537" y="151" on="1"/>
        <pt x="735" y="116" on="1"/>
        <pt x="735" y="0" on="1"/>
        <pt x="72" y="0" on="1"/>
      </contour>
      <contour>
        <pt x="537" y="799" on="1"/>
        <pt x="555" y="796" on="0"/>
        <pt x="606" y="792" on="0"/>
        <pt x="660" y="791" on="0"/>
        <pt x="712" y="792" on="0"/>
        <pt x="733" y="794" on="1"/>
        <pt x="787" y="797" on="0"/>
        <pt x="887" y="832" on="0"/>
        <pt x="964" y="908" on="0"/>
        <pt x="1010" y="1034" on="0"/>
        <pt x="1010" y="1127" on="1"/>
        <pt x="1010" y="1188" on="0"/>
        <pt x="978" y="1299" on="0"/>
        <pt x="902" y="1382" on="0"/>
        <pt x="776" y="1429" on="0"/>
        <pt x="683" y="1428" on="1"/>
        <pt x="645" y="1427" on="0"/>
        <pt x="564" y="1424" on="0"/>
        <pt x="537" y="1414" on="1"/>
      </contour>
    </TTGlyph>
    <TTGlyph name="Rcommaaccent" xMin="72" yMin="-640" xMax="1496" yMax="1567">
      <contour>
        <pt x="72" y="116" on="1"/>
        <pt x="252" y="154" on="1"/>
        <pt x="252" y="1387" on="1"/>
        <pt x="93" y="1408" on="1"/>
        <pt x="93" y="1553" on="1"/>
        <pt x="334" y="1553" on="1"/>
        <pt x="436" y="1553" on="0"/>
        <pt x="635" y="1567" on="0"/>
        <pt x="722" y="1567" on="1"/>
        <pt x="845" y="1567" on="0"/>
        <pt x="1053" y="1525" on="0"/>
        <pt x="1206" y="1429" on="0"/>
        <pt x="1292" y="1273" on="0"/>
        <pt x="1292" y="1158" on="1"/>
        <pt x="1292" y="988" on="0"/>
        <pt x="1120" y="758" on="0"/>
        <pt x="955" y="701" on="1"/>
        <pt x="1000" y="680" on="0"/>
        <pt x="1082" y="590" on="0"/>
        <pt x="1156" y="476" on="0"/>
        <pt x="1224" y="352" on="0"/>
        <pt x="1287" y="243" on="0"/>
        <pt x="1347" y="163" on="0"/>
        <pt x="1376" y="150" on="1"/>
        <pt x="1496" y="116" on="1"/>
        <pt x="1496" y="0" on="1"/>
        <pt x="1132" y="0" on="1"/>
        <pt x="1110" y="0" on="0"/>
        <pt x="1063" y="57" on="0"/>
        <pt x="1014" y="151" on="0"/>
        <pt x="961" y="270" on="0"/>
        <pt x="906" y="394" on="0"/>
        <pt x="846" y="513" on="0"/>
        <pt x="781" y="605" on="0"/>
        <pt x="712" y="660" on="0"/>
        <pt x="675" y="658" on="1"/>
        <pt x="537" y="656" on="1"/>
        <pt x="537" y="151" on="1"/>
        <pt x="735" y="116" on="1"/>
        <pt x="735" y="0" on="1"/>
        <pt x="72" y="0" on="1"/>
      </contour>
      <contour>
        <pt x="537" y="799" on="1"/>
        <pt x="555" y="796" on="0"/>
        <pt x="606" y="792" on="0"/>
        <pt x="660" y="791" on="0"/>
        <pt x="712" y="792" on="0"/>
        <pt x="733" y="794" on="1"/>
        <pt x="787" y="797" on="0"/>
        <pt x="887" y="832" on="0"/>
        <pt x="964" y="908" on="0"/>
        <pt x="1010" y="1034" on="0"/>
        <pt x="1010" y="1127" on="1"/>
        <pt x="1010" y="1188" on="0"/>
        <pt x="978" y="1299" on="0"/>
        <pt x="902" y="1382" on="0"/>
        <pt x="776" y="1429" on="0"/>
        <pt x="683" y="1428" on="1"/>
        <pt x="645" y="1427" on="0"/>
        <pt x="564" y="1424" on="0"/>
        <pt x="537" y="1414" on="1"/>
      </contour>
      <contour>
        <pt x="802" y="-40" on="1"/>
        <pt x="854" y="-46" on="0"/>
        <pt x="942" y="-92" on="0"/>
        <pt x="1005" y="-164" on="0"/>
        <pt x="1040" y="-257" on="0"/>
        <pt x="1040" y="-310" on="1"/>
        <pt x="1040" y="-376" on="0"/>
        <pt x="985" y="-489" on="0"/>
        <pt x="906" y="-575" on="0"/>
        <pt x="819" y="-631" on="0"/>
        <pt x="788" y="-640" on="1"/>
        <pt x="691" y="-589" on="1"/>
        <pt x="691" y="-566" on="1"/>
        <pt x="710" y="-553" on="0"/>
        <pt x="745" y="-516" on="0"/>
        <pt x="772" y="-468" on="0"/>
        <pt x="789" y="-412" on="0"/>
        <pt x="789" y="-380" on="1"/>
        <pt x="789" y="-353" on="0"/>
        <pt x="768" y="-304" on="0"/>
        <pt x="735" y="-267" on="0"/>
        <pt x="694" y="-245" on="0"/>
        <pt x="674" y="-245" on="1"/>
        <pt x="674" y="-178" on="1"/>
      </contour>
    </TTGlyph>
    <TTGlyph name="S" xMin="144" yMin="-26" xMax="1199" yMax="1567">
      <contour>
        <pt x="144" y="432" on="1"/>
        <pt x="267" y="432" on="1"/>
        <pt x="347" y="209" on="1"/>
        <pt x="375" y="176" on="0"/>
        <pt x="446" y="135" on="0"/>
        <pt x="526" y="112" on="0"/>
        <pt x="610" y="105" on="0"/>
        <pt x="651" y="105" on="1"/>
        <pt x="697" y="105" on="0"/>
        <pt x="792" y="130" on="0"/>
        <pt x="869" y="187" on="0"/>
        <pt x="918" y="279" on="0"/>
        <pt x="918" y="346" on="1"/>
        <pt x="918" y="403" on="0"/>
        <pt x="856" y="496" on="0"/>
        <pt x="754" y="577" on="0"/>
        <pt x="622" y="652" on="0"/>
        <pt x="552" y="690" on="1"/>
        <pt x="477" y="731" on="0"/>
        <pt x="331" y="823" on="0"/>
        <pt x="216" y="934" on="0"/>
        <pt x="145" y="1071" on="0"/>
        <pt x="145" y="1158" on="1"/>
        <pt x="145" y="1227" on="0"/>
        <pt x="188" y="1342" on="0"/>
        <pt x="262" y="1433" on="0"/>
        <pt x="362" y="1500" on="0"/>
        <pt x="475" y="1545" on="0"/>
        <pt x="598" y="1567" on="0"/>
        <pt x="658" y="1567" on="1"/>
        <pt x="736" y="1567" on="0"/>
        <pt x="880" y="1552" on="0"/>
        <pt x="998" y="1530" on="0"/>
        <pt x="1082" y="1504" on="0"/>
        <pt x="1100" y="1493" on="1"/>
        <pt x="1100" y="1185" on="1"/>
        <pt x="970" y="1185" on="1"/>
        <pt x="883" y="1387" on="1"/>
        <pt x="873" y="1397" on="0"/>
        <pt x="829" y="1417" on="0"/>
        <pt x="771" y="1432" on="0"/>
        <pt x="704" y="1441" on="0"/>
        <pt x="671" y="1441" on="1"/>
        <pt x="631" y="1441" on="0"/>
        <pt x="541" y="1422" on="0"/>
        <pt x="465" y="1375" on="0"/>
        <pt x="415" y="1297" on="0"/>
        <pt x="415" y="1238" on="1"/>
        <pt x="415" y="1182" on="0"/>
        <pt x="466" y="1089" on="0"/>
        <pt x="551" y="1008" on="0"/>
        <pt x="664" y="938" on="0"/>
        <pt x="726" y="904" on="1"/>
        <pt x="781" y="874" on="0"/>
        <pt x="894" y="813" on="0"/>
        <pt x="999" y="745" on="0"/>
        <pt x="1091" y="669" on="0"/>
        <pt x="1160" y="580" on="0"/>
        <pt x="1199" y="474" on="0"/>
        <pt x="1199" y="411" on="1"/>
        <pt x="1199" y="308" on="0"/>
        <pt x="1116" y="146" on="0"/>
        <pt x="968" y="33" on="0"/>
        <pt x="762" y="-26" on="0"/>
        <pt x="638" y="-26" on="1"/>
        <pt x="566" y="-26" on="0"/>
        <pt x="417" y="-11" on="0"/>
        <pt x="284" y="14" on="0"/>
        <pt x="175" y="46" on="0"/>
        <pt x="144" y="63" on="1"/>
      </contour>
    </TTGlyph>
    <TTGlyph name="Scaron" xMin="139" yMin="-26" xMax="1194" yMax="1920">
      <contour>
        <pt x="277" y="1857" on="1"/>
        <pt x="378" y="1920" on="1"/>
        <pt x="644" y="1775" on="1"/>
        <pt x="917" y="1920" on="1"/>
        <pt x="1014" y="1859" on="1"/>
        <pt x="752" y="1605" on="1"/>
        <pt x="538" y="1605" on="1"/>
      </contour>
      <contour>
        <pt x="139" y="432" on="1"/>
        <pt x="262" y="432" on="1"/>
        <pt x="342" y="209" on="1"/>
        <pt x="370" y="176" on="0"/>
        <pt x="441" y="135" on="0"/>
        <pt x="521" y="112" on="0"/>
        <pt x="605" y="105" on="0"/>
        <pt x="646" y="105" on="1"/>
        <pt x="692" y="105" on="0"/>
        <pt x="786" y="130" on="0"/>
        <pt x="863" y="187" on="0"/>
        <pt x="912" y="279" on="0"/>
        <pt x="912" y="346" on="1"/>
        <pt x="912" y="403" on="0"/>
        <pt x="850" y="496" on="0"/>
        <pt x="748" y="577" on="0"/>
        <pt x="617" y="652" on="0"/>
        <pt x="547" y="690" on="1"/>
        <pt x="472" y="731" on="0"/>
        <pt x="326" y="823" on="0"/>
        <pt x="210" y="934" on="0"/>
        <pt x="140" y="1071" on="0"/>
        <pt x="140" y="1158" on="1"/>
        <pt x="140" y="1227" on="0"/>
        <pt x="183" y="1342" on="0"/>
        <pt x="256" y="1433" on="0"/>
        <pt x="356" y="1500" on="0"/>
        <pt x="470" y="1545" on="0"/>
        <pt x="593" y="1567" on="0"/>
        <pt x="653" y="1567" on="1"/>
        <pt x="731" y="1567" on="0"/>
        <pt x="875" y="1552" on="0"/>
        <pt x="992" y="1530" on="0"/>
        <pt x="1076" y="1504" on="0"/>
        <pt x="1095" y="1493" on="1"/>
        <pt x="1095" y="1185" on="1"/>
        <pt x="965" y="1185" on="1"/>
        <pt x="878" y="1387" on="1"/>
        <pt x="868" y="1397" on="0"/>
        <pt x="824" y="1417" on="0"/>
        <pt x="766" y="1432" on="0"/>
        <pt x="699" y="1441" on="0"/>
        <pt x="666" y="1441" on="1"/>
        <pt x="625" y="1441" on="0"/>
        <pt x="536" y="1422" on="0"/>
        <pt x="460" y="1375" on="0"/>
        <pt x="410" y="1297" on="0"/>
        <pt x="410" y="1238" on="1"/>
        <pt x="410" y="1182" on="0"/>
        <pt x="460" y="1089" on="0"/>
        <pt x="546" y="1008" on="0"/>
        <pt x="658" y="938" on="0"/>
        <pt x="720" y="904" on="1"/>
        <pt x="775" y="874" on="0"/>
        <pt x="888" y="813" on="0"/>
        <pt x="993" y="745" on="0"/>
        <pt x="1085" y="669" on="0"/>
        <pt x="1154" y="580" on="0"/>
        <pt x="1194" y="474" on="0"/>
        <pt x="1194" y="411" on="1"/>
        <pt x="1194" y="308" on="0"/>
        <pt x="1111" y="146" on="0"/>
        <pt x="963" y="33" on="0"/>
        <pt x="757" y="-26" on="0"/>
        <pt x="633" y="-26" on="1"/>
        <pt x="561" y="-26" on="0"/>
        <pt x="412" y="-11" on="0"/>
        <pt x="278" y="14" on="0"/>
        <pt x="170" y="46" on="0"/>
        <pt x="139" y="63" on="1"/>
      </contour>
    </TTGlyph>
    <TTGlyph name="T" xMin="40" yMin="0" xMax="1339" yMax="1553">
      <contour>
        <pt x="327" y="116" on="1"/>
        <pt x="564" y="152" on="1"/>
        <pt x="564" y="1410" on="1"/>
        <pt x="251" y="1386" on="1"/>
        <pt x="182" y="1190" on="1"/>
        <pt x="40" y="1184" on="1"/>
        <pt x="64" y="1553" on="1"/>
        <pt x="1339" y="1553" on="1"/>
        <pt x="1337" y="1189" on="1"/>
        <pt x="1221" y="1176" on="1"/>
        <pt x="1155" y="1386" on="1"/>
        <pt x="849" y="1410" on="1"/>
        <pt x="849" y="153" on="1"/>
        <pt x="1089" y="116" on="1"/>
        <pt x="1089" y="0" on="1"/>
        <pt x="327" y="0" on="1"/>
      </contour>
    </TTGlyph>
    <TTGlyph name="Thorn" xMin="57" yMin="0" xMax="1321" yMax="1553">
      <contour>
        <pt x="78" y="116" on="1"/>
        <pt x="252" y="154" on="1"/>
        <pt x="252" y="1397" on="1"/>
        <pt x="57" y="1418" on="1"/>
        <pt x="57" y="1553" on="1"/>
        <pt x="726" y="1553" on="1"/>
        <pt x="726" y="1418" on="1"/>
        <pt x="537" y="1396" on="1"/>
        <pt x="537" y="1219" on="1"/>
        <pt x="593" y="1226" on="0"/>
        <pt x="717" y="1239" on="0"/>
        <pt x="775" y="1239" on="1"/>
        <pt x="898" y="1239" on="0"/>
        <pt x="1099" y="1192" on="0"/>
        <pt x="1243" y="1090" on="0"/>
        <pt x="1321" y="932" on="0"/>
        <pt x="1321" y="821" on="1"/>
        <pt x="1321" y="698" on="0"/>
        <pt x="1232" y="509" on="0"/>
        <pt x="1075" y="381" on="0"/>
        <pt x="860" y="317" on="0"/>
        <pt x="733" y="318" on="1"/>
        <pt x="667" y="319" on="0"/>
        <pt x="568" y="322" on="0"/>
        <pt x="537" y="324" on="1"/>
        <pt x="537" y="153" on="1"/>
        <pt x="797" y="116" on="1"/>
        <pt x="797" y="0" on="1"/>
        <pt x="78" y="0" on="1"/>
      </contour>
      <contour>
        <pt x="537" y="463" on="1"/>
        <pt x="573" y="458" on="0"/>
        <pt x="664" y="455" on="0"/>
        <pt x="707" y="455" on="1"/>
        <pt x="774" y="455" on="0"/>
        <pt x="890" y="496" on="0"/>
        <pt x="976" y="582" on="0"/>
        <pt x="1026" y="715" on="0"/>
        <pt x="1026" y="807" on="1"/>
        <pt x="1026" y="882" on="0"/>
        <pt x="976" y="991" on="0"/>
        <pt x="885" y="1063" on="0"/>
        <pt x="757" y="1096" on="0"/>
        <pt x="680" y="1094" on="1"/>
        <pt x="629" y="1092" on="0"/>
        <pt x="564" y="1084" on="0"/>
        <pt x="537" y="1078" on="1"/>
      </contour>
    </TTGlyph>
    <TTGlyph name="U" xMin="37" yMin="-28" xMax="1567" yMax="1553">
      <contour>
        <pt x="193" y="641" on="1"/>
        <pt x="193" y="825" on="0"/>
        <pt x="194" y="1209" on="0"/>
        <pt x="195" y="1396" on="1"/>
        <pt x="37" y="1418" on="1"/>
        <pt x="37" y="1553" on="1"/>
        <pt x="654" y="1553" on="1"/>
        <pt x="654" y="1418" on="1"/>
        <pt x="481" y="1396" on="1"/>
        <pt x="481" y="630" on="1"/>
        <pt x="481" y="524" on="0"/>
        <pt x="510" y="366" on="0"/>
        <pt x="563" y="252" on="0"/>
        <pt x="636" y="177" on="0"/>
        <pt x="723" y="134" on="0"/>
        <pt x="821" y="117" on="0"/>
        <pt x="872" y="117" on="1"/>
        <pt x="956" y="117" on="0"/>
        <pt x="1088" y="181" on="0"/>
        <pt x="1178" y="317" on="0"/>
        <pt x="1225" y="528" on="0"/>
        <pt x="1225" y="675" on="1"/>
        <pt x="1223" y="1394" on="1"/>
        <pt x="1049" y="1418" on="1"/>
        <pt x="1049" y="1553" on="1"/>
        <pt x="1567" y="1553" on="1"/>
        <pt x="1567" y="1418" on="1"/>
        <pt x="1417" y="1394" on="1"/>
        <pt x="1417" y="676" on="1"/>
        <pt x="1417" y="478" on="0"/>
        <pt x="1325" y="209" on="0"/>
        <pt x="1166" y="44" on="0"/>
        <pt x="953" y="-28" on="0"/>
        <pt x="833" y="-28" on="1"/>
        <pt x="664" y="-28" on="0"/>
        <pt x="421" y="56" on="0"/>
        <pt x="265" y="223" on="0"/>
        <pt x="192" y="474" on="0"/>
      </contour>
    </TTGlyph>
    <TTGlyph name="Uacute" xMin="34" yMin="-28" xMax="1564" yMax="1920">
      <contour>
        <pt x="733" y="1683" on="1"/>
        <pt x="1089" y="1920" on="1"/>
        <pt x="1261" y="1747" on="1"/>
        <pt x="1231" y="1726" on="0"/>
        <pt x="1153" y="1689" on="0"/>
        <pt x="1067" y="1658" on="0"/>
        <pt x="979" y="1632" on="0"/>
        <pt x="899" y="1613" on="0"/>
        <pt x="834" y="1601" on="0"/>
        <pt x="814" y="1599" on="1"/>
      </contour>
      <contour>
        <pt x="190" y="641" on="1"/>
        <pt x="190" y="825" on="0"/>
        <pt x="192" y="1209" on="0"/>
        <pt x="193" y="1396" on="1"/>
        <pt x="34" y="1418" on="1"/>
        <pt x="34" y="1553" on="1"/>
        <pt x="652" y="1553" on="1"/>
        <pt x="652" y="1418" on="1"/>
        <pt x="478" y="1396" on="1"/>
        <pt x="478" y="630" on="1"/>
        <pt x="478" y="471" on="0"/>
        <pt x="543" y="271" on="0"/>
        <pt x="651" y="158" on="0"/>
        <pt x="792" y="117" on="0"/>
        <pt x="869" y="117" on="1"/>
        <pt x="953" y="117" on="0"/>
        <pt x="1085" y="181" on="0"/>
        <pt x="1175" y="317" on="0"/>
        <pt x="1222" y="528" on="0"/>
        <pt x="1222" y="675" on="1"/>
        <pt x="1221" y="1394" on="1"/>
        <pt x="1047" y="1418" on="1"/>
        <pt x="1047" y="1553" on="1"/>
        <pt x="1564" y="1553" on="1"/>
        <pt x="1564" y="1418" on="1"/>
        <pt x="1414" y="1394" on="1"/>
        <pt x="1414" y="676" on="1"/>
        <pt x="1414" y="478" on="0"/>
        <pt x="1322" y="209" on="0"/>
        <pt x="1163" y="44" on="0"/>
        <pt x="950" y="-28" on="0"/>
        <pt x="830" y="-28" on="1"/>
        <pt x="661" y="-28" on="0"/>
        <pt x="418" y="56" on="0"/>
        <pt x="262" y="223" on="0"/>
        <pt x="189" y="474" on="0"/>
      </contour>
    </TTGlyph>
    <TTGlyph name="Ucircumflex" xMin="34" yMin="-28" xMax="1564" yMax="1920">
      <contour>
        <pt x="475" y="1667" on="1"/>
        <pt x="741" y="1920" on="1"/>
        <pt x="954" y="1920" on="1"/>
        <pt x="1218" y="1668" on="1"/>
        <pt x="1117" y="1605" on="1"/>
        <pt x="849" y="1751" on="1"/>
        <pt x="572" y="1605" on="1"/>
      </contour>
      <contour>
        <pt x="190" y="641" on="1"/>
        <pt x="190" y="825" on="0"/>
        <pt x="192" y="1209" on="0"/>
        <pt x="193" y="1396" on="1"/>
        <pt x="34" y="1418" on="1"/>
        <pt x="34" y="1553" on="1"/>
        <pt x="652" y="1553" on="1"/>
        <pt x="652" y="1418" on="1"/>
        <pt x="478" y="1396" on="1"/>
        <pt x="478" y="630" on="1"/>
        <pt x="478" y="471" on="0"/>
        <pt x="543" y="271" on="0"/>
        <pt x="651" y="158" on="0"/>
        <pt x="792" y="117" on="0"/>
        <pt x="869" y="117" on="1"/>
        <pt x="953" y="117" on="0"/>
        <pt x="1085" y="181" on="0"/>
        <pt x="1175" y="317" on="0"/>
        <pt x="1222" y="528" on="0"/>
        <pt x="1222" y="675" on="1"/>
        <pt x="1221" y="1394" on="1"/>
        <pt x="1047" y="1418" on="1"/>
        <pt x="1047" y="1553" on="1"/>
        <pt x="1564" y="1553" on="1"/>
        <pt x="1564" y="1418" on="1"/>
        <pt x="1414" y="1394" on="1"/>
        <pt x="1414" y="676" on="1"/>
        <pt x="1414" y="478" on="0"/>
        <pt x="1322" y="209" on="0"/>
        <pt x="1163" y="44" on="0"/>
        <pt x="950" y="-28" on="0"/>
        <pt x="830" y="-28" on="1"/>
        <pt x="661" y="-28" on="0"/>
        <pt x="418" y="56" on="0"/>
        <pt x="262" y="223" on="0"/>
        <pt x="189" y="474" on="0"/>
      </contour>
    </TTGlyph>
    <TTGlyph name="Udieresis" xMin="34" yMin="-28" xMax="1564" yMax="1920">
      <contour>
        <pt x="1089" y="1633" on="1"/>
        <pt x="1059" y="1633" on="0"/>
        <pt x="1002" y="1651" on="0"/>
        <pt x="958" y="1685" on="0"/>
        <pt x="932" y="1734" on="0"/>
        <pt x="932" y="1766" on="1"/>
        <pt x="932" y="1799" on="0"/>
        <pt x="964" y="1855" on="0"/>
        <pt x="1016" y="1897" on="0"/>
        <pt x="1081" y="1920" on="0"/>
        <pt x="1114" y="1920" on="1"/>
        <pt x="1156" y="1920" on="0"/>
        <pt x="1215" y="1900" on="0"/>
        <pt x="1253" y="1864" on="0"/>
        <pt x="1270" y="1816" on="0"/>
        <pt x="1270" y="1788" on="1"/>
        <pt x="1270" y="1752" on="0"/>
        <pt x="1240" y="1695" on="0"/>
        <pt x="1189" y="1655" on="0"/>
        <pt x="1124" y="1633" on="0"/>
      </contour>
      <contour>
        <pt x="577" y="1632" on="1"/>
        <pt x="546" y="1632" on="0"/>
        <pt x="490" y="1650" on="0"/>
        <pt x="447" y="1683" on="0"/>
        <pt x="422" y="1732" on="0"/>
        <pt x="422" y="1764" on="1"/>
        <pt x="422" y="1798" on="0"/>
        <pt x="453" y="1855" on="0"/>
        <pt x="504" y="1897" on="0"/>
        <pt x="569" y="1920" on="0"/>
        <pt x="603" y="1920" on="1"/>
        <pt x="645" y="1920" on="0"/>
        <pt x="705" y="1899" on="0"/>
        <pt x="744" y="1863" on="0"/>
        <pt x="762" y="1815" on="0"/>
        <pt x="762" y="1787" on="1"/>
        <pt x="762" y="1752" on="0"/>
        <pt x="731" y="1694" on="0"/>
        <pt x="679" y="1654" on="0"/>
        <pt x="613" y="1632" on="0"/>
      </contour>
      <contour>
        <pt x="190" y="641" on="1"/>
        <pt x="190" y="825" on="0"/>
        <pt x="192" y="1209" on="0"/>
        <pt x="193" y="1396" on="1"/>
        <pt x="34" y="1418" on="1"/>
        <pt x="34" y="1553" on="1"/>
        <pt x="652" y="1553" on="1"/>
        <pt x="652" y="1418" on="1"/>
        <pt x="478" y="1396" on="1"/>
        <pt x="478" y="630" on="1"/>
        <pt x="478" y="471" on="0"/>
        <pt x="543" y="271" on="0"/>
        <pt x="651" y="158" on="0"/>
        <pt x="792" y="117" on="0"/>
        <pt x="869" y="117" on="1"/>
        <pt x="953" y="117" on="0"/>
        <pt x="1085" y="181" on="0"/>
        <pt x="1175" y="317" on="0"/>
        <pt x="1222" y="528" on="0"/>
        <pt x="1222" y="675" on="1"/>
        <pt x="1221" y="1394" on="1"/>
        <pt x="1047" y="1418" on="1"/>
        <pt x="1047" y="1553" on="1"/>
        <pt x="1564" y="1553" on="1"/>
        <pt x="1564" y="1418" on="1"/>
        <pt x="1414" y="1394" on="1"/>
        <pt x="1414" y="676" on="1"/>
        <pt x="1414" y="478" on="0"/>
        <pt x="1322" y="209" on="0"/>
        <pt x="1163" y="44" on="0"/>
        <pt x="950" y="-28" on="0"/>
        <pt x="830" y="-28" on="1"/>
        <pt x="661" y="-28" on="0"/>
        <pt x="418" y="56" on="0"/>
        <pt x="262" y="223" on="0"/>
        <pt x="189" y="474" on="0"/>
      </contour>
    </TTGlyph>
    <TTGlyph name="Ugrave" xMin="34" yMin="-28" xMax="1564" yMax="1920">
      <contour>
        <pt x="612" y="1920" on="1"/>
        <pt x="956" y="1683" on="1"/>
        <pt x="875" y="1599" on="1"/>
        <pt x="845" y="1602" on="0"/>
        <pt x="735" y="1626" on="0"/>
        <pt x="608" y="1664" on="0"/>
        <pt x="483" y="1716" on="0"/>
        <pt x="439" y="1747" on="1"/>
      </contour>
      <contour>
        <pt x="190" y="641" on="1"/>
        <pt x="190" y="825" on="0"/>
        <pt x="192" y="1209" on="0"/>
        <pt x="193" y="1396" on="1"/>
        <pt x="34" y="1418" on="1"/>
        <pt x="34" y="1553" on="1"/>
        <pt x="652" y="1553" on="1"/>
        <pt x="652" y="1418" on="1"/>
        <pt x="478" y="1396" on="1"/>
        <pt x="478" y="630" on="1"/>
        <pt x="478" y="471" on="0"/>
        <pt x="543" y="271" on="0"/>
        <pt x="651" y="158" on="0"/>
        <pt x="792" y="117" on="0"/>
        <pt x="869" y="117" on="1"/>
        <pt x="953" y="117" on="0"/>
        <pt x="1085" y="181" on="0"/>
        <pt x="1175" y="317" on="0"/>
        <pt x="1222" y="528" on="0"/>
        <pt x="1222" y="675" on="1"/>
        <pt x="1221" y="1394" on="1"/>
        <pt x="1047" y="1418" on="1"/>
        <pt x="1047" y="1553" on="1"/>
        <pt x="1564" y="1553" on="1"/>
        <pt x="1564" y="1418" on="1"/>
        <pt x="1414" y="1394" on="1"/>
        <pt x="1414" y="676" on="1"/>
        <pt x="1414" y="478" on="0"/>
        <pt x="1322" y="209" on="0"/>
        <pt x="1163" y="44" on="0"/>
        <pt x="950" y="-28" on="0"/>
        <pt x="830" y="-28" on="1"/>
        <pt x="661" y="-28" on="0"/>
        <pt x="418" y="56" on="0"/>
        <pt x="262" y="223" on="0"/>
        <pt x="189" y="474" on="0"/>
      </contour>
    </TTGlyph>
    <TTGlyph name="V" xMin="10" yMin="-17" xMax="1454" yMax="1553">
      <contour>
        <pt x="134" y="1399" on="1"/>
        <pt x="10" y="1418" on="1"/>
        <pt x="10" y="1553" on="1"/>
        <pt x="620" y="1553" on="1"/>
        <pt x="620" y="1419" on="1"/>
        <pt x="450" y="1397" on="1"/>
        <pt x="719" y="526" on="1"/>
        <pt x="785" y="279" on="1"/>
        <pt x="846" y="524" on="1"/>
        <pt x="1091" y="1398" on="1"/>
        <pt x="932" y="1418" on="1"/>
        <pt x="932" y="1552" on="1"/>
        <pt x="1454" y="1552" on="1"/>
        <pt x="1454" y="1418" on="1"/>
        <pt x="1333" y="1399" on="1"/>
        <pt x="866" y="-17" on="1"/>
        <pt x="646" y="-17" on="1"/>
      </contour>
    </TTGlyph>
    <TTGlyph name="W" xMin="11" yMin="-18" xMax="2192" yMax="1553">
      <contour>
        <pt x="138" y="1398" on="1"/>
        <pt x="11" y="1417" on="1"/>
        <pt x="11" y="1553" on="1"/>
        <pt x="597" y="1553" on="1"/>
        <pt x="597" y="1418" on="1"/>
        <pt x="448" y="1398" on="1"/>
        <pt x="716" y="428" on="1"/>
        <pt x="727" y="382" on="0"/>
        <pt x="749" y="290" on="0"/>
        <pt x="761" y="244" on="1"/>
        <pt x="807" y="423" on="1"/>
        <pt x="1006" y="1229" on="1"/>
        <pt x="959" y="1399" on="1"/>
        <pt x="816" y="1417" on="1"/>
        <pt x="816" y="1553" on="1"/>
        <pt x="1418" y="1553" on="1"/>
        <pt x="1418" y="1418" on="1"/>
        <pt x="1251" y="1397" on="1"/>
        <pt x="1484" y="420" on="1"/>
        <pt x="1525" y="239" on="1"/>
        <pt x="1572" y="436" on="1"/>
        <pt x="1811" y="1398" on="1"/>
        <pt x="1651" y="1417" on="1"/>
        <pt x="1651" y="1553" on="1"/>
        <pt x="2192" y="1553" on="1"/>
        <pt x="2192" y="1417" on="1"/>
        <pt x="2043" y="1400" on="1"/>
        <pt x="1622" y="-18" on="1"/>
        <pt x="1359" y="-18" on="1"/>
        <pt x="1105" y="881" on="1"/>
        <pt x="856" y="-17" on="1"/>
        <pt x="603" y="-17" on="1"/>
      </contour>
    </TTGlyph>
    <TTGlyph name="X" xMin="20" yMin="0" xMax="1484" yMax="1553">
      <contour>
        <pt x="20" y="115" on="1"/>
        <pt x="196" y="153" on="1"/>
        <pt x="616" y="762" on="1"/>
        <pt x="191" y="1397" on="1"/>
        <pt x="36" y="1418" on="1"/>
        <pt x="36" y="1553" on="1"/>
        <pt x="679" y="1553" on="1"/>
        <pt x="679" y="1419" on="1"/>
        <pt x="520" y="1398" on="1"/>
        <pt x="776" y="943" on="1"/>
        <pt x="1049" y="1399" on="1"/>
        <pt x="905" y="1418" on="1"/>
        <pt x="905" y="1553" on="1"/>
        <pt x="1464" y="1553" on="1"/>
        <pt x="1464" y="1418" on="1"/>
        <pt x="1294" y="1398" on="1"/>
        <pt x="874" y="820" on="1"/>
        <pt x="1320" y="154" on="1"/>
        <pt x="1484" y="115" on="1"/>
        <pt x="1484" y="0" on="1"/>
        <pt x="837" y="0" on="1"/>
        <pt x="837" y="114" on="1"/>
        <pt x="998" y="151" on="1"/>
        <pt x="716" y="623" on="1"/>
        <pt x="447" y="154" on="1"/>
        <pt x="637" y="115" on="1"/>
        <pt x="637" y="0" on="1"/>
        <pt x="20" y="0" on="1"/>
      </contour>
    </TTGlyph>
    <TTGlyph name="Y" xMin="13" yMin="0" xMax="1412" yMax="1553">
      <contour>
        <pt x="372" y="116" on="1"/>
        <pt x="596" y="155" on="1"/>
        <pt x="596" y="566" on="1"/>
        <pt x="125" y="1399" on="1"/>
        <pt x="13" y="1418" on="1"/>
        <pt x="13" y="1553" on="1"/>
        <pt x="583" y="1553" on="1"/>
        <pt x="583" y="1419" on="1"/>
        <pt x="458" y="1399" on="1"/>
        <pt x="737" y="843" on="1"/>
        <pt x="773" y="741" on="1"/>
        <pt x="812" y="849" on="1"/>
        <pt x="1056" y="1395" on="1"/>
        <pt x="894" y="1418" on="1"/>
        <pt x="894" y="1452" on="0"/>
        <pt x="893" y="1519" on="0"/>
        <pt x="893" y="1553" on="1"/>
        <pt x="1412" y="1553" on="1"/>
        <pt x="1412" y="1418" on="1"/>
        <pt x="1280" y="1384" on="1"/>
        <pt x="883" y="584" on="1"/>
        <pt x="883" y="157" on="1"/>
        <pt x="1128" y="116" on="1"/>
        <pt x="1128" y="0" on="1"/>
        <pt x="372" y="0" on="1"/>
      </contour>
    </TTGlyph>
    <TTGlyph name="Yacute" xMin="10" yMin="0" xMax="1409" yMax="1920">
      <contour>
        <pt x="627" y="1683" on="1"/>
        <pt x="982" y="1920" on="1"/>
        <pt x="1155" y="1747" on="1"/>
        <pt x="1125" y="1726" on="0"/>
        <pt x="1047" y="1689" on="0"/>
        <pt x="961" y="1658" on="0"/>
        <pt x="872" y="1632" on="0"/>
        <pt x="792" y="1613" on="0"/>
        <pt x="727" y="1601" on="0"/>
        <pt x="707" y="1599" on="1"/>
      </contour>
      <contour>
        <pt x="369" y="116" on="1"/>
        <pt x="594" y="156" on="1"/>
        <pt x="594" y="564" on="1"/>
        <pt x="122" y="1399" on="1"/>
        <pt x="10" y="1418" on="1"/>
        <pt x="10" y="1553" on="1"/>
        <pt x="580" y="1553" on="1"/>
        <pt x="580" y="1419" on="1"/>
        <pt x="455" y="1399" on="1"/>
        <pt x="734" y="843" on="1"/>
        <pt x="770" y="741" on="1"/>
        <pt x="809" y="849" on="1"/>
        <pt x="1053" y="1395" on="1"/>
        <pt x="891" y="1418" on="1"/>
        <pt x="891" y="1452" on="0"/>
        <pt x="890" y="1519" on="0"/>
        <pt x="890" y="1553" on="1"/>
        <pt x="1409" y="1553" on="1"/>
        <pt x="1409" y="1418" on="1"/>
        <pt x="1277" y="1384" on="1"/>
        <pt x="880" y="584" on="1"/>
        <pt x="880" y="157" on="1"/>
        <pt x="1125" y="116" on="1"/>
        <pt x="1125" y="0" on="1"/>
        <pt x="369" y="0" on="1"/>
      </contour>
    </TTGlyph>
    <TTGlyph name="Ydieresis" xMin="10" yMin="0" xMax="1409" yMax="1920">
      <contour>
        <pt x="983" y="1633" on="1"/>
        <pt x="953" y="1633" on="0"/>
        <pt x="896" y="1651" on="0"/>
        <pt x="852" y="1685" on="0"/>
        <pt x="826" y="1734" on="0"/>
        <pt x="826" y="1766" on="1"/>
        <pt x="826" y="1799" on="0"/>
        <pt x="858" y="1855" on="0"/>
        <pt x="910" y="1897" on="0"/>
        <pt x="975" y="1920" on="0"/>
        <pt x="1008" y="1920" on="1"/>
        <pt x="1050" y="1920" on="0"/>
        <pt x="1108" y="1900" on="0"/>
        <pt x="1146" y="1864" on="0"/>
        <pt x="1163" y="1816" on="0"/>
        <pt x="1163" y="1788" on="1"/>
        <pt x="1163" y="1752" on="0"/>
        <pt x="1133" y="1695" on="0"/>
        <pt x="1083" y="1655" on="0"/>
        <pt x="1018" y="1633" on="0"/>
      </contour>
      <contour>
        <pt x="470" y="1632" on="1"/>
        <pt x="439" y="1632" on="0"/>
        <pt x="383" y="1650" on="0"/>
        <pt x="340" y="1683" on="0"/>
        <pt x="315" y="1732" on="0"/>
        <pt x="315" y="1764" on="1"/>
        <pt x="315" y="1798" on="0"/>
        <pt x="347" y="1855" on="0"/>
        <pt x="398" y="1897" on="0"/>
        <pt x="463" y="1920" on="0"/>
        <pt x="496" y="1920" on="1"/>
        <pt x="538" y="1920" on="0"/>
        <pt x="598" y="1899" on="0"/>
        <pt x="637" y="1863" on="0"/>
        <pt x="655" y="1815" on="0"/>
        <pt x="655" y="1787" on="1"/>
        <pt x="655" y="1752" on="0"/>
        <pt x="624" y="1694" on="0"/>
        <pt x="572" y="1654" on="0"/>
        <pt x="506" y="1632" on="0"/>
      </contour>
      <contour>
        <pt x="369" y="116" on="1"/>
        <pt x="594" y="156" on="1"/>
        <pt x="594" y="564" on="1"/>
        <pt x="122" y="1399" on="1"/>
        <pt x="10" y="1418" on="1"/>
        <pt x="10" y="1553" on="1"/>
        <pt x="580" y="1553" on="1"/>
        <pt x="580" y="1419" on="1"/>
        <pt x="455" y="1399" on="1"/>
        <pt x="734" y="843" on="1"/>
        <pt x="770" y="741" on="1"/>
        <pt x="809" y="849" on="1"/>
        <pt x="1053" y="1395" on="1"/>
        <pt x="891" y="1418" on="1"/>
        <pt x="891" y="1452" on="0"/>
        <pt x="890" y="1519" on="0"/>
        <pt x="890" y="1553" on="1"/>
        <pt x="1409" y="1553" on="1"/>
        <pt x="1409" y="1418" on="1"/>
        <pt x="1277" y="1384" on="1"/>
        <pt x="880" y="584" on="1"/>
        <pt x="880" y="157" on="1"/>
        <pt x="1125" y="116" on="1"/>
        <pt x="1125" y="0" on="1"/>
        <pt x="369" y="0" on="1"/>
      </contour>
    </TTGlyph>
    <TTGlyph name="Z" xMin="69" yMin="0" xMax="1342" yMax="1553">
      <contour>
        <pt x="69" y="117" on="1"/>
        <pt x="864" y="1260" on="1"/>
        <pt x="1003" y="1415" on="1"/>
        <pt x="369" y="1379" on="1"/>
        <pt x="255" y="1141" on="1"/>
        <pt x="122" y="1166" on="1"/>
        <pt x="161" y="1553" on="1"/>
        <pt x="1277" y="1553" on="1"/>
        <pt x="1315" y="1429" on="1"/>
        <pt x="529" y="288" on="1"/>
        <pt x="405" y="141" on="1"/>
        <pt x="1046" y="184" on="1"/>
        <pt x="1215" y="445" on="1"/>
        <pt x="1342" y="412" on="1"/>
        <pt x="1249" y="0" on="1"/>
        <pt x="104" y="0" on="1"/>
      </contour>
    </TTGlyph>
    <TTGlyph name="Zacute" xMin="67" yMin="0" xMax="1339" yMax="1920">
      <contour>
        <pt x="604" y="1683" on="1"/>
        <pt x="959" y="1920" on="1"/>
        <pt x="1132" y="1747" on="1"/>
        <pt x="1088" y="1716" on="0"/>
        <pt x="959" y="1664" on="0"/>
        <pt x="828" y="1626" on="0"/>
        <pt x="714" y="1602" on="0"/>
        <pt x="684" y="1599" on="1"/>
      </contour>
      <contour>
        <pt x="67" y="117" on="1"/>
        <pt x="861" y="1260" on="1"/>
        <pt x="1000" y="1415" on="1"/>
        <pt x="366" y="1379" on="1"/>
        <pt x="253" y="1141" on="1"/>
        <pt x="120" y="1166" on="1"/>
        <pt x="158" y="1553" on="1"/>
        <pt x="1274" y="1553" on="1"/>
        <pt x="1313" y="1429" on="1"/>
        <pt x="527" y="288" on="1"/>
        <pt x="402" y="141" on="1"/>
        <pt x="1043" y="184" on="1"/>
        <pt x="1212" y="445" on="1"/>
        <pt x="1339" y="412" on="1"/>
        <pt x="1246" y="0" on="1"/>
        <pt x="101" y="0" on="1"/>
      </contour>
    </TTGlyph>
    <TTGlyph name="Zcaron" xMin="67" yMin="0" xMax="1339" yMax="1920">
      <contour>
        <pt x="349" y="1857" on="1"/>
        <pt x="450" y="1920" on="1"/>
        <pt x="716" y="1775" on="1"/>
        <pt x="989" y="1920" on="1"/>
        <pt x="1086" y="1859" on="1"/>
        <pt x="824" y="1605" on="1"/>
        <pt x="610" y="1605" on="1"/>
      </contour>
      <contour>
        <pt x="67" y="117" on="1"/>
        <pt x="861" y="1260" on="1"/>
        <pt x="1000" y="1415" on="1"/>
        <pt x="366" y="1379" on="1"/>
        <pt x="253" y="1141" on="1"/>
        <pt x="120" y="1166" on="1"/>
        <pt x="158" y="1553" on="1"/>
        <pt x="1274" y="1553" on="1"/>
        <pt x="1313" y="1429" on="1"/>
        <pt x="527" y="288" on="1"/>
        <pt x="402" y="141" on="1"/>
        <pt x="1043" y="184" on="1"/>
        <pt x="1212" y="445" on="1"/>
        <pt x="1339" y="412" on="1"/>
        <pt x="1246" y="0" on="1"/>
        <pt x="101" y="0" on="1"/>
      </contour>
    </TTGlyph>
    <TTGlyph name="Zdotaccent" xMin="67" yMin="0" xMax="1339" yMax="1920">
      <contour>
        <pt x="699" y="1633" on="1"/>
        <pt x="669" y="1633" on="0"/>
        <pt x="612" y="1651" on="0"/>
        <pt x="568" y="1685" on="0"/>
        <pt x="542" y="1734" on="0"/>
        <pt x="542" y="1766" on="1"/>
        <pt x="542" y="1799" on="0"/>
        <pt x="574" y="1855" on="0"/>
        <pt x="626" y="1897" on="0"/>
        <pt x="691" y="1920" on="0"/>
        <pt x="724" y="1920" on="1"/>
        <pt x="766" y="1920" on="0"/>
        <pt x="825" y="1900" on="0"/>
        <pt x="863" y="1864" on="0"/>
        <pt x="880" y="1816" on="0"/>
        <pt x="880" y="1788" on="1"/>
        <pt x="880" y="1752" on="0"/>
        <pt x="850" y="1695" on="0"/>
        <pt x="799" y="1655" on="0"/>
        <pt x="734" y="1633" on="0"/>
      </contour>
      <contour>
        <pt x="67" y="117" on="1"/>
        <pt x="861" y="1260" on="1"/>
        <pt x="1000" y="1415" on="1"/>
        <pt x="366" y="1379" on="1"/>
        <pt x="253" y="1141" on="1"/>
        <pt x="120" y="1166" on="1"/>
        <pt x="158" y="1553" on="1"/>
        <pt x="1274" y="1553" on="1"/>
        <pt x="1313" y="1429" on="1"/>
        <pt x="527" y="288" on="1"/>
        <pt x="402" y="141" on="1"/>
        <pt x="1043" y="184" on="1"/>
        <pt x="1212" y="445" on="1"/>
        <pt x="1339" y="412" on="1"/>
        <pt x="1246" y="0" on="1"/>
        <pt x="101" y="0" on="1"/>
      </contour>
    </TTGlyph>
    <TTGlyph name="a" xMin="88" yMin="-26" xMax="1150" yMax="1146">
      <contour>
        <pt x="88" y="363" on="1"/>
        <pt x="99" y="426" on="0"/>
        <pt x="177" y="523" on="0"/>
        <pt x="289" y="595" on="0"/>
        <pt x="425" y="644" on="0"/>
        <pt x="561" y="673" on="0"/>
        <pt x="689" y="686" on="0"/>
        <pt x="737" y="686" on="1"/>
        <pt x="737" y="724" on="1"/>
        <pt x="737" y="803" on="0"/>
        <pt x="703" y="903" on="0"/>
        <pt x="640" y="960" on="0"/>
        <pt x="552" y="980" on="0"/>
        <pt x="498" y="980" on="1"/>
        <pt x="448" y="980" on="0"/>
        <pt x="354" y="963" on="0"/>
        <pt x="272" y="939" on="0"/>
        <pt x="206" y="910" on="0"/>
        <pt x="184" y="898" on="1"/>
        <pt x="130" y="1025" on="1"/>
        <pt x="155" y="1046" on="0"/>
        <pt x="248" y="1089" on="0"/>
        <pt x="370" y="1124" on="0"/>
        <pt x="514" y="1146" on="0"/>
        <pt x="591" y="1146" on="1"/>
        <pt x="682" y="1146" on="0"/>
        <pt x="840" y="1111" on="0"/>
        <pt x="956" y="1022" on="0"/>
        <pt x="1022" y="871" on="0"/>
        <pt x="1022" y="754" on="1"/>
        <pt x="1021" y="114" on="1"/>
        <pt x="1150" y="114" on="1"/>
        <pt x="1150" y="25" on="1"/>
        <pt x="1128" y="11" on="0"/>
        <pt x="1072" y="-9" on="0"/>
        <pt x="1011" y="-21" on="0"/>
        <pt x="949" y="-26" on="0"/>
        <pt x="921" y="-26" on="1"/>
        <pt x="902" y="-26" on="0"/>
        <pt x="850" y="-19" on="0"/>
        <pt x="802" y="4" on="0"/>
        <pt x="768" y="49" on="0"/>
        <pt x="768" y="87" on="1"/>
        <pt x="768" y="96" on="1"/>
        <pt x="717" y="45" on="0"/>
        <pt x="567" y="-26" on="0"/>
        <pt x="460" y="-26" on="1"/>
        <pt x="352" y="-26" on="0"/>
        <pt x="198" y="38" on="0"/>
        <pt x="105" y="146" on="0"/>
        <pt x="74" y="286" on="0"/>
      </contour>
      <contour>
        <pt x="368" y="328" on="1"/>
        <pt x="368" y="221" on="0"/>
        <pt x="484" y="131" on="0"/>
        <pt x="593" y="139" on="1"/>
        <pt x="636" y="143" on="0"/>
        <pt x="707" y="182" on="0"/>
        <pt x="736" y="205" on="1"/>
        <pt x="736" y="293" on="0"/>
        <pt x="737" y="467" on="0"/>
        <pt x="737" y="555" on="1"/>
        <pt x="701" y="555" on="0"/>
        <pt x="618" y="547" on="0"/>
        <pt x="536" y="527" on="0"/>
        <pt x="461" y="493" on="0"/>
        <pt x="403" y="443" on="0"/>
        <pt x="368" y="374" on="0"/>
      </contour>
    </TTGlyph>
    <TTGlyph name="aacute" xMin="88" yMin="-26" xMax="1150" yMax="1820">
      <contour>
        <pt x="442" y="1412" on="1"/>
        <pt x="748" y="1820" on="1"/>
        <pt x="955" y="1645" on="1"/>
        <pt x="922" y="1593" on="0"/>
        <pt x="816" y="1499" on="0"/>
        <pt x="695" y="1419" on="0"/>
        <pt x="569" y="1357" on="0"/>
        <pt x="515" y="1338" on="1"/>
      </contour>
      <contour>
        <pt x="88" y="363" on="1"/>
        <pt x="99" y="426" on="0"/>
        <pt x="177" y="523" on="0"/>
        <pt x="289" y="595" on="0"/>
        <pt x="425" y="644" on="0"/>
        <pt x="561" y="673" on="0"/>
        <pt x="689" y="686" on="0"/>
        <pt x="737" y="686" on="1"/>
        <pt x="737" y="724" on="1"/>
        <pt x="737" y="803" on="0"/>
        <pt x="703" y="903" on="0"/>
        <pt x="640" y="960" on="0"/>
        <pt x="552" y="980" on="0"/>
        <pt x="498" y="980" on="1"/>
        <pt x="448" y="980" on="0"/>
        <pt x="354" y="963" on="0"/>
        <pt x="272" y="939" on="0"/>
        <pt x="206" y="910" on="0"/>
        <pt x="184" y="898" on="1"/>
        <pt x="130" y="1025" on="1"/>
        <pt x="155" y="1046" on="0"/>
        <pt x="248" y="1089" on="0"/>
        <pt x="370" y="1124" on="0"/>
        <pt x="514" y="1146" on="0"/>
        <pt x="591" y="1146" on="1"/>
        <pt x="682" y="1146" on="0"/>
        <pt x="840" y="1111" on="0"/>
        <pt x="956" y="1022" on="0"/>
        <pt x="1022" y="871" on="0"/>
        <pt x="1022" y="754" on="1"/>
        <pt x="1021" y="114" on="1"/>
        <pt x="1150" y="114" on="1"/>
        <pt x="1150" y="25" on="1"/>
        <pt x="1128" y="11" on="0"/>
        <pt x="1072" y="-9" on="0"/>
        <pt x="1011" y="-21" on="0"/>
        <pt x="949" y="-26" on="0"/>
        <pt x="921" y="-26" on="1"/>
        <pt x="902" y="-26" on="0"/>
        <pt x="850" y="-19" on="0"/>
        <pt x="802" y="4" on="0"/>
        <pt x="768" y="49" on="0"/>
        <pt x="768" y="87" on="1"/>
        <pt x="768" y="96" on="1"/>
        <pt x="717" y="45" on="0"/>
        <pt x="567" y="-26" on="0"/>
        <pt x="460" y="-26" on="1"/>
        <pt x="352" y="-26" on="0"/>
        <pt x="198" y="38" on="0"/>
        <pt x="105" y="146" on="0"/>
        <pt x="74" y="286" on="0"/>
      </contour>
      <contour>
        <pt x="368" y="328" on="1"/>
        <pt x="368" y="221" on="0"/>
        <pt x="484" y="131" on="0"/>
        <pt x="593" y="139" on="1"/>
        <pt x="636" y="143" on="0"/>
        <pt x="707" y="182" on="0"/>
        <pt x="736" y="205" on="1"/>
        <pt x="736" y="293" on="0"/>
        <pt x="737" y="467" on="0"/>
        <pt x="737" y="555" on="1"/>
        <pt x="701" y="555" on="0"/>
        <pt x="618" y="547" on="0"/>
        <pt x="536" y="527" on="0"/>
        <pt x="461" y="493" on="0"/>
        <pt x="403" y="443" on="0"/>
        <pt x="368" y="374" on="0"/>
      </contour>
    </TTGlyph>
    <TTGlyph name="acircumflex" xMin="88" yMin="-26" xMax="1150" yMax="1775">
      <contour>
        <pt x="198" y="1397" on="1"/>
        <pt x="470" y="1775" on="1"/>
        <pt x="695" y="1775" on="1"/>
        <pt x="966" y="1398" on="1"/>
        <pt x="847" y="1336" on="1"/>
        <pt x="582" y="1568" on="1"/>
        <pt x="305" y="1335" on="1"/>
      </contour>
      <contour>
        <pt x="88" y="363" on="1"/>
        <pt x="99" y="426" on="0"/>
        <pt x="177" y="523" on="0"/>
        <pt x="289" y="595" on="0"/>
        <pt x="425" y="644" on="0"/>
        <pt x="561" y="673" on="0"/>
        <pt x="689" y="686" on="0"/>
        <pt x="737" y="686" on="1"/>
        <pt x="737" y="724" on="1"/>
        <pt x="737" y="803" on="0"/>
        <pt x="703" y="903" on="0"/>
        <pt x="640" y="960" on="0"/>
        <pt x="552" y="980" on="0"/>
        <pt x="498" y="980" on="1"/>
        <pt x="448" y="980" on="0"/>
        <pt x="354" y="963" on="0"/>
        <pt x="272" y="939" on="0"/>
        <pt x="206" y="910" on="0"/>
        <pt x="184" y="898" on="1"/>
        <pt x="130" y="1025" on="1"/>
        <pt x="155" y="1046" on="0"/>
        <pt x="248" y="1089" on="0"/>
        <pt x="370" y="1124" on="0"/>
        <pt x="514" y="1146" on="0"/>
        <pt x="591" y="1146" on="1"/>
        <pt x="682" y="1146" on="0"/>
        <pt x="840" y="1111" on="0"/>
        <pt x="956" y="1022" on="0"/>
        <pt x="1022" y="871" on="0"/>
        <pt x="1022" y="754" on="1"/>
        <pt x="1021" y="114" on="1"/>
        <pt x="1150" y="114" on="1"/>
        <pt x="1150" y="25" on="1"/>
        <pt x="1128" y="11" on="0"/>
        <pt x="1072" y="-9" on="0"/>
        <pt x="1011" y="-21" on="0"/>
        <pt x="949" y="-26" on="0"/>
        <pt x="921" y="-26" on="1"/>
        <pt x="902" y="-26" on="0"/>
        <pt x="850" y="-19" on="0"/>
        <pt x="802" y="4" on="0"/>
        <pt x="768" y="49" on="0"/>
        <pt x="768" y="87" on="1"/>
        <pt x="768" y="96" on="1"/>
        <pt x="717" y="45" on="0"/>
        <pt x="567" y="-26" on="0"/>
        <pt x="460" y="-26" on="1"/>
        <pt x="352" y="-26" on="0"/>
        <pt x="198" y="38" on="0"/>
        <pt x="105" y="146" on="0"/>
        <pt x="74" y="286" on="0"/>
      </contour>
      <contour>
        <pt x="368" y="328" on="1"/>
        <pt x="368" y="221" on="0"/>
        <pt x="484" y="131" on="0"/>
        <pt x="593" y="139" on="1"/>
        <pt x="636" y="143" on="0"/>
        <pt x="707" y="182" on="0"/>
        <pt x="736" y="205" on="1"/>
        <pt x="736" y="293" on="0"/>
        <pt x="737" y="467" on="0"/>
        <pt x="737" y="555" on="1"/>
        <pt x="701" y="555" on="0"/>
        <pt x="618" y="547" on="0"/>
        <pt x="536" y="527" on="0"/>
        <pt x="461" y="493" on="0"/>
        <pt x="403" y="443" on="0"/>
        <pt x="368" y="374" on="0"/>
      </contour>
    </TTGlyph>
    <TTGlyph name="acute" xMin="304" yMin="1338" xMax="817" yMax="1820">
      <contour>
        <pt x="304" y="1412" on="1"/>
        <pt x="609" y="1820" on="1"/>
        <pt x="817" y="1645" on="1"/>
        <pt x="784" y="1593" on="0"/>
        <pt x="678" y="1499" on="0"/>
        <pt x="557" y="1419" on="0"/>
        <pt x="430" y="1357" on="0"/>
        <pt x="376" y="1338" on="1"/>
      </contour>
    </TTGlyph>
    <TTGlyph name="acute.cap" xMin="321" yMin="1599" xMax="849" yMax="1920">
      <contour>
        <pt x="321" y="1683" on="1"/>
        <pt x="676" y="1920" on="1"/>
        <pt x="849" y="1747" on="1"/>
        <pt x="805" y="1716" on="0"/>
        <pt x="676" y="1664" on="0"/>
        <pt x="545" y="1626" on="0"/>
        <pt x="431" y="1602" on="0"/>
        <pt x="401" y="1599" on="1"/>
      </contour>
    </TTGlyph>
    <TTGlyph name="adieresis" xMin="88" yMin="-26" xMax="1150" yMax="1648">
      <contour>
        <pt x="819" y="1363" on="1"/>
        <pt x="789" y="1363" on="0"/>
        <pt x="732" y="1380" on="0"/>
        <pt x="689" y="1414" on="0"/>
        <pt x="663" y="1463" on="0"/>
        <pt x="663" y="1495" on="1"/>
        <pt x="663" y="1528" on="0"/>
        <pt x="695" y="1584" on="0"/>
        <pt x="746" y="1625" on="0"/>
        <pt x="811" y="1648" on="0"/>
        <pt x="844" y="1648" on="1"/>
        <pt x="886" y="1648" on="0"/>
        <pt x="945" y="1628" on="0"/>
        <pt x="983" y="1593" on="0"/>
        <pt x="1000" y="1545" on="0"/>
        <pt x="1000" y="1517" on="1"/>
        <pt x="1000" y="1481" on="0"/>
        <pt x="970" y="1424" on="0"/>
        <pt x="919" y="1384" on="0"/>
        <pt x="854" y="1363" on="0"/>
      </contour>
      <contour>
        <pt x="318" y="1363" on="1"/>
        <pt x="287" y="1363" on="0"/>
        <pt x="231" y="1380" on="0"/>
        <pt x="189" y="1413" on="0"/>
        <pt x="164" y="1461" on="0"/>
        <pt x="164" y="1493" on="1"/>
        <pt x="164" y="1527" on="0"/>
        <pt x="195" y="1584" on="0"/>
        <pt x="246" y="1625" on="0"/>
        <pt x="311" y="1648" on="0"/>
        <pt x="344" y="1648" on="1"/>
        <pt x="386" y="1648" on="0"/>
        <pt x="446" y="1628" on="0"/>
        <pt x="485" y="1592" on="0"/>
        <pt x="503" y="1544" on="0"/>
        <pt x="503" y="1516" on="1"/>
        <pt x="503" y="1481" on="0"/>
        <pt x="472" y="1424" on="0"/>
        <pt x="420" y="1384" on="0"/>
        <pt x="354" y="1363" on="0"/>
      </contour>
      <contour>
        <pt x="88" y="363" on="1"/>
        <pt x="99" y="426" on="0"/>
        <pt x="177" y="523" on="0"/>
        <pt x="289" y="595" on="0"/>
        <pt x="425" y="644" on="0"/>
        <pt x="561" y="673" on="0"/>
        <pt x="689" y="686" on="0"/>
        <pt x="737" y="686" on="1"/>
        <pt x="737" y="724" on="1"/>
        <pt x="737" y="803" on="0"/>
        <pt x="703" y="903" on="0"/>
        <pt x="640" y="960" on="0"/>
        <pt x="552" y="980" on="0"/>
        <pt x="498" y="980" on="1"/>
        <pt x="448" y="980" on="0"/>
        <pt x="354" y="963" on="0"/>
        <pt x="272" y="939" on="0"/>
        <pt x="206" y="910" on="0"/>
        <pt x="184" y="898" on="1"/>
        <pt x="130" y="1025" on="1"/>
        <pt x="155" y="1046" on="0"/>
        <pt x="248" y="1089" on="0"/>
        <pt x="370" y="1124" on="0"/>
        <pt x="514" y="1146" on="0"/>
        <pt x="591" y="1146" on="1"/>
        <pt x="682" y="1146" on="0"/>
        <pt x="840" y="1111" on="0"/>
        <pt x="956" y="1022" on="0"/>
        <pt x="1022" y="871" on="0"/>
        <pt x="1022" y="754" on="1"/>
        <pt x="1021" y="114" on="1"/>
        <pt x="1150" y="114" on="1"/>
        <pt x="1150" y="25" on="1"/>
        <pt x="1128" y="11" on="0"/>
        <pt x="1072" y="-9" on="0"/>
        <pt x="1011" y="-21" on="0"/>
        <pt x="949" y="-26" on="0"/>
        <pt x="921" y="-26" on="1"/>
        <pt x="902" y="-26" on="0"/>
        <pt x="850" y="-19" on="0"/>
        <pt x="802" y="4" on="0"/>
        <pt x="768" y="49" on="0"/>
        <pt x="768" y="87" on="1"/>
        <pt x="768" y="96" on="1"/>
        <pt x="717" y="45" on="0"/>
        <pt x="567" y="-26" on="0"/>
        <pt x="460" y="-26" on="1"/>
        <pt x="352" y="-26" on="0"/>
        <pt x="198" y="38" on="0"/>
        <pt x="105" y="146" on="0"/>
        <pt x="74" y="286" on="0"/>
      </contour>
      <contour>
        <pt x="368" y="328" on="1"/>
        <pt x="368" y="221" on="0"/>
        <pt x="484" y="131" on="0"/>
        <pt x="593" y="139" on="1"/>
        <pt x="636" y="143" on="0"/>
        <pt x="707" y="182" on="0"/>
        <pt x="736" y="205" on="1"/>
        <pt x="736" y="293" on="0"/>
        <pt x="737" y="467" on="0"/>
        <pt x="737" y="555" on="1"/>
        <pt x="701" y="555" on="0"/>
        <pt x="618" y="547" on="0"/>
        <pt x="536" y="527" on="0"/>
        <pt x="461" y="493" on="0"/>
        <pt x="403" y="443" on="0"/>
        <pt x="368" y="374" on="0"/>
      </contour>
    </TTGlyph>
    <TTGlyph name="ae" xMin="88" yMin="-26" xMax="1760" yMax="1151">
      <contour>
        <pt x="88" y="363" on="1"/>
        <pt x="99" y="426" on="0"/>
        <pt x="177" y="523" on="0"/>
        <pt x="289" y="595" on="0"/>
        <pt x="425" y="644" on="0"/>
        <pt x="561" y="673" on="0"/>
        <pt x="689" y="686" on="0"/>
        <pt x="737" y="686" on="1"/>
        <pt x="737" y="691" on="0"/>
        <pt x="737" y="712" on="0"/>
        <pt x="737" y="735" on="0"/>
        <pt x="736" y="756" on="0"/>
        <pt x="736" y="760" on="1"/>
        <pt x="733" y="828" on="0"/>
        <pt x="695" y="913" on="0"/>
        <pt x="633" y="960" on="0"/>
        <pt x="549" y="977" on="0"/>
        <pt x="498" y="977" on="1"/>
        <pt x="448" y="977" on="0"/>
        <pt x="354" y="960" on="0"/>
        <pt x="272" y="936" on="0"/>
        <pt x="206" y="907" on="0"/>
        <pt x="184" y="895" on="1"/>
        <pt x="130" y="1025" on="1"/>
        <pt x="155" y="1046" on="0"/>
        <pt x="248" y="1089" on="0"/>
        <pt x="370" y="1124" on="0"/>
        <pt x="514" y="1146" on="0"/>
        <pt x="591" y="1146" on="1"/>
        <pt x="647" y="1146" on="0"/>
        <pt x="750" y="1133" on="0"/>
        <pt x="841" y="1103" on="0"/>
        <pt x="917" y="1052" on="0"/>
        <pt x="945" y="1015" on="1"/>
        <pt x="1018" y="1078" on="0"/>
        <pt x="1210" y="1150" on="0"/>
        <pt x="1327" y="1151" on="1"/>
        <pt x="1434" y="1152" on="0"/>
        <pt x="1594" y="1093" on="0"/>
        <pt x="1700" y="984" on="0"/>
        <pt x="1756" y="829" on="0"/>
        <pt x="1760" y="734" on="1"/>
        <pt x="1762" y="671" on="0"/>
        <pt x="1752" y="576" on="0"/>
        <pt x="1747" y="537" on="1"/>
        <pt x="1026" y="537" on="1"/>
        <pt x="1031" y="430" on="0"/>
        <pt x="1090" y="282" on="0"/>
        <pt x="1184" y="189" on="0"/>
        <pt x="1308" y="147" on="0"/>
        <pt x="1379" y="147" on="1"/>
        <pt x="1416" y="147" on="0"/>
        <pt x="1501" y="156" on="0"/>
        <pt x="1586" y="173" on="0"/>
        <pt x="1666" y="198" on="0"/>
        <pt x="1698" y="213" on="1"/>
        <pt x="1744" y="103" on="1"/>
        <pt x="1709" y="74" on="0"/>
        <pt x="1605" y="25" on="0"/>
        <pt x="1480" y="-9" on="0"/>
        <pt x="1344" y="-27" on="0"/>
        <pt x="1278" y="-26" on="1"/>
        <pt x="1145" y="-24" on="0"/>
        <pt x="944" y="57" on="0"/>
        <pt x="875" y="132" on="1"/>
        <pt x="845" y="98" on="0"/>
        <pt x="763" y="40" on="0"/>
        <pt x="659" y="-2" on="0"/>
        <pt x="533" y="-26" on="0"/>
        <pt x="460" y="-26" on="1"/>
        <pt x="352" y="-26" on="0"/>
        <pt x="198" y="38" on="0"/>
        <pt x="105" y="146" on="0"/>
        <pt x="74" y="286" on="0"/>
      </contour>
      <contour>
        <pt x="1477" y="679" on="1"/>
        <pt x="1480" y="728" on="0"/>
        <pt x="1482" y="836" on="0"/>
        <pt x="1459" y="931" on="0"/>
        <pt x="1401" y="1000" on="0"/>
        <pt x="1344" y="1011" on="1"/>
        <pt x="1289" y="1026" on="0"/>
        <pt x="1227" y="1006" on="1"/>
        <pt x="1189" y="995" on="0"/>
        <pt x="1121" y="946" on="0"/>
        <pt x="1067" y="865" on="0"/>
        <pt x="1032" y="752" on="0"/>
        <pt x="1026" y="679" on="1"/>
      </contour>
      <contour>
        <pt x="368" y="328" on="1"/>
        <pt x="368" y="221" on="0"/>
        <pt x="484" y="131" on="0"/>
        <pt x="593" y="139" on="1"/>
        <pt x="636" y="142" on="0"/>
        <pt x="713" y="175" on="0"/>
        <pt x="736" y="193" on="1"/>
        <pt x="736" y="284" on="0"/>
        <pt x="737" y="464" on="0"/>
        <pt x="737" y="555" on="1"/>
        <pt x="701" y="555" on="0"/>
        <pt x="618" y="547" on="0"/>
        <pt x="536" y="527" on="0"/>
        <pt x="461" y="493" on="0"/>
        <pt x="403" y="443" on="0"/>
        <pt x="368" y="374" on="0"/>
      </contour>
    </TTGlyph>
    <TTGlyph name="agrave" xMin="88" yMin="-26" xMax="1150" yMax="1821">
      <contour>
        <pt x="704" y="1338" on="1"/>
        <pt x="652" y="1345" on="0"/>
        <pt x="527" y="1405" on="0"/>
        <pt x="405" y="1492" on="0"/>
        <pt x="297" y="1595" on="0"/>
        <pt x="263" y="1646" on="1"/>
        <pt x="471" y="1821" on="1"/>
        <pt x="777" y="1412" on="1"/>
      </contour>
      <contour>
        <pt x="88" y="363" on="1"/>
        <pt x="99" y="426" on="0"/>
        <pt x="177" y="523" on="0"/>
        <pt x="289" y="595" on="0"/>
        <pt x="425" y="644" on="0"/>
        <pt x="561" y="673" on="0"/>
        <pt x="689" y="686" on="0"/>
        <pt x="737" y="686" on="1"/>
        <pt x="737" y="724" on="1"/>
        <pt x="737" y="803" on="0"/>
        <pt x="703" y="903" on="0"/>
        <pt x="640" y="960" on="0"/>
        <pt x="552" y="980" on="0"/>
        <pt x="498" y="980" on="1"/>
        <pt x="448" y="980" on="0"/>
        <pt x="354" y="963" on="0"/>
        <pt x="272" y="939" on="0"/>
        <pt x="206" y="910" on="0"/>
        <pt x="184" y="898" on="1"/>
        <pt x="130" y="1025" on="1"/>
        <pt x="155" y="1046" on="0"/>
        <pt x="248" y="1089" on="0"/>
        <pt x="370" y="1124" on="0"/>
        <pt x="514" y="1146" on="0"/>
        <pt x="591" y="1146" on="1"/>
        <pt x="682" y="1146" on="0"/>
        <pt x="840" y="1111" on="0"/>
        <pt x="956" y="1022" on="0"/>
        <pt x="1022" y="871" on="0"/>
        <pt x="1022" y="754" on="1"/>
        <pt x="1021" y="114" on="1"/>
        <pt x="1150" y="114" on="1"/>
        <pt x="1150" y="25" on="1"/>
        <pt x="1128" y="11" on="0"/>
        <pt x="1072" y="-9" on="0"/>
        <pt x="1011" y="-21" on="0"/>
        <pt x="949" y="-26" on="0"/>
        <pt x="921" y="-26" on="1"/>
        <pt x="902" y="-26" on="0"/>
        <pt x="850" y="-19" on="0"/>
        <pt x="802" y="4" on="0"/>
        <pt x="768" y="49" on="0"/>
        <pt x="768" y="87" on="1"/>
        <pt x="768" y="96" on="1"/>
        <pt x="717" y="45" on="0"/>
        <pt x="567" y="-26" on="0"/>
        <pt x="460" y="-26" on="1"/>
        <pt x="352" y="-26" on="0"/>
        <pt x="198" y="38" on="0"/>
        <pt x="105" y="146" on="0"/>
        <pt x="74" y="286" on="0"/>
      </contour>
      <contour>
        <pt x="368" y="328" on="1"/>
        <pt x="368" y="221" on="0"/>
        <pt x="484" y="131" on="0"/>
        <pt x="593" y="139" on="1"/>
        <pt x="636" y="143" on="0"/>
        <pt x="707" y="182" on="0"/>
        <pt x="736" y="205" on="1"/>
        <pt x="736" y="293" on="0"/>
        <pt x="737" y="467" on="0"/>
        <pt x="737" y="555" on="1"/>
        <pt x="701" y="555" on="0"/>
        <pt x="618" y="547" on="0"/>
        <pt x="536" y="527" on="0"/>
        <pt x="461" y="493" on="0"/>
        <pt x="403" y="443" on="0"/>
        <pt x="368" y="374" on="0"/>
      </contour>
    </TTGlyph>
    <TTGlyph name="ampersand" xMin="128" yMin="-30" xMax="1502" yMax="1557">
      <contour>
        <pt x="128" y="378" on="1"/>
        <pt x="128" y="453" on="0"/>
        <pt x="179" y="570" on="0"/>
        <pt x="267" y="663" on="0"/>
        <pt x="387" y="736" on="0"/>
        <pt x="456" y="768" on="1"/>
        <pt x="424" y="812" on="0"/>
        <pt x="360" y="904" on="0"/>
        <pt x="309" y="1003" on="0"/>
        <pt x="279" y="1109" on="0"/>
        <pt x="280" y="1166" on="1"/>
        <pt x="281" y="1263" on="0"/>
        <pt x="357" y="1409" on="0"/>
        <pt x="478" y="1507" on="0"/>
        <pt x="634" y="1557" on="0"/>
        <pt x="715" y="1557" on="1"/>
        <pt x="807" y="1557" on="0"/>
        <pt x="956" y="1506" on="0"/>
        <pt x="1061" y="1415" on="0"/>
        <pt x="1118" y="1292" on="0"/>
        <pt x="1118" y="1220" on="1"/>
        <pt x="1118" y="1148" on="0"/>
        <pt x="1063" y="1017" on="0"/>
        <pt x="969" y="902" on="0"/>
        <pt x="845" y="806" on="0"/>
        <pt x="776" y="770" on="1"/>
        <pt x="813" y="722" on="0"/>
        <pt x="912" y="604" on="0"/>
        <pt x="1014" y="485" on="0"/>
        <pt x="1111" y="379" on="0"/>
        <pt x="1146" y="344" on="1"/>
        <pt x="1152" y="338" on="1"/>
        <pt x="1163" y="380" on="0"/>
        <pt x="1165" y="466" on="0"/>
        <pt x="1165" y="504" on="1"/>
        <pt x="1165" y="603" on="0"/>
        <pt x="1137" y="721" on="0"/>
        <pt x="1127" y="738" on="1"/>
        <pt x="1385" y="738" on="1"/>
        <pt x="1390" y="728" on="0"/>
        <pt x="1402" y="699" on="0"/>
        <pt x="1412" y="655" on="0"/>
        <pt x="1419" y="595" on="0"/>
        <pt x="1419" y="554" on="1"/>
        <pt x="1419" y="513" on="0"/>
        <pt x="1404" y="424" on="0"/>
        <pt x="1374" y="335" on="0"/>
        <pt x="1329" y="249" on="0"/>
        <pt x="1298" y="212" on="1"/>
        <pt x="1409" y="136" on="0"/>
        <pt x="1502" y="130" on="1"/>
        <pt x="1502" y="14" on="1"/>
        <pt x="1467" y="-1" on="0"/>
        <pt x="1370" y="-10" on="0"/>
        <pt x="1316" y="-5" on="1"/>
        <pt x="1266" y="1" on="0"/>
        <pt x="1165" y="32" on="0"/>
        <pt x="1107" y="64" on="1"/>
        <pt x="1035" y="19" on="0"/>
        <pt x="849" y="-30" on="0"/>
        <pt x="740" y="-30" on="1"/>
        <pt x="616" y="-30" on="0"/>
        <pt x="394" y="15" on="0"/>
        <pt x="226" y="113" on="0"/>
        <pt x="128" y="268" on="0"/>
      </contour>
      <contour>
        <pt x="696" y="875" on="1"/>
        <pt x="789" y="930" on="0"/>
        <pt x="872" y="1098" on="0"/>
        <pt x="872" y="1217" on="1"/>
        <pt x="872" y="1252" on="0"/>
        <pt x="856" y="1329" on="0"/>
        <pt x="817" y="1394" on="0"/>
        <pt x="751" y="1437" on="0"/>
        <pt x="702" y="1437" on="1"/>
        <pt x="676" y="1437" on="0"/>
        <pt x="620" y="1420" on="0"/>
        <pt x="572" y="1378" on="0"/>
        <pt x="538" y="1308" on="0"/>
        <pt x="534" y="1256" on="1"/>
        <pt x="529" y="1190" on="0"/>
        <pt x="559" y="1075" on="0"/>
        <pt x="610" y="980" on="0"/>
        <pt x="671" y="903" on="0"/>
      </contour>
      <contour>
        <pt x="402" y="419" on="1"/>
        <pt x="402" y="337" on="0"/>
        <pt x="461" y="221" on="0"/>
        <pt x="560" y="148" on="0"/>
        <pt x="688" y="114" on="0"/>
        <pt x="757" y="114" on="1"/>
        <pt x="826" y="114" on="0"/>
        <pt x="940" y="129" on="0"/>
        <pt x="985" y="146" on="1"/>
        <pt x="936" y="187" on="0"/>
        <pt x="818" y="309" on="0"/>
        <pt x="698" y="447" on="0"/>
        <pt x="586" y="588" on="0"/>
        <pt x="542" y="649" on="1"/>
        <pt x="480" y="606" on="0"/>
        <pt x="402" y="496" on="0"/>
      </contour>
    </TTGlyph>
    <TTGlyph name="aogonek" xMin="88" yMin="-516" xMax="1154" yMax="1146">
      <contour>
        <pt x="88" y="363" on="1"/>
        <pt x="99" y="426" on="0"/>
        <pt x="177" y="523" on="0"/>
        <pt x="289" y="595" on="0"/>
        <pt x="425" y="644" on="0"/>
        <pt x="561" y="673" on="0"/>
        <pt x="689" y="686" on="0"/>
        <pt x="737" y="686" on="1"/>
        <pt x="737" y="724" on="1"/>
        <pt x="737" y="803" on="0"/>
        <pt x="703" y="903" on="0"/>
        <pt x="640" y="960" on="0"/>
        <pt x="552" y="980" on="0"/>
        <pt x="498" y="980" on="1"/>
        <pt x="448" y="980" on="0"/>
        <pt x="354" y="963" on="0"/>
        <pt x="272" y="939" on="0"/>
        <pt x="206" y="910" on="0"/>
        <pt x="184" y="898" on="1"/>
        <pt x="130" y="1025" on="1"/>
        <pt x="155" y="1046" on="0"/>
        <pt x="248" y="1089" on="0"/>
        <pt x="370" y="1124" on="0"/>
        <pt x="514" y="1146" on="0"/>
        <pt x="591" y="1146" on="1"/>
        <pt x="682" y="1146" on="0"/>
        <pt x="840" y="1111" on="0"/>
        <pt x="956" y="1022" on="0"/>
        <pt x="1022" y="871" on="0"/>
        <pt x="1022" y="754" on="1"/>
        <pt x="1021" y="114" on="1"/>
        <pt x="1150" y="114" on="1"/>
        <pt x="1150" y="25" on="1"/>
        <pt x="1149" y="24" on="0"/>
        <pt x="1148" y="24" on="1"/>
        <pt x="1154" y="25" on="1"/>
        <pt x="1106" y="-3" on="0"/>
        <pt x="1013" y="-68" on="0"/>
        <pt x="941" y="-140" on="0"/>
        <pt x="899" y="-217" on="0"/>
        <pt x="902" y="-256" on="1"/>
        <pt x="904" y="-297" on="0"/>
        <pt x="950" y="-339" on="0"/>
        <pt x="1021" y="-352" on="0"/>
        <pt x="1110" y="-340" on="0"/>
        <pt x="1154" y="-327" on="1"/>
        <pt x="1154" y="-449" on="1"/>
        <pt x="1118" y="-476" on="0"/>
        <pt x="1018" y="-510" on="0"/>
        <pt x="911" y="-521" on="0"/>
        <pt x="806" y="-506" on="0"/>
        <pt x="722" y="-463" on="0"/>
        <pt x="667" y="-389" on="0"/>
        <pt x="665" y="-335" on="1"/>
        <pt x="662" y="-283" on="0"/>
        <pt x="701" y="-189" on="0"/>
        <pt x="766" y="-110" on="0"/>
        <pt x="847" y="-46" on="0"/>
        <pt x="886" y="-24" on="1"/>
        <pt x="866" y="-21" on="0"/>
        <pt x="825" y="-9" on="0"/>
        <pt x="790" y="16" on="0"/>
        <pt x="768" y="57" on="0"/>
        <pt x="768" y="87" on="1"/>
        <pt x="768" y="96" on="1"/>
        <pt x="717" y="45" on="0"/>
        <pt x="567" y="-26" on="0"/>
        <pt x="460" y="-26" on="1"/>
        <pt x="352" y="-26" on="0"/>
        <pt x="198" y="38" on="0"/>
        <pt x="105" y="146" on="0"/>
        <pt x="74" y="286" on="0"/>
      </contour>
      <contour>
        <pt x="368" y="328" on="1"/>
        <pt x="368" y="221" on="0"/>
        <pt x="484" y="131" on="0"/>
        <pt x="593" y="139" on="1"/>
        <pt x="636" y="143" on="0"/>
        <pt x="707" y="182" on="0"/>
        <pt x="736" y="205" on="1"/>
        <pt x="736" y="293" on="0"/>
        <pt x="737" y="467" on="0"/>
        <pt x="737" y="555" on="1"/>
        <pt x="701" y="555" on="0"/>
        <pt x="618" y="547" on="0"/>
        <pt x="536" y="527" on="0"/>
        <pt x="461" y="493" on="0"/>
        <pt x="403" y="443" on="0"/>
        <pt x="368" y="374" on="0"/>
      </contour>
    </TTGlyph>
    <TTGlyph name="approxequal" xMin="169" yMin="358" xMax="1171" yMax="1243">
      <contour>
        <pt x="169" y="1022" on="1"/>
        <pt x="182" y="1054" on="0"/>
        <pt x="248" y="1131" on="0"/>
        <pt x="341" y="1198" on="0"/>
        <pt x="453" y="1243" on="0"/>
        <pt x="512" y="1243" on="1"/>
        <pt x="554" y="1243" on="0"/>
        <pt x="620" y="1220" on="0"/>
        <pt x="676" y="1187" on="0"/>
        <pt x="725" y="1147" on="0"/>
        <pt x="775" y="1114" on="0"/>
        <pt x="829" y="1091" on="0"/>
        <pt x="862" y="1091" on="1"/>
        <pt x="897" y="1091" on="0"/>
        <pt x="961" y="1112" on="0"/>
        <pt x="1016" y="1142" on="0"/>
        <pt x="1061" y="1177" on="0"/>
        <pt x="1077" y="1192" on="1"/>
        <pt x="1165" y="1082" on="1"/>
        <pt x="1153" y="1047" on="0"/>
        <pt x="1088" y="969" on="0"/>
        <pt x="996" y="903" on="0"/>
        <pt x="883" y="860" on="0"/>
        <pt x="823" y="860" on="1"/>
        <pt x="781" y="860" on="0"/>
        <pt x="717" y="883" on="0"/>
        <pt x="662" y="917" on="0"/>
        <pt x="613" y="956" on="0"/>
        <pt x="562" y="990" on="0"/>
        <pt x="505" y="1013" on="0"/>
        <pt x="470" y="1013" on="1"/>
        <pt x="435" y="1013" on="0"/>
        <pt x="371" y="992" on="0"/>
        <pt x="317" y="962" on="0"/>
        <pt x="272" y="927" on="0"/>
        <pt x="255" y="912" on="1"/>
      </contour>
      <contour>
        <pt x="175" y="520" on="1"/>
        <pt x="188" y="553" on="0"/>
        <pt x="254" y="630" on="0"/>
        <pt x="347" y="696" on="0"/>
        <pt x="459" y="741" on="0"/>
        <pt x="518" y="741" on="1"/>
        <pt x="560" y="741" on="0"/>
        <pt x="626" y="718" on="0"/>
        <pt x="682" y="685" on="0"/>
        <pt x="731" y="645" on="0"/>
        <pt x="781" y="612" on="0"/>
        <pt x="835" y="589" on="0"/>
        <pt x="868" y="589" on="1"/>
        <pt x="903" y="589" on="0"/>
        <pt x="967" y="610" on="0"/>
        <pt x="1022" y="641" on="0"/>
        <pt x="1067" y="676" on="0"/>
        <pt x="1083" y="691" on="1"/>
        <pt x="1171" y="581" on="1"/>
        <pt x="1159" y="546" on="0"/>
        <pt x="1094" y="468" on="0"/>
        <pt x="1002" y="402" on="0"/>
        <pt x="889" y="358" on="0"/>
        <pt x="829" y="358" on="1"/>
        <pt x="787" y="358" on="0"/>
        <pt x="723" y="381" on="0"/>
        <pt x="668" y="415" on="0"/>
        <pt x="619" y="454" on="0"/>
        <pt x="568" y="488" on="0"/>
        <pt x="511" y="511" on="0"/>
        <pt x="476" y="511" on="1"/>
        <pt x="441" y="511" on="0"/>
        <pt x="377" y="490" on="0"/>
        <pt x="323" y="460" on="0"/>
        <pt x="278" y="425" on="0"/>
        <pt x="261" y="410" on="1"/>
      </contour>
    </TTGlyph>
    <TTGlyph name="aring" xMin="88" yMin="-26" xMax="1150" yMax="1821">
      <contour>
        <pt x="568" y="1300" on="1"/>
        <pt x="511" y="1300" on="0"/>
        <pt x="411" y="1341" on="0"/>
        <pt x="336" y="1412" on="0"/>
        <pt x="293" y="1506" on="0"/>
        <pt x="293" y="1560" on="1"/>
        <pt x="293" y="1614" on="0"/>
        <pt x="336" y="1709" on="0"/>
        <pt x="411" y="1780" on="0"/>
        <pt x="511" y="1821" on="0"/>
        <pt x="568" y="1821" on="1"/>
        <pt x="625" y="1821" on="0"/>
        <pt x="726" y="1779" on="0"/>
        <pt x="801" y="1708" on="0"/>
        <pt x="845" y="1613" on="0"/>
        <pt x="845" y="1560" on="1"/>
        <pt x="845" y="1506" on="0"/>
        <pt x="801" y="1412" on="0"/>
        <pt x="726" y="1341" on="0"/>
        <pt x="625" y="1300" on="0"/>
      </contour>
      <contour>
        <pt x="568" y="1427" on="1"/>
        <pt x="596" y="1427" on="0"/>
        <pt x="645" y="1447" on="0"/>
        <pt x="681" y="1483" on="0"/>
        <pt x="701" y="1531" on="0"/>
        <pt x="701" y="1560" on="1"/>
        <pt x="701" y="1587" on="0"/>
        <pt x="681" y="1635" on="0"/>
        <pt x="645" y="1672" on="0"/>
        <pt x="596" y="1693" on="0"/>
        <pt x="568" y="1693" on="1"/>
        <pt x="539" y="1693" on="0"/>
        <pt x="491" y="1672" on="0"/>
        <pt x="455" y="1636" on="0"/>
        <pt x="435" y="1588" on="0"/>
        <pt x="435" y="1560" on="1"/>
        <pt x="435" y="1531" on="0"/>
        <pt x="455" y="1483" on="0"/>
        <pt x="491" y="1447" on="0"/>
        <pt x="539" y="1427" on="0"/>
      </contour>
      <contour>
        <pt x="88" y="363" on="1"/>
        <pt x="99" y="426" on="0"/>
        <pt x="177" y="523" on="0"/>
        <pt x="289" y="595" on="0"/>
        <pt x="425" y="644" on="0"/>
        <pt x="561" y="673" on="0"/>
        <pt x="689" y="686" on="0"/>
        <pt x="737" y="686" on="1"/>
        <pt x="737" y="724" on="1"/>
        <pt x="737" y="803" on="0"/>
        <pt x="703" y="903" on="0"/>
        <pt x="640" y="960" on="0"/>
        <pt x="552" y="980" on="0"/>
        <pt x="498" y="980" on="1"/>
        <pt x="448" y="980" on="0"/>
        <pt x="354" y="963" on="0"/>
        <pt x="272" y="939" on="0"/>
        <pt x="206" y="910" on="0"/>
        <pt x="184" y="898" on="1"/>
        <pt x="130" y="1025" on="1"/>
        <pt x="155" y="1046" on="0"/>
        <pt x="248" y="1089" on="0"/>
        <pt x="370" y="1124" on="0"/>
        <pt x="514" y="1146" on="0"/>
        <pt x="591" y="1146" on="1"/>
        <pt x="682" y="1146" on="0"/>
        <pt x="840" y="1111" on="0"/>
        <pt x="956" y="1022" on="0"/>
        <pt x="1022" y="871" on="0"/>
        <pt x="1022" y="754" on="1"/>
        <pt x="1021" y="114" on="1"/>
        <pt x="1150" y="114" on="1"/>
        <pt x="1150" y="25" on="1"/>
        <pt x="1128" y="11" on="0"/>
        <pt x="1072" y="-9" on="0"/>
        <pt x="1011" y="-21" on="0"/>
        <pt x="949" y="-26" on="0"/>
        <pt x="921" y="-26" on="1"/>
        <pt x="902" y="-26" on="0"/>
        <pt x="850" y="-19" on="0"/>
        <pt x="802" y="4" on="0"/>
        <pt x="768" y="49" on="0"/>
        <pt x="768" y="87" on="1"/>
        <pt x="768" y="96" on="1"/>
        <pt x="717" y="45" on="0"/>
        <pt x="567" y="-26" on="0"/>
        <pt x="460" y="-26" on="1"/>
        <pt x="352" y="-26" on="0"/>
        <pt x="198" y="38" on="0"/>
        <pt x="105" y="146" on="0"/>
        <pt x="74" y="286" on="0"/>
      </contour>
      <contour>
        <pt x="368" y="328" on="1"/>
        <pt x="368" y="221" on="0"/>
        <pt x="484" y="131" on="0"/>
        <pt x="593" y="139" on="1"/>
        <pt x="636" y="143" on="0"/>
        <pt x="707" y="182" on="0"/>
        <pt x="736" y="205" on="1"/>
        <pt x="736" y="293" on="0"/>
        <pt x="737" y="467" on="0"/>
        <pt x="737" y="555" on="1"/>
        <pt x="701" y="555" on="0"/>
        <pt x="618" y="547" on="0"/>
        <pt x="536" y="527" on="0"/>
        <pt x="461" y="493" on="0"/>
        <pt x="403" y="443" on="0"/>
        <pt x="368" y="374" on="0"/>
      </contour>
    </TTGlyph>
    <TTGlyph name="asciicircum" xMin="181" yMin="563" xMax="1242" yMax="1531">
      <contour>
        <pt x="575" y="1531" on="1"/>
        <pt x="853" y="1531" on="1"/>
        <pt x="1242" y="564" on="1"/>
        <pt x="1178" y="564" on="0"/>
        <pt x="1049" y="563" on="0"/>
        <pt x="985" y="563" on="1"/>
        <pt x="698" y="1266" on="1"/>
        <pt x="404" y="563" on="1"/>
        <pt x="348" y="563" on="0"/>
        <pt x="237" y="564" on="0"/>
        <pt x="181" y="564" on="1"/>
      </contour>
    </TTGlyph>
    <TTGlyph name="asciitilde" xMin="147" yMin="697" xMax="1143" yMax="1080">
      <contour>
        <pt x="147" y="859" on="1"/>
        <pt x="160" y="892" on="0"/>
        <pt x="226" y="969" on="0"/>
        <pt x="319" y="1035" on="0"/>
        <pt x="432" y="1080" on="0"/>
        <pt x="491" y="1080" on="1"/>
        <pt x="533" y="1080" on="0"/>
        <pt x="599" y="1057" on="0"/>
        <pt x="655" y="1024" on="0"/>
        <pt x="704" y="984" on="0"/>
        <pt x="754" y="951" on="0"/>
        <pt x="808" y="928" on="0"/>
        <pt x="841" y="928" on="1"/>
        <pt x="876" y="928" on="0"/>
        <pt x="940" y="949" on="0"/>
        <pt x="995" y="980" on="0"/>
        <pt x="1040" y="1015" on="0"/>
        <pt x="1056" y="1030" on="1"/>
        <pt x="1143" y="920" on="1"/>
        <pt x="1131" y="885" on="0"/>
        <pt x="1066" y="807" on="0"/>
        <pt x="975" y="741" on="0"/>
        <pt x="862" y="697" on="0"/>
        <pt x="801" y="697" on="1"/>
        <pt x="759" y="697" on="0"/>
        <pt x="695" y="720" on="0"/>
        <pt x="640" y="754" on="0"/>
        <pt x="591" y="793" on="0"/>
        <pt x="540" y="827" on="0"/>
        <pt x="483" y="850" on="0"/>
        <pt x="448" y="850" on="1"/>
        <pt x="413" y="850" on="0"/>
        <pt x="350" y="829" on="0"/>
        <pt x="295" y="799" on="0"/>
        <pt x="250" y="764" on="0"/>
        <pt x="234" y="749" on="1"/>
      </contour>
    </TTGlyph>
    <TTGlyph name="asterisk" xMin="105" yMin="761" xMax="1159" yMax="1793">
      <contour>
        <pt x="532" y="1093" on="1"/>
        <pt x="578" y="1209" on="1"/>
        <pt x="499" y="1115" on="1"/>
        <pt x="236" y="901" on="1"/>
        <pt x="107" y="1077" on="1"/>
        <pt x="431" y="1250" on="1"/>
        <pt x="544" y="1276" on="1"/>
        <pt x="434" y="1298" on="1"/>
        <pt x="105" y="1455" on="1"/>
        <pt x="232" y="1645" on="1"/>
        <pt x="498" y="1432" on="1"/>
        <pt x="578" y="1344" on="1"/>
        <pt x="532" y="1469" on="1"/>
        <pt x="506" y="1793" on="1"/>
        <pt x="513" y="1793" on="0"/>
        <pt x="549" y="1793" on="0"/>
        <pt x="597" y="1793" on="0"/>
        <pt x="651" y="1792" on="0"/>
        <pt x="700" y="1792" on="0"/>
        <pt x="736" y="1792" on="0"/>
        <pt x="743" y="1792" on="1"/>
        <pt x="717" y="1469" on="1"/>
        <pt x="663" y="1344" on="1"/>
        <pt x="754" y="1445" on="1"/>
        <pt x="1012" y="1643" on="1"/>
        <pt x="1159" y="1453" on="1"/>
        <pt x="813" y="1302" on="1"/>
        <pt x="697" y="1276" on="1"/>
        <pt x="813" y="1248" on="1"/>
        <pt x="1156" y="1075" on="1"/>
        <pt x="1008" y="904" on="1"/>
        <pt x="748" y="1116" on="1"/>
        <pt x="665" y="1209" on="1"/>
        <pt x="711" y="1093" on="1"/>
        <pt x="743" y="761" on="1"/>
        <pt x="506" y="761" on="1"/>
      </contour>
    </TTGlyph>
    <TTGlyph name="at" xMin="182" yMin="-378" xMax="2045" yMax="1452">
      <contour>
        <pt x="182" y="396" on="1"/>
        <pt x="182" y="559" on="0"/>
        <pt x="270" y="842" on="0"/>
        <pt x="423" y="1077" on="0"/>
        <pt x="631" y="1260" on="0"/>
        <pt x="870" y="1386" on="0"/>
        <pt x="1130" y="1452" on="0"/>
        <pt x="1260" y="1452" on="1"/>
        <pt x="1459" y="1452" on="0"/>
        <pt x="1754" y="1350" on="0"/>
        <pt x="1949" y="1176" on="0"/>
        <pt x="2045" y="945" on="0"/>
        <pt x="2045" y="815" on="1"/>
        <pt x="2045" y="693" on="0"/>
        <pt x="1997" y="484" on="0"/>
        <pt x="1913" y="313" on="0"/>
        <pt x="1799" y="182" on="0"/>
        <pt x="1668" y="90" on="0"/>
        <pt x="1525" y="40" on="0"/>
        <pt x="1455" y="37" on="1"/>
        <pt x="1413" y="35" on="0"/>
        <pt x="1356" y="59" on="0"/>
        <pt x="1320" y="108" on="0"/>
        <pt x="1303" y="178" on="0"/>
        <pt x="1301" y="223" on="1"/>
        <pt x="1299" y="249" on="0"/>
        <pt x="1309" y="358" on="0"/>
        <pt x="1318" y="424" on="1"/>
        <pt x="1288" y="353" on="0"/>
        <pt x="1206" y="212" on="0"/>
        <pt x="1106" y="99" on="0"/>
        <pt x="992" y="27" on="0"/>
        <pt x="930" y="25" on="1"/>
        <pt x="877" y="23" on="0"/>
        <pt x="770" y="75" on="0"/>
        <pt x="683" y="175" on="0"/>
        <pt x="628" y="317" on="0"/>
        <pt x="628" y="405" on="1"/>
        <pt x="628" y="489" on="0"/>
        <pt x="663" y="650" on="0"/>
        <pt x="727" y="793" on="0"/>
        <pt x="814" y="914" on="0"/>
        <pt x="919" y="1002" on="0"/>
        <pt x="1037" y="1054" on="0"/>
        <pt x="1099" y="1056" on="1"/>
        <pt x="1173" y="1060" on="0"/>
        <pt x="1306" y="1033" on="0"/>
        <pt x="1367" y="1006" on="1"/>
        <pt x="1375" y="1029" on="0"/>
        <pt x="1401" y="1061" on="0"/>
        <pt x="1421" y="1056" on="1"/>
        <pt x="1469" y="1043" on="0"/>
        <pt x="1557" y="1012" on="0"/>
        <pt x="1607" y="997" on="1"/>
        <pt x="1596" y="941" on="0"/>
        <pt x="1574" y="810" on="0"/>
        <pt x="1553" y="669" on="0"/>
        <pt x="1535" y="522" on="0"/>
        <pt x="1528" y="451" on="1"/>
        <pt x="1515" y="317" on="0"/>
        <pt x="1535" y="189" on="0"/>
        <pt x="1551" y="189" on="1"/>
        <pt x="1578" y="189" on="0"/>
        <pt x="1642" y="232" on="0"/>
        <pt x="1706" y="307" on="0"/>
        <pt x="1765" y="410" on="0"/>
        <pt x="1811" y="530" on="0"/>
        <pt x="1839" y="663" on="0"/>
        <pt x="1839" y="732" on="1"/>
        <pt x="1839" y="842" on="0"/>
        <pt x="1788" y="1012" on="0"/>
        <pt x="1698" y="1139" on="0"/>
        <pt x="1573" y="1227" on="0"/>
        <pt x="1425" y="1281" on="0"/>
        <pt x="1260" y="1305" on="0"/>
        <pt x="1174" y="1305" on="1"/>
        <pt x="1084" y="1305" on="0"/>
        <pt x="902" y="1255" on="0"/>
        <pt x="732" y="1159" on="0"/>
        <pt x="585" y="1018" on="0"/>
        <pt x="475" y="837" on="0"/>
        <pt x="412" y="615" on="0"/>
        <pt x="412" y="487" on="1"/>
        <pt x="412" y="351" on="0"/>
        <pt x="466" y="140" on="0"/>
        <pt x="563" y="-18" on="0"/>
        <pt x="696" y="-128" on="0"/>
        <pt x="855" y="-196" on="0"/>
        <pt x="1034" y="-226" on="0"/>
        <pt x="1128" y="-226" on="1"/>
        <pt x="1177" y="-226" on="0"/>
        <pt x="1291" y="-212" on="0"/>
        <pt x="1398" y="-191" on="0"/>
        <pt x="1486" y="-165" on="0"/>
        <pt x="1509" y="-153" on="1"/>
        <pt x="1562" y="-262" on="1"/>
        <pt x="1527" y="-288" on="0"/>
        <pt x="1424" y="-331" on="0"/>
        <pt x="1296" y="-361" on="0"/>
        <pt x="1151" y="-378" on="0"/>
        <pt x="1074" y="-378" on="1"/>
        <pt x="875" y="-378" on="0"/>
        <pt x="546" y="-272" on="0"/>
        <pt x="311" y="-72" on="0"/>
        <pt x="182" y="215" on="0"/>
      </contour>
      <contour>
        <pt x="861" y="504" on="1"/>
        <pt x="861" y="460" on="0"/>
        <pt x="871" y="362" on="0"/>
        <pt x="896" y="279" on="0"/>
        <pt x="941" y="224" on="0"/>
        <pt x="976" y="224" on="1"/>
        <pt x="999" y="224" on="0"/>
        <pt x="1062" y="279" on="0"/>
        <pt x="1131" y="372" on="0"/>
        <pt x="1200" y="494" on="0"/>
        <pt x="1259" y="629" on="0"/>
        <pt x="1303" y="768" on="0"/>
        <pt x="1312" y="831" on="1"/>
        <pt x="1299" y="842" on="0"/>
        <pt x="1251" y="861" on="0"/>
        <pt x="1196" y="874" on="0"/>
        <pt x="1143" y="882" on="0"/>
        <pt x="1124" y="882" on="1"/>
        <pt x="1062" y="882" on="0"/>
        <pt x="964" y="831" on="0"/>
        <pt x="897" y="733" on="0"/>
        <pt x="861" y="593" on="0"/>
      </contour>
    </TTGlyph>
    <TTGlyph name="atilde" xMin="88" yMin="-26" xMax="1150" yMax="1671">
      <contour>
        <pt x="166" y="1477" on="1"/>
        <pt x="184" y="1517" on="0"/>
        <pt x="253" y="1588" on="0"/>
        <pt x="336" y="1640" on="0"/>
        <pt x="424" y="1671" on="0"/>
        <pt x="461" y="1671" on="1"/>
        <pt x="513" y="1671" on="0"/>
        <pt x="588" y="1635" on="0"/>
        <pt x="649" y="1591" on="0"/>
        <pt x="706" y="1555" on="0"/>
        <pt x="740" y="1555" on="1"/>
        <pt x="767" y="1555" on="0"/>
        <pt x="816" y="1570" on="0"/>
        <pt x="860" y="1594" on="0"/>
        <pt x="898" y="1623" on="0"/>
        <pt x="914" y="1637" on="1"/>
        <pt x="987" y="1550" on="1"/>
        <pt x="969" y="1510" on="0"/>
        <pt x="902" y="1439" on="0"/>
        <pt x="820" y="1385" on="0"/>
        <pt x="733" y="1354" on="0"/>
        <pt x="696" y="1354" on="1"/>
        <pt x="644" y="1354" on="0"/>
        <pt x="568" y="1391" on="0"/>
        <pt x="505" y="1435" on="0"/>
        <pt x="447" y="1472" on="0"/>
        <pt x="413" y="1472" on="1"/>
        <pt x="388" y="1472" on="0"/>
        <pt x="339" y="1457" on="0"/>
        <pt x="294" y="1433" on="0"/>
        <pt x="254" y="1404" on="0"/>
        <pt x="238" y="1390" on="1"/>
      </contour>
      <contour>
        <pt x="88" y="363" on="1"/>
        <pt x="99" y="426" on="0"/>
        <pt x="177" y="523" on="0"/>
        <pt x="289" y="595" on="0"/>
        <pt x="425" y="644" on="0"/>
        <pt x="561" y="673" on="0"/>
        <pt x="689" y="686" on="0"/>
        <pt x="737" y="686" on="1"/>
        <pt x="737" y="724" on="1"/>
        <pt x="737" y="803" on="0"/>
        <pt x="703" y="903" on="0"/>
        <pt x="640" y="960" on="0"/>
        <pt x="552" y="980" on="0"/>
        <pt x="498" y="980" on="1"/>
        <pt x="448" y="980" on="0"/>
        <pt x="354" y="963" on="0"/>
        <pt x="272" y="939" on="0"/>
        <pt x="206" y="910" on="0"/>
        <pt x="184" y="898" on="1"/>
        <pt x="130" y="1025" on="1"/>
        <pt x="155" y="1046" on="0"/>
        <pt x="248" y="1089" on="0"/>
        <pt x="370" y="1124" on="0"/>
        <pt x="514" y="1146" on="0"/>
        <pt x="591" y="1146" on="1"/>
        <pt x="682" y="1146" on="0"/>
        <pt x="840" y="1111" on="0"/>
        <pt x="956" y="1022" on="0"/>
        <pt x="1022" y="871" on="0"/>
        <pt x="1022" y="754" on="1"/>
        <pt x="1021" y="114" on="1"/>
        <pt x="1150" y="114" on="1"/>
        <pt x="1150" y="25" on="1"/>
        <pt x="1128" y="11" on="0"/>
        <pt x="1072" y="-9" on="0"/>
        <pt x="1011" y="-21" on="0"/>
        <pt x="949" y="-26" on="0"/>
        <pt x="921" y="-26" on="1"/>
        <pt x="902" y="-26" on="0"/>
        <pt x="850" y="-19" on="0"/>
        <pt x="802" y="4" on="0"/>
        <pt x="768" y="49" on="0"/>
        <pt x="768" y="87" on="1"/>
        <pt x="768" y="96" on="1"/>
        <pt x="717" y="45" on="0"/>
        <pt x="567" y="-26" on="0"/>
        <pt x="460" y="-26" on="1"/>
        <pt x="352" y="-26" on="0"/>
        <pt x="198" y="38" on="0"/>
        <pt x="105" y="146" on="0"/>
        <pt x="74" y="286" on="0"/>
      </contour>
      <contour>
        <pt x="368" y="328" on="1"/>
        <pt x="368" y="221" on="0"/>
        <pt x="484" y="131" on="0"/>
        <pt x="593" y="139" on="1"/>
        <pt x="636" y="143" on="0"/>
        <pt x="707" y="182" on="0"/>
        <pt x="736" y="205" on="1"/>
        <pt x="736" y="293" on="0"/>
        <pt x="737" y="467" on="0"/>
        <pt x="737" y="555" on="1"/>
        <pt x="701" y="555" on="0"/>
        <pt x="618" y="547" on="0"/>
        <pt x="536" y="527" on="0"/>
        <pt x="461" y="493" on="0"/>
        <pt x="403" y="443" on="0"/>
        <pt x="368" y="374" on="0"/>
      </contour>
    </TTGlyph>
    <TTGlyph name="b" xMin="27" yMin="-28" xMax="1215" yMax="1627">
      <contour>
        <pt x="172" y="1420" on="1"/>
        <pt x="27" y="1467" on="1"/>
        <pt x="27" y="1584" on="1"/>
        <pt x="407" y="1627" on="1"/>
        <pt x="456" y="1610" on="1"/>
        <pt x="456" y="1064" on="1"/>
        <pt x="506" y="1099" on="0"/>
        <pt x="649" y="1152" on="0"/>
        <pt x="746" y="1152" on="1"/>
        <pt x="835" y="1152" on="0"/>
        <pt x="1004" y="1093" on="0"/>
        <pt x="1135" y="963" on="0"/>
        <pt x="1215" y="755" on="0"/>
        <pt x="1215" y="605" on="1"/>
        <pt x="1215" y="480" on="0"/>
        <pt x="1129" y="251" on="0"/>
        <pt x="971" y="76" on="0"/>
        <pt x="748" y="-28" on="0"/>
        <pt x="612" y="-28" on="1"/>
        <pt x="537" y="-28" on="0"/>
        <pt x="388" y="-11" on="0"/>
        <pt x="267" y="14" on="0"/>
        <pt x="183" y="42" on="0"/>
        <pt x="172" y="53" on="1"/>
      </contour>
      <contour>
        <pt x="456" y="182" on="1"/>
        <pt x="470" y="150" on="0"/>
        <pt x="565" y="100" on="0"/>
        <pt x="643" y="100" on="1"/>
        <pt x="695" y="100" on="0"/>
        <pt x="796" y="147" on="0"/>
        <pt x="876" y="256" on="0"/>
        <pt x="927" y="436" on="0"/>
        <pt x="930" y="568" on="1"/>
        <pt x="933" y="680" on="0"/>
        <pt x="881" y="841" on="0"/>
        <pt x="796" y="944" on="0"/>
        <pt x="688" y="992" on="0"/>
        <pt x="634" y="992" on="1"/>
        <pt x="571" y="992" on="0"/>
        <pt x="483" y="963" on="0"/>
        <pt x="456" y="949" on="1"/>
      </contour>
    </TTGlyph>
    <TTGlyph name="backslash" xMin="30" yMin="-363" xMax="792" yMax="1599">
      <contour>
        <pt x="30" y="1599" on="1"/>
        <pt x="253" y="1599" on="1"/>
        <pt x="792" y="-363" on="1"/>
        <pt x="570" y="-363" on="1"/>
      </contour>
    </TTGlyph>
    <TTGlyph name="bar" xMin="363" yMin="-186" xMax="639" yMax="1780">
      <contour>
        <pt x="363" y="1780" on="1"/>
        <pt x="639" y="1780" on="1"/>
        <pt x="639" y="-186" on="1"/>
        <pt x="363" y="-186" on="1"/>
      </contour>
    </TTGlyph>
    <TTGlyph name="braceleft" xMin="81" yMin="-230" xMax="839" yMax="1777">
      <contour>
        <pt x="290" y="568" on="1"/>
        <pt x="290" y="590" on="0"/>
        <pt x="253" y="630" on="0"/>
        <pt x="194" y="662" on="0"/>
        <pt x="119" y="685" on="0"/>
        <pt x="81" y="691" on="1"/>
        <pt x="81" y="871" on="1"/>
        <pt x="121" y="878" on="0"/>
        <pt x="196" y="896" on="0"/>
        <pt x="254" y="923" on="0"/>
        <pt x="290" y="960" on="0"/>
        <pt x="290" y="985" on="1"/>
        <pt x="290" y="1527" on="1"/>
        <pt x="290" y="1601" on="0"/>
        <pt x="321" y="1697" on="0"/>
        <pt x="381" y="1754" on="0"/>
        <pt x="470" y="1777" on="0"/>
        <pt x="528" y="1777" on="1"/>
        <pt x="569" y="1777" on="0"/>
        <pt x="652" y="1764" on="0"/>
        <pt x="732" y="1746" on="0"/>
        <pt x="807" y="1725" on="0"/>
        <pt x="839" y="1716" on="1"/>
        <pt x="839" y="1688" on="0"/>
        <pt x="838" y="1634" on="0"/>
        <pt x="838" y="1607" on="1"/>
        <pt x="538" y="1607" on="1"/>
        <pt x="538" y="971" on="1"/>
        <pt x="538" y="933" on="0"/>
        <pt x="508" y="879" on="0"/>
        <pt x="482" y="858" on="1"/>
        <pt x="452" y="833" on="0"/>
        <pt x="370" y="797" on="0"/>
        <pt x="322" y="776" on="1"/>
        <pt x="372" y="756" on="0"/>
        <pt x="457" y="714" on="0"/>
        <pt x="488" y="686" on="1"/>
        <pt x="511" y="665" on="0"/>
        <pt x="538" y="610" on="0"/>
        <pt x="538" y="575" on="1"/>
        <pt x="538" y="-59" on="1"/>
        <pt x="838" y="-59" on="1"/>
        <pt x="838" y="-87" on="0"/>
        <pt x="839" y="-142" on="0"/>
        <pt x="839" y="-170" on="1"/>
        <pt x="807" y="-179" on="0"/>
        <pt x="736" y="-200" on="0"/>
        <pt x="660" y="-218" on="0"/>
        <pt x="580" y="-230" on="0"/>
        <pt x="539" y="-230" on="1"/>
        <pt x="481" y="-230" on="0"/>
        <pt x="389" y="-208" on="0"/>
        <pt x="324" y="-150" on="0"/>
        <pt x="290" y="-48" on="0"/>
        <pt x="290" y="32" on="1"/>
      </contour>
    </TTGlyph>
    <TTGlyph name="braceright" xMin="214" yMin="-230" xMax="973" yMax="1777">
      <contour>
        <pt x="515" y="-59" on="1"/>
        <pt x="515" y="575" on="1"/>
        <pt x="515" y="610" on="0"/>
        <pt x="543" y="665" on="0"/>
        <pt x="566" y="686" on="1"/>
        <pt x="596" y="714" on="0"/>
        <pt x="682" y="756" on="0"/>
        <pt x="731" y="776" on="1"/>
        <pt x="684" y="797" on="0"/>
        <pt x="601" y="833" on="0"/>
        <pt x="572" y="858" on="1"/>
        <pt x="546" y="879" on="0"/>
        <pt x="515" y="933" on="0"/>
        <pt x="515" y="971" on="1"/>
        <pt x="515" y="1607" on="1"/>
        <pt x="215" y="1607" on="1"/>
        <pt x="215" y="1634" on="0"/>
        <pt x="214" y="1688" on="0"/>
        <pt x="214" y="1716" on="1"/>
        <pt x="246" y="1725" on="0"/>
        <pt x="321" y="1746" on="0"/>
        <pt x="401" y="1764" on="0"/>
        <pt x="484" y="1777" on="0"/>
        <pt x="525" y="1777" on="1"/>
        <pt x="583" y="1777" on="0"/>
        <pt x="672" y="1754" on="0"/>
        <pt x="733" y="1697" on="0"/>
        <pt x="764" y="1601" on="0"/>
        <pt x="764" y="1527" on="1"/>
        <pt x="764" y="985" on="1"/>
        <pt x="764" y="960" on="0"/>
        <pt x="799" y="923" on="0"/>
        <pt x="858" y="896" on="0"/>
        <pt x="933" y="878" on="0"/>
        <pt x="973" y="871" on="1"/>
        <pt x="973" y="691" on="1"/>
        <pt x="935" y="685" on="0"/>
        <pt x="860" y="662" on="0"/>
        <pt x="801" y="630" on="0"/>
        <pt x="764" y="590" on="0"/>
        <pt x="764" y="568" on="1"/>
        <pt x="764" y="32" on="1"/>
        <pt x="764" y="-48" on="0"/>
        <pt x="729" y="-150" on="0"/>
        <pt x="664" y="-208" on="0"/>
        <pt x="572" y="-230" on="0"/>
        <pt x="514" y="-230" on="1"/>
        <pt x="473" y="-230" on="0"/>
        <pt x="393" y="-218" on="0"/>
        <pt x="317" y="-200" on="0"/>
        <pt x="246" y="-179" on="0"/>
        <pt x="214" y="-170" on="1"/>
        <pt x="214" y="-142" on="0"/>
        <pt x="215" y="-87" on="0"/>
        <pt x="215" y="-59" on="1"/>
      </contour>
    </TTGlyph>
    <TTGlyph name="bracketleft" xMin="233" yMin="-213" xMax="785" yMax="1775">
      <contour>
        <pt x="233" y="1501" on="1"/>
        <pt x="233" y="1583" on="0"/>
        <pt x="263" y="1690" on="0"/>
        <pt x="326" y="1751" on="0"/>
        <pt x="425" y="1775" on="0"/>
        <pt x="493" y="1775" on="1"/>
        <pt x="568" y="1775" on="0"/>
        <pt x="715" y="1735" on="0"/>
        <pt x="784" y="1712" on="1"/>
        <pt x="784" y="1685" on="0"/>
        <pt x="783" y="1632" on="0"/>
        <pt x="783" y="1605" on="1"/>
        <pt x="482" y="1605" on="1"/>
        <pt x="482" y="-42" on="1"/>
        <pt x="783" y="-45" on="1"/>
        <pt x="783" y="-73" on="0"/>
        <pt x="785" y="-126" on="0"/>
        <pt x="785" y="-153" on="1"/>
        <pt x="757" y="-165" on="0"/>
        <pt x="687" y="-187" on="0"/>
        <pt x="611" y="-203" on="0"/>
        <pt x="531" y="-213" on="0"/>
        <pt x="494" y="-213" on="1"/>
        <pt x="425" y="-213" on="0"/>
        <pt x="327" y="-190" on="0"/>
        <pt x="263" y="-124" on="0"/>
        <pt x="233" y="-6" on="0"/>
        <pt x="233" y="89" on="1"/>
      </contour>
    </TTGlyph>
    <TTGlyph name="bracketright" xMin="215" yMin="-213" xMax="767" yMax="1775">
      <contour>
        <pt x="519" y="-42" on="1"/>
        <pt x="519" y="1605" on="1"/>
        <pt x="218" y="1605" on="1"/>
        <pt x="218" y="1632" on="0"/>
        <pt x="217" y="1685" on="0"/>
        <pt x="217" y="1712" on="1"/>
        <pt x="286" y="1735" on="0"/>
        <pt x="432" y="1775" on="0"/>
        <pt x="507" y="1775" on="1"/>
        <pt x="575" y="1775" on="0"/>
        <pt x="674" y="1751" on="0"/>
        <pt x="737" y="1690" on="0"/>
        <pt x="767" y="1583" on="0"/>
        <pt x="767" y="1501" on="1"/>
        <pt x="767" y="89" on="1"/>
        <pt x="767" y="-6" on="0"/>
        <pt x="737" y="-124" on="0"/>
        <pt x="674" y="-190" on="0"/>
        <pt x="576" y="-213" on="0"/>
        <pt x="507" y="-213" on="1"/>
        <pt x="470" y="-213" on="0"/>
        <pt x="390" y="-203" on="0"/>
        <pt x="314" y="-187" on="0"/>
        <pt x="243" y="-165" on="0"/>
        <pt x="215" y="-153" on="1"/>
        <pt x="218" y="-45" on="1"/>
      </contour>
    </TTGlyph>
    <TTGlyph name="breve" xMin="280" yMin="1359" xMax="994" yMax="1696">
      <contour>
        <pt x="637" y="1359" on="1"/>
        <pt x="551" y="1359" on="0"/>
        <pt x="418" y="1418" on="0"/>
        <pt x="327" y="1514" on="0"/>
        <pt x="280" y="1634" on="0"/>
        <pt x="280" y="1695" on="1"/>
        <pt x="441" y="1695" on="1"/>
        <pt x="445" y="1684" on="0"/>
        <pt x="464" y="1631" on="0"/>
        <pt x="506" y="1577" on="0"/>
        <pt x="579" y="1535" on="0"/>
        <pt x="638" y="1535" on="1"/>
        <pt x="695" y="1535" on="0"/>
        <pt x="768" y="1577" on="0"/>
        <pt x="812" y="1632" on="0"/>
        <pt x="832" y="1685" on="0"/>
        <pt x="837" y="1696" on="1"/>
        <pt x="994" y="1696" on="1"/>
        <pt x="994" y="1635" on="0"/>
        <pt x="944" y="1514" on="0"/>
        <pt x="851" y="1418" on="0"/>
        <pt x="719" y="1359" on="0"/>
      </contour>
    </TTGlyph>
    <TTGlyph name="breve.cap" xMin="-22" yMin="1593" xMax="683" yMax="1920">
      <contour>
        <pt x="331" y="1593" on="1"/>
        <pt x="245" y="1593" on="0"/>
        <pt x="113" y="1649" on="0"/>
        <pt x="24" y="1741" on="0"/>
        <pt x="-22" y="1859" on="0"/>
        <pt x="-22" y="1920" on="1"/>
        <pt x="134" y="1920" on="1"/>
        <pt x="138" y="1909" on="0"/>
        <pt x="158" y="1860" on="0"/>
        <pt x="200" y="1809" on="0"/>
        <pt x="273" y="1770" on="0"/>
        <pt x="332" y="1770" on="1"/>
        <pt x="389" y="1770" on="0"/>
        <pt x="462" y="1808" on="0"/>
        <pt x="506" y="1859" on="0"/>
        <pt x="526" y="1909" on="0"/>
        <pt x="531" y="1920" on="1"/>
        <pt x="683" y="1920" on="1"/>
        <pt x="683" y="1859" on="0"/>
        <pt x="634" y="1741" on="0"/>
        <pt x="543" y="1649" on="0"/>
        <pt x="413" y="1593" on="0"/>
      </contour>
    </TTGlyph>
    <TTGlyph name="brokenbar" xMin="363" yMin="-185" xMax="639" yMax="1780">
      <contour>
        <pt x="363" y="1780" on="1"/>
        <pt x="639" y="1780" on="1"/>
        <pt x="639" y="898" on="1"/>
        <pt x="363" y="898" on="1"/>
      </contour>
      <contour>
        <pt x="363" y="697" on="1"/>
        <pt x="639" y="697" on="1"/>
        <pt x="639" y="-185" on="1"/>
        <pt x="363" y="-185" on="1"/>
      </contour>
    </TTGlyph>
    <TTGlyph name="bullet" xMin="161" yMin="471" xMax="725" yMax="1034">
      <contour>
        <pt x="429" y="471" on="1"/>
        <pt x="372" y="471" on="0"/>
        <pt x="271" y="517" on="0"/>
        <pt x="196" y="595" on="0"/>
        <pt x="156" y="697" on="0"/>
        <pt x="161" y="754" on="1"/>
        <pt x="165" y="813" on="0"/>
        <pt x="216" y="915" on="0"/>
        <pt x="296" y="991" on="0"/>
        <pt x="400" y="1034" on="0"/>
        <pt x="457" y="1034" on="1"/>
        <pt x="514" y="1034" on="0"/>
        <pt x="615" y="991" on="0"/>
        <pt x="689" y="915" on="0"/>
        <pt x="729" y="813" on="0"/>
        <pt x="725" y="754" on="1"/>
        <pt x="720" y="695" on="0"/>
        <pt x="670" y="592" on="0"/>
        <pt x="590" y="515" on="0"/>
        <pt x="486" y="471" on="0"/>
      </contour>
    </TTGlyph>
</ttFont>
